<svg width="21" height="22" viewBox="0 0 21 22" fill="none" xmlns="http://www.w3.org/2000/svg">
<g clip-path="url(#clip0_12872_29861)">
<path d="M5.88687 9.9911L9.57439 6.36753L13.1997 10.0566L15.3453 7.94828L9.6116 2.11358L3.77865 7.84536L5.88694 9.99095L5.88687 9.9911ZM0.117865 11.4427L2.26353 9.33391L4.37182 11.4794L2.22616 13.5879L0.117865 11.4427ZM5.86059 12.9951L9.48415 16.6824L13.1733 13.0574L15.2829 15.2018L15.2818 15.203L9.44694 20.9364L3.71516 15.1034L3.71217 15.1004L5.86082 12.9949L5.86059 12.9951ZM14.6867 11.571L16.8324 9.46256L18.9407 11.6081L16.7951 13.7165L14.6867 11.571Z" fill="#F3BA2F"/>
<path d="M11.6865 11.5417L11.6874 11.5417L9.54814 9.36459L7.93896 10.9454L7.7541 11.1271L7.37282 11.5018L7.36978 11.5047L7.37277 11.5078L9.51035 13.6834L11.6876 11.544L11.6886 11.5428L11.6867 11.5417" fill="#F3BA2F"/>
</g>
<defs>
<clipPath id="clip0_12872_29861">
<rect width="20" height="20" fill="white" transform="translate(0.174805 0.913086) rotate(0.501206)"/>
</clipPath>
</defs>
</svg>
