<svg width="172" height="24" viewBox="0 0 172 24" fill="none" xmlns="http://www.w3.org/2000/svg">
<g clip-path="url(#clip0_2941_10803)">
<g clip-path="url(#clip1_2941_10803)">
<path d="M23.3838 22.668H16.086L11.2346 15.6455L18.3576 15.7856L23.3838 22.668Z" fill="url(#paint0_linear_2941_10803)"/>
<path d="M23.3836 8.47328C23.3836 10.8141 22.4071 12.9349 20.8345 14.4654C19.2619 15.9959 17.0828 16.9463 14.6776 16.9463H12.1594L8.14049 11.3643H14.616C15.428 11.3643 16.168 11.0442 16.7025 10.524C17.237 10.0038 17.5659 9.28356 17.5659 8.49328C17.5659 6.90271 16.24 5.62226 14.616 5.62226H11.111L7.21542 0.230347L7.05096 0.0102737H14.6571C19.488 0.000270105 23.3836 3.79161 23.3836 8.47328Z" fill="url(#paint1_linear_2941_10803)"/>
<path d="M11.7689 8.443H10.741L4.66638 0L5.70452 0.0100133L11.7689 8.443Z" fill="url(#paint2_linear_2941_10803)"/>
<path d="M7.10248 8.443H6.06434L0 0L1.03813 0.0100133L7.10248 8.443Z" fill="url(#paint3_linear_2941_10803)"/>
<path d="M9.43566 8.443H8.40781L2.33319 0L3.37132 0.0100133L9.43566 8.443Z" fill="url(#paint4_linear_2941_10803)"/>
</g>
<path d="M39.5178 13.8825H36.9271V19.5056H33.6751V4.14502H39.5395C41.4039 4.14502 42.842 4.54943 43.8538 5.35825C44.8655 6.16707 45.3713 7.30998 45.3713 8.78696C45.3713 9.83491 45.1365 10.7106 44.6668 11.4139C44.2043 12.1102 43.4997 12.6658 42.553 13.0808L45.9675 19.3579V19.5056H42.4771L39.5178 13.8825ZM36.9271 11.3189H39.5503C40.3669 11.3189 40.9993 11.1185 41.4473 10.7176C41.8954 10.3097 42.1194 9.75051 42.1194 9.04016C42.1194 8.31573 41.9062 7.74604 41.4798 7.33108C41.0607 6.91612 40.4139 6.70863 39.5395 6.70863H36.9271V11.3189Z" fill="white"/>
<path d="M50.9539 19.5056H47.8103V8.09067H50.9539V19.5056ZM47.626 5.1367C47.626 4.67954 47.7814 4.30326 48.0922 4.00787C48.4101 3.71247 48.8401 3.56477 49.3821 3.56477C49.9169 3.56477 50.3432 3.71247 50.6612 4.00787C50.9792 4.30326 51.1382 4.67954 51.1382 5.1367C51.1382 5.6009 50.9756 5.98069 50.6504 6.27609C50.3324 6.57149 49.9096 6.71918 49.3821 6.71918C48.8546 6.71918 48.4282 6.57149 48.103 6.27609C47.785 5.98069 47.626 5.6009 47.626 5.1367Z" fill="white"/>
<path d="M53.0893 13.7137C53.0893 11.9625 53.5157 10.5523 54.3685 9.48325C55.2284 8.4142 56.3847 7.87967 57.8372 7.87967C59.1235 7.87967 60.1244 8.3087 60.8399 9.16675L60.9699 8.09067H63.81V19.1258C63.81 20.1246 63.5751 20.9932 63.1054 21.7317C62.6429 22.4701 61.9889 23.0328 61.1434 23.4196C60.2979 23.8065 59.3078 23.9999 58.1733 23.9999C57.3133 23.9999 56.475 23.8311 55.6584 23.4935C54.8418 23.1629 54.2239 22.7339 53.8048 22.2064L55.1923 20.3496C55.9728 21.2006 56.9194 21.6262 58.0323 21.6262C58.8634 21.6262 59.5102 21.4081 59.9727 20.9721C60.4352 20.543 60.6664 19.9311 60.6664 19.1364V18.5245C59.9438 19.3192 58.9935 19.7166 57.8155 19.7166C56.4064 19.7166 55.2645 19.1821 54.3901 18.113C53.5229 17.037 53.0893 15.6127 53.0893 13.8403V13.7137ZM56.2221 13.9353C56.2221 14.9692 56.4353 15.7815 56.8616 16.3723C57.288 16.9561 57.8733 17.248 58.6177 17.248C59.5716 17.248 60.2545 16.8998 60.6664 16.2035V11.4033C60.2473 10.707 59.5716 10.3589 58.6394 10.3589C57.8878 10.3589 57.2952 10.6578 56.8616 11.2556C56.4353 11.8535 56.2221 12.7467 56.2221 13.9353Z" fill="white"/>
<path d="M71.6256 19.7166C69.9056 19.7166 68.5037 19.2032 67.4197 18.1763C66.3429 17.1495 65.8045 15.7815 65.8045 14.0724V13.777C65.8045 12.6306 66.0322 11.6073 66.4874 10.707C66.9427 9.79975 67.5859 9.10346 68.4169 8.61816C69.2552 8.12583 70.2091 7.87967 71.2787 7.87967C72.883 7.87967 74.144 8.372 75.0618 9.35665C75.9868 10.3413 76.4493 11.7374 76.4493 13.545V14.7898H68.9806C69.0818 15.5354 69.3853 16.1332 69.8912 16.5833C70.4043 17.0334 71.051 17.2585 71.8315 17.2585C73.0384 17.2585 73.9814 16.833 74.6607 15.982L76.2 17.6594C75.7303 18.3065 75.0943 18.8129 74.2922 19.1786C73.49 19.5373 72.6011 19.7166 71.6256 19.7166ZM71.2678 10.3483C70.6464 10.3483 70.1405 10.5523 69.7503 10.9602C69.3672 11.3682 69.1215 11.9519 69.0131 12.7115H73.3708V12.4689C73.3563 11.7937 73.1684 11.2732 72.8071 10.9075C72.4458 10.5347 71.9327 10.3483 71.2678 10.3483Z" fill="white"/>
<path d="M81.544 19.5056H78.4005V3.30103H81.544V19.5056Z" fill="white"/>
<path d="M93.121 14.0935V19.5056H89.8691V4.14502H96.0261C97.2113 4.14502 98.2519 4.35601 99.148 4.77801C100.051 5.2 100.745 5.80135 101.229 6.58204C101.713 7.35569 101.956 8.23837 101.956 9.23005C101.956 10.7352 101.424 11.9238 100.362 12.7959C99.307 13.661 97.8436 14.0935 95.9719 14.0935H93.121ZM93.121 11.5299H96.0261C96.8861 11.5299 97.5401 11.333 97.9882 10.9391C98.4434 10.5453 98.6711 9.98261 98.6711 9.25115C98.6711 8.4986 98.4434 7.89022 97.9882 7.42603C97.5329 6.96183 96.9042 6.7227 96.102 6.70863H93.121V11.5299Z" fill="white"/>
<path d="M110.584 10.9497C110.158 10.8934 109.782 10.8653 109.457 10.8653C108.272 10.8653 107.495 11.2556 107.126 12.0363V19.5056H103.993V8.09067H106.953L107.039 9.4516C107.668 8.40365 108.539 7.87967 109.652 7.87967C109.999 7.87967 110.324 7.92539 110.627 8.01682L110.584 10.9497Z" fill="white"/>
<path d="M111.224 13.6926C111.224 12.5603 111.448 11.551 111.896 10.6648C112.344 9.77865 112.987 9.09291 113.825 8.60761C114.671 8.12232 115.65 7.87967 116.763 7.87967C118.345 7.87967 119.635 8.3509 120.633 9.29335C121.637 10.2358 122.197 11.5159 122.313 13.1335L122.335 13.9142C122.335 15.6655 121.832 17.0721 120.828 18.1341C119.823 19.1891 118.476 19.7166 116.785 19.7166C115.093 19.7166 113.742 19.1891 112.73 18.1341C111.726 17.0792 111.224 15.6444 111.224 13.8298V13.6926ZM114.356 13.9142C114.356 14.9973 114.566 15.8272 114.985 16.404C115.404 16.9737 116.004 17.2585 116.785 17.2585C117.543 17.2585 118.136 16.9772 118.562 16.4145C118.989 15.8448 119.202 14.9375 119.202 13.6926C119.202 12.6306 118.989 11.8077 118.562 11.224C118.136 10.6402 117.536 10.3483 116.763 10.3483C115.997 10.3483 115.404 10.6402 114.985 11.224C114.566 11.8007 114.356 12.6974 114.356 13.9142Z" fill="white"/>
<path d="M128.015 5.2844V8.09067H130.02V10.3272H128.015V16.0242C128.015 16.4462 128.098 16.7486 128.264 16.9315C128.43 17.1143 128.748 17.2058 129.218 17.2058C129.565 17.2058 129.872 17.1811 130.139 17.1319V19.4423C129.525 19.6252 128.893 19.7166 128.242 19.7166C126.045 19.7166 124.925 18.637 124.882 16.4778V10.3272H123.169V8.09067H124.882V5.2844H128.015Z" fill="white"/>
<path d="M130.952 13.6926C130.952 12.5603 131.176 11.551 131.624 10.6648C132.072 9.77865 132.716 9.09291 133.554 8.60761C134.399 8.12232 135.379 7.87967 136.491 7.87967C138.074 7.87967 139.364 8.3509 140.361 9.29335C141.366 10.2358 141.926 11.5159 142.041 13.1335L142.063 13.9142C142.063 15.6655 141.561 17.0721 140.556 18.1341C139.552 19.1891 138.204 19.7166 136.513 19.7166C134.822 19.7166 133.471 19.1891 132.459 18.1341C131.455 17.0792 130.952 15.6444 130.952 13.8298V13.6926ZM134.085 13.9142C134.085 14.9973 134.295 15.8272 134.714 16.404C135.133 16.9737 135.733 17.2585 136.513 17.2585C137.272 17.2585 137.864 16.9772 138.291 16.4145C138.717 15.8448 138.93 14.9375 138.93 13.6926C138.93 12.6306 138.717 11.8077 138.291 11.224C137.864 10.6402 137.265 10.3483 136.491 10.3483C135.725 10.3483 135.133 10.6402 134.714 11.224C134.295 11.8007 134.085 12.6974 134.085 13.9142Z" fill="white"/>
<path d="M148.871 17.2585C149.449 17.2585 149.918 17.1038 150.28 16.7943C150.641 16.4848 150.829 16.0734 150.843 15.56H153.781C153.774 16.3336 153.557 17.044 153.131 17.6911C152.704 18.3311 152.119 18.8304 151.375 19.1891C150.637 19.5408 149.821 19.7166 148.925 19.7166C147.248 19.7166 145.926 19.1997 144.957 18.1658C143.989 17.1249 143.505 15.6901 143.505 13.8614V13.661C143.505 11.9027 143.985 10.4996 144.947 9.4516C145.908 8.40365 147.227 7.87967 148.903 7.87967C150.37 7.87967 151.544 8.2876 152.426 9.10346C153.315 9.91228 153.767 10.9919 153.781 12.3423H150.843C150.829 11.7515 150.641 11.2732 150.28 10.9075C149.918 10.5347 149.441 10.3483 148.849 10.3483C148.119 10.3483 147.566 10.6086 147.19 11.129C146.822 11.6425 146.638 12.4794 146.638 13.6399V13.9564C146.638 15.1309 146.822 15.9749 147.19 16.4884C147.559 17.0018 148.119 17.2585 148.871 17.2585Z" fill="white"/>
<path d="M155.082 13.6926C155.082 12.5603 155.306 11.551 155.754 10.6648C156.202 9.77865 156.845 9.09291 157.683 8.60761C158.529 8.12232 159.508 7.87967 160.621 7.87967C162.204 7.87967 163.494 8.3509 164.491 9.29335C165.495 10.2358 166.055 11.5159 166.171 13.1335L166.193 13.9142C166.193 15.6655 165.69 17.0721 164.686 18.1341C163.682 19.1891 162.334 19.7166 160.643 19.7166C158.952 19.7166 157.6 19.1891 156.589 18.1341C155.584 17.0792 155.082 15.6444 155.082 13.8298V13.6926ZM158.215 13.9142C158.215 14.9973 158.424 15.8272 158.843 16.404C159.262 16.9737 159.862 17.2585 160.643 17.2585C161.402 17.2585 161.994 16.9772 162.42 16.4145C162.847 15.8448 163.06 14.9375 163.06 13.6926C163.06 12.6306 162.847 11.8077 162.42 11.224C161.994 10.6402 161.394 10.3483 160.621 10.3483C159.855 10.3483 159.262 10.6402 158.843 11.224C158.424 11.8007 158.215 12.6974 158.215 13.9142Z" fill="white"/>
<path d="M171.428 19.5056H168.285V3.30103H171.428V19.5056Z" fill="white"/>
</g>
<defs>
<linearGradient id="paint0_linear_2941_10803" x1="30.686" y1="18.974" x2="1.51148" y2="19.394" gradientUnits="userSpaceOnUse">
<stop stop-color="#40BAD5"/>
<stop offset="1" stop-color="#035AA6"/>
</linearGradient>
<linearGradient id="paint1_linear_2941_10803" x1="18.2992" y1="16.5195" x2="12.9143" y2="0.12047" gradientUnits="userSpaceOnUse">
<stop stop-color="#40BAD5"/>
<stop offset="1" stop-color="#035AA6"/>
</linearGradient>
<linearGradient id="paint2_linear_2941_10803" x1="16.2026" y1="15.8802" x2="5.31385" y2="-0.901919" gradientUnits="userSpaceOnUse">
<stop stop-color="#40BAD5"/>
<stop offset="1" stop-color="#035AA6"/>
</linearGradient>
<linearGradient id="paint3_linear_2941_10803" x1="12.97" y1="17.9776" x2="2.08123" y2="1.19555" gradientUnits="userSpaceOnUse">
<stop stop-color="#40BAD5"/>
<stop offset="1" stop-color="#035AA6"/>
</linearGradient>
<linearGradient id="paint4_linear_2941_10803" x1="14.5863" y1="16.9289" x2="3.69753" y2="0.146817" gradientUnits="userSpaceOnUse">
<stop stop-color="#40BAD5"/>
<stop offset="1" stop-color="#035AA6"/>
</linearGradient>
<clipPath id="clip0_2941_10803">
<rect width="171.428" height="24" fill="white"/>
</clipPath>
<clipPath id="clip1_2941_10803">
<rect width="23.3837" height="22.6681" fill="white"/>
</clipPath>
</defs>
</svg>
