<svg width="180" height="30" viewBox="0 0 180 30" fill="blue" xmlns="http://www.w3.org/2000/svg">
<path d="M24.5528 24.4557H16.8902L11.7961 16.8794L19.2753 17.0305L24.5528 24.4557Z" fill="white"/>
<path d="M24.5528 9.14122C24.5528 11.6667 23.5275 13.9547 21.8763 15.6059C20.225 17.2572 17.937 18.2824 15.4116 18.2824H12.7674L8.54757 12.2603H15.3468C16.1994 12.2603 16.9765 11.9149 17.5377 11.3537C18.0989 10.7925 18.4443 10.0154 18.4443 9.1628C18.4443 7.4468 17.052 6.06537 15.3468 6.06537H11.6666L7.57624 0.248223L7.40356 0.010794H15.39C20.4625 1.53854e-06 24.5528 4.09035 24.5528 9.14122Z" fill="white"/>
<path d="M12.3575 9.10885H11.2783L4.8999 0L5.98994 0.010803L12.3575 9.10885Z" fill="white"/>
<path d="M7.4576 9.10885H6.36756L0 0L1.09004 0.010803L7.4576 9.10885Z" fill="white"/>
<path d="M9.9073 9.10885H8.82806L2.44971 0L3.53974 0.010803L9.9073 9.10885Z" fill="white"/>
<path d="M41.494 18.5046H38.7737V24.5711H35.3591V7.99911H41.5167C43.4744 7.99911 44.9844 8.43542 46.0467 9.30803C47.109 10.1806 47.6402 11.4137 47.6402 13.0071C47.6402 14.1377 47.3936 15.0824 46.9004 15.8412C46.4147 16.5924 45.6749 17.1919 44.6809 17.6396L48.2662 24.4118V24.5711H44.6012L41.494 18.5046ZM38.7737 15.7388H41.5281C42.3855 15.7388 43.0495 15.5225 43.5199 15.09C43.9904 14.6499 44.2256 14.0467 44.2256 13.2803C44.2256 12.4987 44.0018 11.8841 43.5541 11.4364C43.114 10.9888 42.4349 10.7649 41.5167 10.7649H38.7737V15.7388Z" fill="white"/>
<path d="M53.5019 24.5711H50.2011V12.2559H53.5019V24.5711ZM50.0076 9.06901C50.0076 8.57579 50.1708 8.16984 50.497 7.85115C50.8309 7.53246 51.2824 7.37311 51.8515 7.37311C52.413 7.37311 52.8607 7.53246 53.1945 7.85115C53.5284 8.16984 53.6953 8.57579 53.6953 9.06901C53.6953 9.56981 53.5246 9.97956 53.1832 10.2983C52.8493 10.6169 52.4054 10.7763 51.8515 10.7763C51.2976 10.7763 50.8499 10.6169 50.5084 10.2983C50.1745 9.97956 50.0076 9.56981 50.0076 9.06901Z" fill="white"/>
<path d="M55.7441 18.3225C55.7441 16.4331 56.1918 14.9117 57.0871 13.7583C57.9901 12.605 59.2042 12.0283 60.7293 12.0283C62.08 12.0283 63.1309 12.4912 63.8821 13.4169L64.0187 12.2559H67.0008V24.1614C67.0008 25.2389 66.7542 26.176 66.2609 26.9727C65.7753 27.7694 65.0886 28.3765 64.2008 28.7938C63.313 29.2111 62.2735 29.4198 61.0822 29.4198C60.1792 29.4198 59.299 29.2377 58.4416 28.8735C57.5842 28.5169 56.9354 28.054 56.4953 27.4849L57.9522 25.4817C58.7717 26.3998 59.7657 26.8589 60.9342 26.8589C61.8068 26.8589 62.4859 26.6237 62.9716 26.1532C63.4572 25.6904 63.7 25.0302 63.7 24.1728V23.5126C62.9412 24.3701 61.9434 24.7988 60.7066 24.7988C59.2269 24.7988 58.028 24.2221 57.1099 23.0687C56.1994 21.9078 55.7441 20.3712 55.7441 18.4591V18.3225ZM59.0334 18.5615C59.0334 19.6769 59.2573 20.5533 59.705 21.1907C60.1527 21.8205 60.7673 22.1354 61.5488 22.1354C62.5504 22.1354 63.2675 21.7598 63.7 21.0086V15.8298C63.2599 15.0786 62.5504 14.703 61.5716 14.703C60.7825 14.703 60.1602 15.0255 59.705 15.6705C59.2573 16.3155 59.0334 17.2791 59.0334 18.5615Z" fill="white"/>
<path d="M75.2071 24.7988C73.4012 24.7988 71.9291 24.2449 70.7909 23.137C69.6603 22.0292 69.095 20.5533 69.095 18.7095V18.3908C69.095 17.1539 69.334 16.0499 69.8121 15.0786C70.2901 14.0998 70.9655 13.3486 71.8381 12.825C72.7183 12.2939 73.7199 12.0283 74.8429 12.0283C76.5274 12.0283 77.8515 12.5595 78.8152 13.6218C79.7864 14.6841 80.272 16.1903 80.272 18.1404V19.4834H72.4299C72.5361 20.2878 72.8548 20.9327 73.386 21.4184C73.9247 21.904 74.6039 22.1468 75.4234 22.1468C76.6905 22.1468 77.6808 21.6877 78.394 20.7696L80.0103 22.5793C79.517 23.2774 78.8493 23.8237 78.007 24.2183C77.1648 24.6053 76.2315 24.7988 75.2071 24.7988ZM74.8315 14.6917C74.1789 14.6917 73.6478 14.9117 73.238 15.3518C72.8359 15.7919 72.5779 16.4217 72.4641 17.2412H77.0396V16.9794C77.0244 16.251 76.8271 15.6895 76.4477 15.2949C76.0683 14.8927 75.5296 14.6917 74.8315 14.6917Z" fill="white"/>
<path d="M85.6215 24.5711H82.3208V7.08856H85.6215V24.5711Z" fill="white"/>
<path d="M97.7774 18.7322V24.5711H94.3628V7.99911H100.828C102.072 7.99911 103.165 8.22675 104.106 8.68203C105.054 9.1373 105.783 9.78607 106.291 10.6283C106.799 11.463 107.054 12.4153 107.054 13.4852C107.054 15.109 106.496 16.3914 105.38 17.3323C104.273 18.2656 102.736 18.7322 100.771 18.7322H97.7774ZM97.7774 15.9664H100.828C101.731 15.9664 102.417 15.754 102.888 15.329C103.366 14.9041 103.605 14.2971 103.605 13.5079C103.605 12.696 103.366 12.0397 102.888 11.5389C102.41 11.0381 101.75 10.7801 100.907 10.7649H97.7774V15.9664Z" fill="white"/>
<path d="M116.114 15.3404C115.666 15.2797 115.271 15.2494 114.93 15.2494C113.685 15.2494 112.87 15.6705 112.483 16.5128V24.5711H109.193V12.2559H112.301L112.392 13.7242C113.052 12.5936 113.966 12.0283 115.135 12.0283C115.499 12.0283 115.84 12.0776 116.159 12.1763L116.114 15.3404Z" fill="white"/>
<path d="M116.785 18.2997C116.785 17.0781 117.02 15.9892 117.491 15.0331C117.961 14.077 118.637 13.3372 119.517 12.8136C120.405 12.2901 121.433 12.0283 122.601 12.0283C124.263 12.0283 125.617 12.5367 126.665 13.5535C127.719 14.5703 128.307 15.9513 128.429 17.6965L128.452 18.5387C128.452 20.4281 127.924 21.9457 126.869 23.0915C125.815 24.2297 124.4 24.7988 122.624 24.7988C120.848 24.7988 119.429 24.2297 118.367 23.0915C117.312 21.9533 116.785 20.4054 116.785 18.4477V18.2997ZM120.074 18.5387C120.074 19.7073 120.295 20.6026 120.735 21.2249C121.175 21.8395 121.805 22.1468 122.624 22.1468C123.421 22.1468 124.043 21.8433 124.491 21.2362C124.938 20.6216 125.162 19.6428 125.162 18.2997C125.162 17.1539 124.938 16.2662 124.491 15.6364C124.043 15.0066 123.413 14.6917 122.601 14.6917C121.797 14.6917 121.175 15.0066 120.735 15.6364C120.295 16.2586 120.074 17.226 120.074 18.5387Z" fill="white"/>
<path d="M134.416 9.22836V12.2559H136.521V14.6689H134.416V20.8151C134.416 21.2704 134.503 21.5967 134.677 21.794C134.852 21.9912 135.186 22.0899 135.679 22.0899C136.043 22.0899 136.366 22.0633 136.646 22.0102V24.5028C136.002 24.7001 135.338 24.7988 134.655 24.7988C132.348 24.7988 131.172 23.634 131.126 21.3045V14.6689H129.328V12.2559H131.126V9.22836H134.416Z" fill="white"/>
<path d="M137.5 18.2997C137.5 17.0781 137.735 15.9892 138.206 15.0331C138.676 14.077 139.352 13.3372 140.232 12.8136C141.12 12.2901 142.148 12.0283 143.316 12.0283C144.978 12.0283 146.332 12.5367 147.38 13.5535C148.434 14.5703 149.022 15.9513 149.144 17.6965L149.167 18.5387C149.167 20.4281 148.639 21.9457 147.584 23.0915C146.53 24.2297 145.115 24.7988 143.339 24.7988C141.563 24.7988 140.145 24.2297 139.082 23.0915C138.027 21.9533 137.5 20.4054 137.5 18.4477V18.2997ZM140.789 18.5387C140.789 19.7073 141.01 20.6026 141.45 21.2249C141.89 21.8395 142.52 22.1468 143.339 22.1468C144.136 22.1468 144.758 21.8433 145.206 21.2362C145.653 20.6216 145.877 19.6428 145.877 18.2997C145.877 17.1539 145.653 16.2662 145.206 15.6364C144.758 15.0066 144.128 14.6917 143.316 14.6917C142.512 14.6917 141.89 15.0066 141.45 15.6364C141.01 16.2586 140.789 17.226 140.789 18.5387Z" fill="white"/>
<path d="M156.314 22.1468C156.921 22.1468 157.415 21.9799 157.794 21.646C158.173 21.3121 158.371 20.8682 158.386 20.3143H161.47C161.463 21.149 161.235 21.9154 160.787 22.6134C160.34 23.3039 159.725 23.8427 158.944 24.2297C158.17 24.6091 157.312 24.7988 156.371 24.7988C154.611 24.7988 153.222 24.2411 152.206 23.1256C151.189 22.0026 150.68 20.4547 150.68 18.4818V18.2656C150.68 16.3686 151.185 14.8548 152.194 13.7242C153.203 12.5936 154.588 12.0283 156.349 12.0283C157.889 12.0283 159.122 12.4684 160.048 13.3486C160.981 14.2212 161.455 15.386 161.47 16.8428H158.386C158.371 16.2054 158.173 15.6895 157.794 15.2949C157.415 14.8927 156.914 14.6917 156.292 14.6917C155.525 14.6917 154.945 14.9724 154.55 15.5339C154.163 16.0878 153.97 16.9908 153.97 18.2428V18.5843C153.97 19.8514 154.163 20.762 154.55 21.3159C154.937 21.8698 155.525 22.1468 156.314 22.1468Z" fill="white"/>
<path d="M162.836 18.2997C162.836 17.0781 163.071 15.9892 163.542 15.0331C164.012 14.077 164.688 13.3372 165.568 12.8136C166.456 12.2901 167.484 12.0283 168.652 12.0283C170.314 12.0283 171.669 12.5367 172.716 13.5535C173.77 14.5703 174.358 15.9513 174.48 17.6965L174.503 18.5387C174.503 20.4281 173.975 21.9457 172.921 23.0915C171.866 24.2297 170.451 24.7988 168.675 24.7988C166.9 24.7988 165.481 24.2297 164.418 23.0915C163.364 21.9533 162.836 20.4054 162.836 18.4477V18.2997ZM166.126 18.5387C166.126 19.7073 166.346 20.6026 166.786 21.2249C167.226 21.8395 167.856 22.1468 168.675 22.1468C169.472 22.1468 170.094 21.8433 170.542 21.2362C170.989 20.6216 171.213 19.6428 171.213 18.2997C171.213 17.1539 170.989 16.2662 170.542 15.6364C170.094 15.0066 169.464 14.6917 168.652 14.6917C167.848 14.6917 167.226 15.0066 166.786 15.6364C166.346 16.2586 166.126 17.226 166.126 18.5387Z" fill="white"/>
<path d="M180 24.5711H176.699V7.08856H180V24.5711Z" fill="white"/>
</svg>
