<svg width="182" height="48" viewBox="0 0 182 48" fill="none" xmlns="http://www.w3.org/2000/svg">
<path d="M40 44.0001H27.53L19.2242 31.6096L31.4091 31.8501L40 44.0001Z" fill="url(#paint0_linear)"/>
<path d="M39.9999 18.9556C39.9999 23.0782 38.3342 26.8228 35.6417 29.5253C32.9492 32.2279 29.2298 33.8998 25.1112 33.8998H20.81L13.9418 24.0515H25.0199C26.4118 24.0515 27.6782 23.479 28.5909 22.5628C29.5037 21.6467 30.0741 20.3756 30.0741 18.9785C30.0741 16.1844 27.8151 13.9055 25.0199 13.9055H19.0302L12.3673 4.38935L12.0935 4H25.1112C33.3371 4.01145 39.9999 10.6991 39.9999 18.9556Z" fill="url(#paint1_linear)"/>
<path d="M20.1369 18.9099H18.3799L7.98633 4.02295L9.76613 4.0344L20.1369 18.9099Z" fill="url(#paint2_linear)"/>
<path d="M12.1506 18.9099H10.3936L0 4.02295L1.7798 4.0344L12.1506 18.9099Z" fill="url(#paint3_linear)"/>
<path d="M16.1438 18.9099H14.3868L3.99316 4.02295L5.77297 4.0344L16.1438 18.9099Z" fill="url(#paint4_linear)"/>
<path d="M48.504 39.152C49.218 40.398 50.478 41.154 51.99 41.154C53.768 41.154 55.084 40.09 55.084 38.48C55.084 37.262 54.37 36.534 52.872 35.848L51.836 35.372C50.926 34.91 50.604 34.784 50.548 34.056C50.548 33.328 51.164 32.936 51.948 32.936C52.732 32.936 53.404 33.328 53.894 34.056L54.93 33.258C54.356 32.264 53.25 31.606 51.948 31.606C50.352 31.606 49.036 32.6 49.036 34.112C49.036 35.344 49.848 36.058 51.192 36.674L52.214 37.15C53.18 37.598 53.572 37.878 53.572 38.536C53.572 39.32 52.928 39.824 51.976 39.824C50.912 39.824 50.17 39.25 49.554 38.354L48.504 39.152ZM67.2023 36.702C67.2023 35.064 66.2363 33.972 64.6543 33.972C63.6883 33.972 62.8343 34.392 62.3303 35.05C61.9243 34.378 61.1963 33.972 60.2443 33.972C59.4183 33.972 58.7463 34.266 58.2563 34.77V34.126H56.8843V41H58.3543V36.912C58.3543 35.96 58.9703 35.316 59.8663 35.316C60.7483 35.316 61.3083 35.96 61.3083 36.912V41H62.7783V36.842C62.7783 35.96 63.3943 35.316 64.2903 35.316C65.1723 35.316 65.7183 35.946 65.7183 36.912V41H67.2023V36.702ZM74.7037 36.842C74.7037 34.994 73.5837 33.972 71.8897 33.972C70.6997 33.972 69.6777 34.448 68.9917 35.442L69.8457 36.31C70.4197 35.624 70.9797 35.288 71.7497 35.288C72.6877 35.288 73.2197 35.806 73.2197 36.758V37.206H71.2737C69.7197 37.206 68.7397 37.976 68.7397 39.166C68.7397 40.356 69.6917 41.154 71.1337 41.154C72.0717 41.154 72.8277 40.832 73.3317 40.23V41H74.7037V36.842ZM73.2197 38.396C73.2197 39.334 72.4357 40.02 71.4417 40.02C70.7277 40.02 70.2377 39.684 70.2377 39.11C70.2377 38.55 70.6717 38.27 71.4557 38.27H73.2197V38.396ZM80.6835 34.126C80.5155 34.084 80.3335 34.056 80.1235 34.056C79.3395 34.056 78.6115 34.406 78.1215 35.022V34.126H76.7495V41H78.2195V37.332C78.2195 36.114 79.0735 35.428 80.2355 35.428H80.6835V34.126ZM86.0875 39.754C85.6815 39.796 85.3875 39.824 85.1775 39.824C84.2815 39.824 83.8195 39.516 83.8195 38.634V35.4H85.8635V34.126H83.8195V32.32H82.3355V34.126H81.2155V35.4H82.3355V38.76C82.3355 40.37 83.2875 41.154 84.8695 41.154C85.2195 41.154 85.6255 41.098 86.0875 41V39.754ZM87.0177 39.152C87.7317 40.398 88.9917 41.154 90.5037 41.154C92.2817 41.154 93.5977 40.09 93.5977 38.48C93.5977 37.262 92.8837 36.534 91.3857 35.848L90.3497 35.372C89.4397 34.91 89.1177 34.784 89.0617 34.056C89.0617 33.328 89.6777 32.936 90.4617 32.936C91.2457 32.936 91.9177 33.328 92.4077 34.056L93.4437 33.258C92.8697 32.264 91.7637 31.606 90.4617 31.606C88.8657 31.606 87.5497 32.6 87.5497 34.112C87.5497 35.344 88.3617 36.058 89.7057 36.674L90.7277 37.15C91.6937 37.598 92.0857 37.878 92.0857 38.536C92.0857 39.32 91.4417 39.824 90.4897 39.824C89.4257 39.824 88.6837 39.25 88.0677 38.354L87.0177 39.152ZM104.183 34.126L102.405 38.564L100.291 33.972H99.7865L97.7005 38.62L95.8945 34.126H94.3265L97.3785 41.154H97.8825L100.039 36.576L102.195 41.154H102.699L105.751 34.126H104.183ZM112.26 36.842C112.26 34.994 111.14 33.972 109.446 33.972C108.256 33.972 107.234 34.448 106.548 35.442L107.402 36.31C107.976 35.624 108.536 35.288 109.306 35.288C110.244 35.288 110.776 35.806 110.776 36.758V37.206H108.83C107.276 37.206 106.296 37.976 106.296 39.166C106.296 40.356 107.248 41.154 108.69 41.154C109.628 41.154 110.384 40.832 110.888 40.23V41H112.26V36.842ZM110.776 38.396C110.776 39.334 109.992 40.02 108.998 40.02C108.284 40.02 107.794 39.684 107.794 39.11C107.794 38.55 108.228 38.27 109.012 38.27H110.776V38.396ZM121.446 37.556C121.446 35.526 120.018 33.972 118.072 33.972C117.064 33.972 116.182 34.378 115.678 35.092V34.126H114.306V43.52H115.776V40.16C116.322 40.79 117.134 41.154 118.072 41.154C120.018 41.154 121.446 39.614 121.446 37.556ZM119.934 37.57C119.934 38.886 119.01 39.81 117.834 39.81C116.756 39.81 115.762 39.068 115.762 37.556C115.762 36.058 116.756 35.316 117.834 35.316C119.024 35.316 119.934 36.254 119.934 37.57Z" fill="#319EF6"/>
<path d="M60.66 20.0001L56.92 14.8201C58.36 14.1001 59.24 12.7401 59.24 11.0601C59.24 8.52007 57.24 6.80007 54.48 6.80007H49.52V20.0001H52.22V15.3401H54.2L57.62 20.0001H60.66ZM52.22 9.18007H54.48C55.7 9.18007 56.48 9.94007 56.48 11.0601C56.48 12.2001 55.74 12.9601 54.48 12.9601H52.22V9.18007ZM62.133 20.0001H64.833V10.1001H62.133V20.0001ZM61.753 6.50007C61.753 7.44007 62.513 8.16007 63.473 8.16007C64.433 8.16007 65.213 7.44007 65.213 6.50007C65.213 5.54007 64.433 4.82007 63.473 4.82007C62.513 4.82007 61.753 5.54007 61.753 6.50007ZM74.9641 10.1001V11.3401C74.2641 10.4001 73.1441 9.88007 71.7241 9.88007C69.0241 9.88007 66.9841 11.8401 66.9841 14.7801C66.9841 17.6801 68.9841 19.7001 71.7241 19.7001C72.9841 19.7001 74.0241 19.3001 74.7441 18.5201V19.0601C74.7441 20.6001 73.7041 21.4001 72.1041 21.4001C70.9041 21.4001 69.9841 20.9401 68.8841 20.1201L67.4641 22.0001C68.8441 23.2201 70.4641 23.8401 72.3241 23.8401C75.4241 23.8401 77.4441 22.1201 77.4441 18.9001V10.1001H74.9641ZM74.7841 14.7401C74.7841 16.4401 73.6441 17.4201 72.2841 17.4201C70.8441 17.4201 69.7241 16.3601 69.7241 14.7601C69.7241 13.1601 70.8241 12.1801 72.2841 12.1801C73.6641 12.1801 74.7841 13.0401 74.7841 14.7401ZM89.2213 15.9601C89.3412 15.4601 89.4013 14.9601 89.4013 14.4801C89.4013 11.9001 87.4813 9.88007 84.7413 9.88007C81.8813 9.82007 79.5013 12.2001 79.5613 15.0601C79.5013 17.9201 81.9213 20.3001 84.9813 20.2401C86.4413 20.2401 87.7613 19.7401 88.9413 18.7601L87.8213 16.9201C86.9613 17.5801 86.0413 17.9201 85.0613 17.9201C83.6213 17.9201 82.6013 17.2201 82.2813 15.9601H89.2213ZM82.2813 14.0601C82.5813 12.8401 83.5013 12.0601 84.6413 12.0601C85.8213 12.0601 86.7613 12.8401 86.7813 14.0601H82.2813ZM91.508 20.0001H94.208V5.00007H91.508V20.0001ZM102.665 20.0001H105.365V15.3401H107.625C110.385 15.3401 112.385 13.5801 112.385 11.0601C112.385 8.52007 110.385 6.80007 107.625 6.80007H102.665V20.0001ZM105.365 12.9801V9.18007H107.625C108.845 9.18007 109.625 9.94007 109.625 11.0601C109.625 12.2001 108.885 12.9801 107.625 12.9801H105.365ZM120.44 10.1001C120.18 10.0201 119.9 9.98007 119.56 9.98007C118.46 9.98007 117.5 10.4601 116.84 11.2801V10.1001H114.36V20.0001H117.06V15.0601C117.06 13.3601 118.1 12.4801 119.72 12.4801H120.44V10.1001ZM121.358 15.0401C121.298 17.8601 123.738 20.2801 126.638 20.2201C129.538 20.2801 132.038 17.8601 131.978 15.0401C132.038 12.2201 129.558 9.84007 126.658 9.88007C123.758 9.82007 121.298 12.2201 121.358 15.0401ZM129.218 15.0601C129.218 16.6001 128.118 17.7401 126.658 17.7401C125.158 17.7401 124.098 16.6001 124.098 15.0601C124.098 13.4801 125.158 12.3401 126.658 12.3401C128.118 12.3401 129.218 13.5201 129.218 15.0601ZM140.446 17.7401C139.746 17.8001 139.326 17.8201 139.166 17.8201C137.886 17.8201 137.326 17.4001 137.326 16.2801V12.3801H140.126V10.1001H137.326V7.60007H134.626V10.1001H133.066V12.3801H134.626V16.5201C134.626 19.0001 136.086 20.2401 138.586 20.2401C139.186 20.2401 139.806 20.1601 140.446 20.0001V17.7401ZM141.651 15.0401C141.591 17.8601 144.031 20.2801 146.931 20.2201C149.831 20.2801 152.331 17.8601 152.271 15.0401C152.331 12.2201 149.851 9.84007 146.951 9.88007C144.051 9.82007 141.591 12.2201 141.651 15.0401ZM149.511 15.0601C149.511 16.6001 148.411 17.7401 146.951 17.7401C145.451 17.7401 144.391 16.6001 144.391 15.0601C144.391 13.4801 145.451 12.3401 146.951 12.3401C148.411 12.3401 149.511 13.5201 149.511 15.0601ZM153.819 15.0401C153.779 17.9001 156.219 20.3001 159.119 20.2401C161.039 20.2401 162.559 19.3001 163.419 17.7801L161.539 16.3401C160.899 17.2401 160.179 17.7601 159.159 17.7601C157.639 17.7601 156.559 16.6201 156.559 15.0401C156.559 13.5001 157.639 12.3401 159.159 12.3401C160.199 12.3401 160.919 12.8801 161.539 13.7801L163.419 12.3201C162.559 10.8001 161.059 9.88007 159.119 9.88007C156.179 9.88007 153.819 12.1401 153.819 15.0401ZM164.659 15.0401C164.599 17.8601 167.039 20.2801 169.939 20.2201C172.839 20.2801 175.339 17.8601 175.279 15.0401C175.339 12.2201 172.859 9.84007 169.959 9.88007C167.059 9.82007 164.599 12.2201 164.659 15.0401ZM172.519 15.0601C172.519 16.6001 171.419 17.7401 169.959 17.7401C168.459 17.7401 167.399 16.6001 167.399 15.0601C167.399 13.4801 168.459 12.3401 169.959 12.3401C171.419 12.3401 172.519 13.5201 172.519 15.0601ZM177.387 20.0001H180.087V5.00007H177.387V20.0001Z" fill="#333333"/>
<defs>
<linearGradient id="paint0_linear" x1="52.493" y1="37.4829" x2="2.59436" y2="38.1795" gradientUnits="userSpaceOnUse">
<stop stop-color="#40BAD5"/>
<stop offset="1" stop-color="#035AA6"/>
</linearGradient>
<linearGradient id="paint1_linear" x1="31.3078" y1="33.1528" x2="21.5722" y2="4.4047" gradientUnits="userSpaceOnUse">
<stop stop-color="#40BAD5"/>
<stop offset="1" stop-color="#035AA6"/>
</linearGradient>
<linearGradient id="paint2_linear" x1="27.7218" y1="32.0256" x2="8.28028" y2="2.97137" gradientUnits="userSpaceOnUse">
<stop stop-color="#40BAD5"/>
<stop offset="1" stop-color="#035AA6"/>
</linearGradient>
<linearGradient id="paint3_linear" x1="22.1928" y1="35.7253" x2="2.75127" y2="6.67108" gradientUnits="userSpaceOnUse">
<stop stop-color="#40BAD5"/>
<stop offset="1" stop-color="#035AA6"/>
</linearGradient>
<linearGradient id="paint4_linear" x1="24.9573" y1="33.8754" x2="5.51577" y2="4.82123" gradientUnits="userSpaceOnUse">
<stop stop-color="#40BAD5"/>
<stop offset="1" stop-color="#035AA6"/>
</linearGradient>
</defs>
</svg>
