<svg width="19" height="18" viewBox="0 0 19 18" fill="none" xmlns="http://www.w3.org/2000/svg">
<g opacity="0.5">
<path fill-rule="evenodd" clip-rule="evenodd" d="M9.07288 0C4.06273 0 0 4.13124 0 9.22778C0 13.3049 2.59966 16.7639 6.20459 17.9841C6.65803 18.0696 6.8245 17.784 6.8245 17.5402C6.8245 17.3202 6.81608 16.5933 6.81218 15.8222C4.28809 16.3804 3.75548 14.7334 3.75548 14.7334C3.34276 13.6668 2.7481 13.3832 2.7481 13.3832C1.92492 12.8104 2.81015 12.8222 2.81015 12.8222C3.72122 12.8871 4.20095 13.7731 4.20095 13.7731C5.01016 15.1839 6.32343 14.776 6.84117 14.5402C6.9226 13.944 7.15773 13.5366 7.4172 13.3063C5.40199 13.073 3.28356 12.2817 3.28356 8.74582C3.28356 7.73833 3.63799 6.91514 4.21838 6.26891C4.12418 6.03633 3.81362 5.09792 4.30627 3.82684C4.30627 3.82684 5.06815 3.57883 6.80196 4.77274C7.52568 4.56828 8.30184 4.46574 9.07288 4.46223C9.84393 4.46574 10.6207 4.56828 11.3458 4.77274C13.0775 3.57883 13.8383 3.82684 13.8383 3.82684C14.3321 5.09792 14.0214 6.03633 13.9272 6.26891C14.509 6.91514 14.861 7.73833 14.861 8.74582C14.861 12.2901 12.7385 13.0705 10.7182 13.299C11.0436 13.5853 11.3336 14.1469 11.3336 15.0078C11.3336 16.2424 11.3231 17.2361 11.3231 17.5402C11.3231 17.7858 11.4864 18.0735 11.9463 17.9829C15.5493 16.7613 18.1456 13.3035 18.1456 9.22778C18.1456 4.13124 14.0835 0 9.07288 0Z" fill="white"/>
<path fill-rule="evenodd" clip-rule="evenodd" d="M3.43636 13.2491C3.41638 13.2951 3.34546 13.3087 3.28086 13.2773C3.21505 13.2472 3.17809 13.1847 3.19943 13.1387C3.21896 13.0914 3.29002 13.0785 3.35568 13.1098C3.42164 13.14 3.4592 13.2032 3.43636 13.2491Z" fill="white"/>
<path fill-rule="evenodd" clip-rule="evenodd" d="M3.80386 13.666C3.76059 13.7068 3.676 13.6879 3.61861 13.6234C3.55926 13.559 3.54814 13.473 3.59201 13.4316C3.63664 13.3908 3.71867 13.4099 3.77816 13.4742C3.83751 13.5393 3.84908 13.6248 3.80386 13.666Z" fill="white"/>
<path fill-rule="evenodd" clip-rule="evenodd" d="M4.16159 14.1975C4.106 14.2368 4.0151 14.1999 3.95891 14.1179C3.90332 14.0358 3.90332 13.9374 3.96011 13.898C4.01645 13.8586 4.106 13.894 4.16294 13.9755C4.21838 14.0587 4.21838 14.1573 4.16159 14.1975Z" fill="white"/>
<path fill-rule="evenodd" clip-rule="evenodd" d="M4.65168 14.7109C4.60195 14.7667 4.49603 14.7517 4.4185 14.6756C4.33917 14.6012 4.31709 14.4956 4.36697 14.4398C4.4173 14.3839 4.52382 14.3997 4.60195 14.4751C4.68068 14.5494 4.70471 14.6558 4.65168 14.7109Z" fill="white"/>
<path fill-rule="evenodd" clip-rule="evenodd" d="M5.32777 15.0091C5.30584 15.0813 5.20382 15.1142 5.10106 15.0835C4.99844 15.0519 4.93128 14.9672 4.95201 14.8942C4.97335 14.8214 5.07582 14.7872 5.17933 14.82C5.2818 14.8515 5.34911 14.9356 5.32777 15.0091Z" fill="white"/>
<path fill-rule="evenodd" clip-rule="evenodd" d="M6.07027 15.0644C6.07283 15.1405 5.98569 15.2036 5.87781 15.2048C5.76934 15.2074 5.6816 15.1458 5.68039 15.071C5.68039 14.9941 5.76558 14.9316 5.87406 14.9298C5.98193 14.9276 6.07027 14.9887 6.07027 15.0644Z" fill="white"/>
<path fill-rule="evenodd" clip-rule="evenodd" d="M6.76124 14.9447C6.77416 15.019 6.69919 15.0953 6.59207 15.1154C6.48675 15.1351 6.38924 15.0893 6.37587 15.0156C6.3628 14.9395 6.43912 14.8633 6.54429 14.8436C6.65157 14.8246 6.74757 14.8692 6.76124 14.9447Z" fill="white"/>
</g>
</svg>
