<svg width="18" height="18" viewBox="0 0 18 18" fill="none" xmlns="http://www.w3.org/2000/svg">
<path opacity="0.5" fill-rule="evenodd" clip-rule="evenodd" d="M0 9C0 4.02944 4.02944 0 9 0C13.9706 0 18 4.02944 18 9C18 13.9706 13.9706 18 9 18C4.02944 18 0 13.9706 0 9ZM6.36015 7.45422H4.32056V13.5824H6.36015V7.45422ZM6.49461 5.55851C6.48137 4.95765 6.05169 4.5 5.35396 4.5C4.65623 4.5 4.20007 4.95765 4.20007 5.55851C4.20007 6.14693 4.64275 6.61776 5.32748 6.61776H5.34052C6.05169 6.61776 6.49461 6.14693 6.49461 5.55851ZM13.7158 10.0687C13.7158 8.18636 12.7096 7.3103 11.3675 7.3103C10.2846 7.3103 9.79974 7.9051 9.52904 8.32237V7.45437H7.4892C7.51608 8.0294 7.4892 13.5825 7.4892 13.5825H9.52904V10.16C9.52904 9.9769 9.54228 9.7942 9.5962 9.66307C9.74361 9.29717 10.0792 8.91835 10.6427 8.91835C11.3811 8.91835 11.6762 9.48028 11.6762 10.3038V13.5823H13.7157L13.7158 10.0687Z" fill="white"/>
</svg>
