<svg width="18" height="18" viewBox="0 0 18 18" fill="none" xmlns="http://www.w3.org/2000/svg">
<path opacity="0.5" fill-rule="evenodd" clip-rule="evenodd" d="M18 9C18 13.9706 13.9706 18 9 18C4.02944 18 0 13.9706 0 9C0 4.02944 4.02944 0 9 0C13.9706 0 18 4.02944 18 9ZM4.27171 5.71274C4.3817 5.81421 4.43788 5.96322 4.42297 6.11398V11.5421C4.45561 11.7379 4.39529 11.9379 4.2605 12.0809L3 13.6457V13.8521H6.57423V13.6457L5.31373 12.0809C5.17795 11.9382 5.1139 11.7395 5.14006 11.5421V6.84766L8.27731 13.8521H8.64146L11.3361 6.84766V12.4306C11.3361 12.5796 11.3361 12.6082 11.2409 12.7057L10.2717 13.6687V13.875H14.9776V13.6687L14.042 12.7286C13.9594 12.6642 13.9185 12.5583 13.9356 12.4535V5.54652C13.9185 5.44171 13.9594 5.33581 14.042 5.27138L15 4.33135V4.125H11.6835L9.31933 10.1607L6.63025 4.125H3.15126V4.33135L4.27171 5.71274Z" fill="white"/>
</svg>
