<svg width="18" height="18" viewBox="0 0 18 18" fill="none" xmlns="http://www.w3.org/2000/svg">
<path opacity="0.5" fill-rule="evenodd" clip-rule="evenodd" d="M0 9C0 4.02944 4.02944 0 9 0C13.9706 0 18 4.02944 18 9C18 13.9706 13.9706 18 9 18C4.02944 18 0 13.9706 0 9ZM8.73045 7.31531L8.74934 7.62673L8.43457 7.5886C7.28882 7.44242 6.28787 6.94669 5.438 6.11412L5.02251 5.70101L4.91549 6.00608C4.68886 6.68612 4.83365 7.40429 5.3058 7.88731C5.55761 8.15424 5.50096 8.19237 5.06658 8.03349C4.91549 7.98264 4.78329 7.94451 4.7707 7.96358C4.72663 8.00806 4.87772 8.58642 4.99733 8.81521C5.16101 9.13299 5.49466 9.44441 5.85979 9.62872L6.16826 9.7749L5.80313 9.78125C5.45059 9.78125 5.438 9.78761 5.47577 9.92107C5.60168 10.3342 6.09901 10.7727 6.653 10.9634L7.04331 11.0968L6.70336 11.3002C6.19973 11.5926 5.60798 11.7578 5.01622 11.7705C4.73293 11.7769 4.5 11.8023 4.5 11.8214C4.5 11.8849 5.26803 12.2408 5.715 12.3807C7.0559 12.7938 8.64861 12.6158 9.84472 11.9104C10.6946 11.4083 11.5445 10.4104 11.9411 9.44441C12.1551 8.92961 12.3691 7.989 12.3691 7.53776C12.3691 7.2454 12.388 7.20727 12.7406 6.85772C12.9483 6.65434 13.1435 6.4319 13.1812 6.36834C13.2442 6.24759 13.2379 6.24759 12.9168 6.35563C12.3817 6.5463 12.3062 6.52087 12.5706 6.23487C12.7657 6.0315 12.9987 5.66288 12.9987 5.55483C12.9987 5.53577 12.9042 5.56755 12.7972 5.62475C12.6839 5.6883 12.4321 5.78363 12.2432 5.84083L11.9033 5.94888L11.5948 5.73914C11.4248 5.62475 11.1856 5.49763 11.0597 5.4595C10.7387 5.37052 10.2476 5.38324 9.95804 5.48492C9.17112 5.77092 8.67379 6.50816 8.73045 7.31531Z" fill="white"/>
</svg>
