<svg width="208" height="166" viewBox="0 0 208 166" fill="none" xmlns="http://www.w3.org/2000/svg">
<mask id="mask0_4217_65606" style="mask-type:alpha" maskUnits="userSpaceOnUse" x="63" y="6" width="125" height="160">
<path d="M162.122 14.5871L147.582 6.20508L63.7969 108.609V150.925L78.0531 158.208C85.818 162.174 94.0874 165.629 102.803 165.375C131.756 164.532 155.405 141.077 164.508 127.792C197.192 80.0913 189.455 45.5698 178.46 28.4042C174.555 22.3062 168.396 18.2038 162.122 14.5871Z" fill="#4075DA"/>
</mask>
<g mask="url(#mask0_4217_65606)">
<rect x="235.676" y="44.3809" width="13.8716" height="98.3661" transform="rotate(124.986 235.676 44.3809)" fill="#7CB5F0"/>
<rect x="227.723" y="55.7446" width="21.501" height="98.3661" transform="rotate(124.986 227.723 55.7446)" fill="#F89D38"/>
<rect x="215.391" y="73.3594" width="26.356" height="98.3661" transform="rotate(124.986 215.391 73.3594)" fill="#F18309"/>
<rect x="200.281" y="94.9526" width="31.9046" height="98.3661" transform="rotate(124.986 200.281 94.9526)" fill="#D27107"/>
<rect x="181.984" y="121.092" width="32.5982" height="98.3661" transform="rotate(124.986 181.984 121.092)" fill="#BC6607"/>
<rect x="163.293" y="147.799" width="25.6624" height="98.3661" transform="rotate(124.986 163.293 147.799)" fill="#A05706"/>
<rect x="148.582" y="168.825" width="22.1945" height="98.3661" transform="rotate(124.986 148.582 168.825)" fill="#894B06"/>
<rect x="135.855" y="187.008" width="13.178" height="98.3661" transform="rotate(124.986 135.855 187.008)" fill="#703D04"/>
</g>
<mask id="mask1_4217_65606" style="mask-type:alpha" maskUnits="userSpaceOnUse" x="41" y="0" width="128" height="155">
<path d="M45.0128 81.5439C57.0328 30.5635 95.7846 6.95603 114.111 1.80503C123.766 -1.96729 136.459 1.09902 141.488 2.67082C190.433 21.4832 166.573 115.076 114.111 144.544C66.4612 171.309 30.5972 142.684 45.0128 81.5439Z" fill="#6CA5EA"/>
</mask>
<g mask="url(#mask1_4217_65606)">
<path d="M180.586 8.12999L165.868 -5.07861L99.9223 -0.587689L94.2617 165.312L180.586 159.236V8.12999Z" fill="url(#paint0_linear_4217_65606)"/>
<path d="M104.98 -0.587201L90.2626 -5.07812L24.3168 -0.587201L18.6562 165.313L104.98 159.237V-0.587201Z" fill="url(#paint1_linear_4217_65606)"/>
</g>
<mask id="mask2_4217_65606" style="mask-type:alpha" maskUnits="userSpaceOnUse" x="46" y="5" width="118" height="144">
<path d="M49.4095 81.245C60.5492 33.9904 96.4628 12.1083 113.447 7.33376C122.395 3.83713 134.158 6.67934 138.819 8.13627C184.179 25.5737 162.067 112.326 113.447 139.641C69.287 164.45 36.0497 137.917 49.4095 81.245Z" fill="url(#paint2_linear_4217_65606)"/>
</mask>
<g mask="url(#mask2_4217_65606)">
<path d="M157.458 2.82129L172.128 16.9265L142.868 180.497L172.128 178.29L110.957 358.887L142.868 180.497L86.0859 184.778L91.728 7.61706L157.458 2.82129Z" fill="url(#paint3_linear_4217_65606)"/>
<path d="M110.065 16.9265L95.3958 2.82129L29.6655 7.61706L24.0234 184.778L110.065 178.29V16.9265Z" fill="url(#paint4_linear_4217_65606)"/>
</g>
<mask id="mask3_4217_65606" style="mask-type:alpha" maskUnits="userSpaceOnUse" x="54" y="12" width="108" height="133">
<path d="M57.5858 78.9893C67.2902 37.9149 100.56 18.9951 115.981 14.6695C124.106 11.5017 134.6 13.3496 138.832 14.6695C180.019 30.4674 161.682 108.892 118.238 134.846C74.7941 160.799 45.4553 130.332 57.5858 78.9893Z" fill="#4075DA"/>
</mask>
<g mask="url(#mask3_4217_65606)">
<path d="M187.919 156.85V-23.4147L106.109 -39.4946L99.9023 160.517L187.919 156.85Z" fill="#D27107"/>
<path d="M110.903 156.85V-23.4147L29.093 -39.4946L22.8867 160.517L110.903 156.85Z" fill="#BC6607"/>
</g>
<g opacity="0.8" filter="url(#filter0_i_4217_65606)">
<path d="M57.5936 78.9898C67.298 37.9154 100.568 18.9956 115.989 14.67C124.114 11.5022 134.608 13.3501 138.84 14.67C180.027 30.4679 161.69 108.893 118.246 134.846C74.802 160.8 45.4631 130.333 57.5936 78.9898Z" fill="url(#paint5_linear_4217_65606)"/>
<path d="M57.5936 78.9898C67.298 37.9154 100.568 18.9956 115.989 14.67C124.114 11.5022 134.608 13.3501 138.84 14.67C180.027 30.4679 161.69 108.893 118.246 134.846C74.802 160.8 45.4631 130.333 57.5936 78.9898Z" fill="url(#paint6_linear_4217_65606)"/>
</g>
<path d="M122.895 110.888L107.088 106.625L101.85 87.0063L117.173 91.5023L122.895 110.888Z" fill="white"/>
<path d="M132.299 77.8786C130.566 83.3856 126.908 87.8133 122.414 90.5097C117.92 93.2062 112.559 94.1889 107.419 92.8058L102.037 91.3578L97.5809 75.9148L111.42 79.6384C113.156 80.1053 114.974 79.7778 116.502 78.8613C118.029 77.9449 119.266 76.4396 119.851 74.5804C121.029 70.8385 119.143 67.0637 115.672 66.1299L108.181 64.1144L103.849 49.1895L103.66 48.5772L119.916 52.9509C130.248 55.7053 135.766 66.8647 132.299 77.8786Z" fill="white"/>
<path d="M106.612 70.8915L104.424 70.3022L97.7188 47.0171L99.9216 47.6357L106.612 70.8915Z" fill="white"/>
<path d="M96.2762 67.8817L94.0659 67.2866L87.3828 44.0073L89.5857 44.626L96.2762 67.8817Z" fill="white"/>
<path d="M101.444 69.3871L99.2558 68.7978L92.5508 45.5127L94.7537 46.1313L101.444 69.3871Z" fill="white"/>
<circle cx="202" cy="55.4043" r="6" fill="#FF8906"/>
<circle cx="202" cy="55.4043" r="6" fill="url(#paint7_linear_4217_65606)"/>
<circle cx="175" cy="120.404" r="4" fill="#FF8906"/>
<circle cx="175" cy="120.404" r="4" fill="url(#paint8_linear_4217_65606)"/>
<circle cx="8" cy="91.4043" r="8" fill="#FF8906"/>
<circle cx="8" cy="91.4043" r="8" fill="url(#paint9_linear_4217_65606)"/>
<circle cx="51" cy="18.4043" r="4" fill="#FF8906"/>
<circle cx="51" cy="18.4043" r="4" fill="url(#paint10_linear_4217_65606)"/>
<defs>
<filter id="filter0_i_4217_65606" x="54.8398" y="12.9209" width="107.07" height="135.367" filterUnits="userSpaceOnUse" color-interpolation-filters="sRGB">
<feFlood flood-opacity="0" result="BackgroundImageFix"/>
<feBlend mode="normal" in="SourceGraphic" in2="BackgroundImageFix" result="shape"/>
<feColorMatrix in="SourceAlpha" type="matrix" values="0 0 0 0 0 0 0 0 0 0 0 0 0 0 0 0 0 0 127 0" result="hardAlpha"/>
<feOffset dy="4"/>
<feGaussianBlur stdDeviation="2"/>
<feComposite in2="hardAlpha" operator="arithmetic" k2="-1" k3="1"/>
<feColorMatrix type="matrix" values="0 0 0 0 1 0 0 0 0 1 0 0 0 0 1 0 0 0 0.25 0"/>
<feBlend mode="normal" in2="shape" result="effect1_innerShadow_4217_65606"/>
</filter>
<linearGradient id="paint0_linear_4217_65606" x1="117.958" y1="0.56347" x2="137.424" y2="165.312" gradientUnits="userSpaceOnUse">
<stop stop-color="#BC6607"/>
<stop offset="1" stop-color="#F18309"/>
</linearGradient>
<linearGradient id="paint1_linear_4217_65606" x1="95.9528" y1="8.18077" x2="61.8182" y2="165.313" gradientUnits="userSpaceOnUse">
<stop stop-color="#9F5706"/>
<stop offset="1" stop-color="#F18309"/>
</linearGradient>
<linearGradient id="paint2_linear_4217_65606" x1="55.8977" y1="41.1862" x2="124.731" y2="141.615" gradientUnits="userSpaceOnUse">
<stop stop-color="#2354B0"/>
<stop offset="1" stop-color="#9DC9FB"/>
</linearGradient>
<linearGradient id="paint3_linear_4217_65606" x1="125.863" y1="2.82129" x2="159.997" y2="71.9368" gradientUnits="userSpaceOnUse">
<stop stop-color="#9F5706"/>
<stop offset="1" stop-color="#F89D38"/>
</linearGradient>
<linearGradient id="paint4_linear_4217_65606" x1="97.0884" y1="9.8739" x2="46.3097" y2="143.309" gradientUnits="userSpaceOnUse">
<stop offset="0.0890452" stop-color="#894B06"/>
<stop offset="0.825901" stop-color="#F89D38"/>
</linearGradient>
<linearGradient id="paint5_linear_4217_65606" x1="115.143" y1="-12.6941" x2="95.3957" y2="115.663" gradientUnits="userSpaceOnUse">
<stop stop-color="white" stop-opacity="0.5"/>
<stop offset="1" stop-color="white" stop-opacity="0"/>
</linearGradient>
<linearGradient id="paint6_linear_4217_65606" x1="63.8" y1="34.6994" x2="95.3956" y2="115.663" gradientUnits="userSpaceOnUse">
<stop stop-color="white" stop-opacity="0.5"/>
<stop offset="1" stop-color="white" stop-opacity="0"/>
</linearGradient>
<linearGradient id="paint7_linear_4217_65606" x1="202" y1="49.4043" x2="202" y2="61.4043" gradientUnits="userSpaceOnUse">
<stop stop-color="#FF8906"/>
<stop offset="1" stop-color="#7F4402"/>
</linearGradient>
<linearGradient id="paint8_linear_4217_65606" x1="175" y1="116.404" x2="175" y2="124.404" gradientUnits="userSpaceOnUse">
<stop stop-color="#FF8906"/>
<stop offset="1" stop-color="#7F4402"/>
</linearGradient>
<linearGradient id="paint9_linear_4217_65606" x1="8" y1="83.4043" x2="8" y2="99.4043" gradientUnits="userSpaceOnUse">
<stop stop-color="#FF8906"/>
<stop offset="1" stop-color="#7F4402"/>
</linearGradient>
<linearGradient id="paint10_linear_4217_65606" x1="51" y1="14.4043" x2="51" y2="22.4043" gradientUnits="userSpaceOnUse">
<stop stop-color="#FF8906"/>
<stop offset="1" stop-color="#7F4402"/>
</linearGradient>
</defs>
</svg>
