<svg width="28" height="28" viewBox="0 0 28 28" fill="none" xmlns="http://www.w3.org/2000/svg">
<path d="M22.2018 4.15343C20.2534 2.53176 17.8384 1.4701 15.1668 1.2251V3.5701C17.1851 3.79176 19.0284 4.59676 20.5451 5.8101L22.2018 4.15343ZM12.8334 3.5701V1.2251C10.1618 1.45843 7.74676 2.53176 5.79843 4.15343L7.4551 5.8101C8.9983 4.56703 10.8641 3.78996 12.8334 3.5701ZM5.8101 7.4551L4.15343 5.79843C2.53176 7.74676 1.4701 10.1618 1.2251 12.8334H3.5701C3.79176 10.8151 4.59676 8.97177 5.8101 7.4551ZM24.4301 12.8334H26.7751C26.5301 10.1618 25.4684 7.74676 23.8468 5.79843L22.1901 7.4551C23.4332 8.9983 24.2102 10.8641 24.4301 12.8334ZM8.16676 14.0001L12.1801 15.8201L14.0001 19.8334L15.8201 15.8201L19.8334 14.0001L15.8201 12.1801L14.0001 8.16676L12.1801 12.1801L8.16676 14.0001Z" fill="#4CAFFF"/>
<path d="M14.0001 24.5004C12.2771 24.5001 10.581 24.0738 9.06259 23.2597C7.54416 22.4455 6.25051 21.2686 5.29675 19.8338H8.16675V17.5004H1.16675V24.5004H3.50008V21.3504C5.82175 24.6638 9.64841 26.8338 14.0001 26.8338C19.6817 26.8338 24.5001 23.1354 26.1801 18.0138L23.8934 17.4888C22.4584 21.5604 18.5734 24.5004 14.0001 24.5004Z" fill="#4CAFFF"/>
</svg>
