<svg width="89" height="24" viewBox="0 0 89 24" fill="none" xmlns="http://www.w3.org/2000/svg">
<path d="M24.6897 2.896H28.7589C29.7932 2.896 30.5519 3.17193 31.0347 3.65462C31.2543 3.84113 31.43 4.07386 31.5492 4.33617C31.6684 4.59848 31.7282 4.88388 31.7243 5.17197C31.7356 5.40397 31.7123 5.63636 31.6553 5.86153C31.515 6.22162 31.3039 6.54995 31.0346 6.82713C30.9137 6.94236 30.7737 7.03568 30.6208 7.10295C31.0926 7.24566 31.52 7.50683 31.8622 7.86158C32.138 8.20636 32.276 8.6202 32.276 9.24069C32.2809 9.59621 32.2103 9.94873 32.0691 10.275C31.8969 10.5749 31.6617 10.8338 31.3795 11.0336C31.0485 11.2227 30.7026 11.3841 30.3452 11.5164C29.9313 11.6544 29.4486 11.6544 28.9661 11.6544H24.7587V2.896H24.6897ZM28.4141 6.48269C28.7689 6.48067 29.1201 6.41044 29.4484 6.27582C29.5751 6.2112 29.681 6.11229 29.7542 5.99037C29.8273 5.86845 29.8647 5.72842 29.8621 5.58626C29.8632 5.45227 29.8325 5.31994 29.7725 5.20009C29.7126 5.08024 29.6252 4.97628 29.5174 4.89671C29.3804 4.79554 29.2234 4.72476 29.0569 4.68909C28.8905 4.65342 28.7183 4.65367 28.5519 4.68984H26.6208V6.55187H28.4141V6.48269ZM28.8969 9.99998C29.2517 9.99797 29.6029 9.92774 29.9312 9.79311C30.068 9.72655 30.1773 9.61436 30.2402 9.47588C30.3031 9.3374 30.3158 9.1813 30.276 9.03449C30.2771 8.90049 30.2464 8.76815 30.1864 8.64829C30.1265 8.52844 30.039 8.42448 29.9312 8.34493C29.5951 8.15494 29.2138 8.05958 28.8278 8.069H26.5518V10.0001L28.8969 9.99998Z" fill="#999999"/>
<path d="M34.6897 2.896H36.6208V11.7236H34.6897V2.896Z" fill="#999999"/>
<path d="M39.5867 2.896H41.3797L45.5177 8.34427V2.896H47.4488V11.7236H45.7936L41.4491 6.13791V11.7242H39.5867V2.896Z" fill="#999999"/>
<path d="M53.3112 2.82861H55.1044L58.8969 11.7252H56.8978L56.0702 9.72528H52.3457L51.5181 11.7252H49.5181L53.3112 2.82861ZM55.3799 8.07001L54.2074 5.17355L53.035 8.07001H55.3799Z" fill="#999999"/>
<path d="M60.9651 2.896H62.7582L66.8962 8.34427V2.896H68.8272V11.7236H67.172L62.8961 6.13735V11.7236H60.9651V2.896Z" fill="#999999"/>
<path d="M75.8629 11.8617C75.2495 11.8539 74.6424 11.7371 74.0698 11.5169C72.985 11.0526 72.1207 10.1883 71.6563 9.1035C71.4361 8.53089 71.3194 7.92374 71.3115 7.31032C71.3294 6.1044 71.7966 4.94855 72.6218 4.06896C73.0301 3.64738 73.5239 3.31816 74.0701 3.10347C74.6589 2.85643 75.294 2.73885 75.9322 2.75869C76.3014 2.74728 76.6708 2.77037 77.0356 2.82765C77.3458 2.87795 77.6475 2.9708 77.9323 3.10358C78.1928 3.22687 78.4461 3.36501 78.6909 3.51731C78.9371 3.67983 79.1679 3.86452 79.3804 4.06907L78.208 5.51736C77.88 5.24233 77.5345 4.98892 77.1736 4.75874C76.8148 4.56277 76.4097 4.46747 76.0012 4.48292C75.6463 4.48492 75.2952 4.55515 74.9668 4.68978C74.6384 4.8153 74.3517 5.03033 74.1393 5.31049C73.9157 5.58306 73.7301 5.88464 73.5875 6.20703C73.4528 6.53535 73.3826 6.88651 73.3805 7.24136C73.3823 7.61868 73.4525 7.99255 73.5875 8.34488C73.7038 8.68042 73.8921 8.98643 74.1393 9.24141C74.3726 9.50424 74.6595 9.71408 74.9807 9.85682C75.3018 9.99956 75.6498 10.0719 76.0013 10.069C76.4533 10.0773 76.9014 9.98303 77.3117 9.79317C77.6838 9.57995 78.0308 9.32547 78.346 9.03454L79.5874 10.2759C79.3806 10.4828 79.1046 10.7587 78.8979 10.9654C78.6376 11.1518 78.3606 11.3134 78.0703 11.4482C77.7646 11.6041 77.4401 11.72 77.1048 11.793C76.6933 11.8467 76.2783 11.8698 75.8634 11.8619L75.8629 11.8617Z" fill="#999999"/>
<path d="M81.7939 2.896H88.4147V4.61989H83.656V6.41295H87.8629V8.13684H83.656V9.99898H88.4836V11.7229H81.7939V2.896Z" fill="#999999"/>
<path d="M27.173 20.4146C26.6982 20.43 26.2263 20.3356 25.7939 20.1388C25.3801 20.0009 24.9663 19.725 24.5525 19.3802L25.242 18.6216C25.5179 18.8974 25.7938 19.0353 26.1386 19.2423C26.4669 19.3769 26.8181 19.4471 27.1729 19.4491C27.4612 19.4461 27.7447 19.3752 28.0005 19.2423C28.0901 19.1818 28.1626 19.0993 28.2109 19.0026C28.2592 18.906 28.2817 18.7985 28.2763 18.6905C28.2866 18.5933 28.2621 18.4956 28.2074 18.4147C28.1384 18.3456 28.0695 18.2077 28.0005 18.1388L27.5866 17.9319C27.3798 17.8629 27.104 17.794 26.8971 17.725C26.5894 17.6648 26.2889 17.5723 26.0006 17.4491C25.7729 17.3763 25.5619 17.2591 25.3798 17.1043C25.2252 16.9585 25.0865 16.7966 24.9661 16.6215C24.8596 16.3835 24.8122 16.1232 24.8281 15.8629C24.8405 15.605 24.8869 15.35 24.9661 15.1043C25.0351 14.8974 25.2419 14.6904 25.3798 14.5525C25.5872 14.3971 25.8207 14.2804 26.0694 14.2077C26.3387 14.1284 26.6166 14.0821 26.897 14.0698C27.3193 14.0712 27.7385 14.1411 28.1384 14.2767C28.497 14.4334 28.8428 14.6179 29.1727 14.8284L28.6211 15.656C28.3609 15.4697 28.0838 15.308 27.7935 15.1732C27.5176 15.0353 27.2418 15.0353 26.9658 15.0353C26.6983 15.0298 26.4349 15.1017 26.2072 15.2422C26.0495 15.3852 25.9511 15.582 25.9314 15.7939C25.9207 15.9131 25.9446 16.0328 26.0003 16.1387C26.0693 16.2077 26.1382 16.3457 26.2072 16.4146C26.3627 16.496 26.5244 16.565 26.6907 16.6212C26.9384 16.7078 27.1919 16.777 27.4493 16.828C27.7545 16.898 28.0541 16.9902 28.3458 17.104C28.5666 17.192 28.7751 17.3079 28.9665 17.4488C29.1037 17.5926 29.2198 17.7551 29.3113 17.9316C29.3969 18.1517 29.4435 18.385 29.4492 18.6211C29.4431 18.8796 29.3966 19.1356 29.3113 19.3797C29.1723 19.6028 29.0105 19.8108 28.8285 20.0005C28.6212 20.1558 28.3876 20.2726 28.139 20.3452C27.7937 20.3457 27.4488 20.4146 27.173 20.4146Z" fill="#999999"/>
<path d="M30.6204 14.1382H31.7928L33.655 17.0348L35.5861 14.1382H36.7584V20.3451H35.655V15.8623L33.7239 18.7589H33.655L31.7239 15.8623V20.3451H30.6204V14.1382Z" fill="#999999"/>
<path d="M40.4832 14.0698H41.5175L44.2073 20.2767H43.0349L42.4141 18.7595H39.5176L38.897 20.2767H37.7935L40.4832 14.0698ZM42.0694 17.8629L40.9659 15.3801L39.9315 17.8629H42.0694Z" fill="#999999"/>
<path d="M45.3105 14.1382H48.0687C48.4172 14.1502 48.7637 14.1964 49.1031 14.2761C49.393 14.3696 49.6542 14.5358 49.8617 14.7589C50.0311 14.943 50.1707 15.1524 50.2755 15.3795C50.3608 15.6236 50.4073 15.8796 50.4135 16.1381C50.4009 16.3734 50.3544 16.6057 50.2755 16.8277C50.2066 17.0347 50.0687 17.1725 49.9997 17.3794C49.8538 17.534 49.692 17.6728 49.5169 17.7933C49.3238 17.9136 49.1149 18.0064 48.8962 18.0691L50.5514 20.4139H49.2417L47.7244 18.276H46.3453V20.4139H45.2415L45.3105 14.1382ZM48.0002 17.1727C48.345 17.1727 48.6898 17.1037 48.8968 16.8967C49.1061 16.6984 49.2298 16.4262 49.2415 16.1381C49.2298 15.85 49.1061 15.5778 48.8968 15.3795C48.6134 15.1852 48.2745 15.0884 47.9313 15.1037H46.3451V17.1723L48.0002 17.1727Z" fill="#999999"/>
<path d="M53.242 15.1037H51.2419V14.1382H56.2765V15.1037H54.2764V20.3451H53.173L53.242 15.1037Z" fill="#999999"/>
<path d="M62.9665 20.4139C62.5367 20.4219 62.1112 20.3273 61.7252 20.138C60.9666 19.7933 60.3461 19.2415 60.0699 18.4829C59.932 18.069 59.7941 17.6552 59.8631 17.2415C59.8645 16.8192 59.9343 16.3999 60.0699 16C60.2189 15.618 60.4418 15.269 60.7259 14.9732C61.0099 14.6774 61.3495 14.4405 61.7252 14.2761C62.1389 14.1382 62.5528 14.0003 63.0355 14.0003C63.2904 13.9857 63.546 14.009 63.7941 14.0693L64.4148 14.2761C64.6218 14.3451 64.7596 14.483 64.9666 14.552C65.1045 14.6899 65.3113 14.8279 65.4494 14.9658L64.7598 15.7934C64.5367 15.5716 64.2809 15.3855 64.0012 15.2416C63.6991 15.1005 63.369 15.0298 63.0356 15.0348C62.7551 15.047 62.4773 15.0933 62.208 15.1727C61.9523 15.2931 61.7191 15.4564 61.5184 15.6555C61.3174 15.841 61.1739 16.0804 61.1047 16.345C61.0254 16.6143 60.979 16.8922 60.9668 17.1726C60.9791 17.453 61.0254 17.7309 61.1047 18.0002C61.1739 18.2649 61.3175 18.5042 61.5184 18.6897C61.7191 18.8888 61.9523 19.0521 62.208 19.1725C62.4579 19.3177 62.7521 19.3667 63.0356 19.3105C63.369 19.3154 63.6991 19.2447 64.0012 19.1036C64.3085 18.9423 64.5879 18.7327 64.8288 18.4829L65.5183 19.1724L65.0355 19.6551C64.8287 19.793 64.6907 19.9311 64.4838 19.9999C64.2768 20.0687 64.07 20.2068 63.7942 20.2068C63.5184 20.4136 63.2426 20.4136 62.9666 20.4136L62.9665 20.4139Z" fill="#999999"/>
<path d="M66.6211 14.1382H67.6554V16.6899H70.6216V14.1382H71.7251V20.3451H70.6216V17.7244H67.6557V20.3452H66.6213L66.6211 14.1382Z" fill="#999999"/>
<path d="M75.5182 14.0698H76.5525L79.2422 20.2767H78.07L77.4493 18.7595H74.5527L73.932 20.2767H72.8286L75.5182 14.0698ZM77.0355 17.8629L76.0011 15.3801L74.9668 17.8629H77.0355Z" fill="#999999"/>
<path d="M80.3455 14.1382H81.449V20.3451H80.3455V14.1382Z" fill="#999999"/>
<path d="M83.104 14.1382H84.0695L87.3799 18.4141V14.1382H88.4833V20.3451H87.5868L84.2074 15.931V20.3449H83.104V14.1382Z" fill="#999999"/>
<path d="M12.5518 19.9313V22.6209L10.207 24L7.93112 22.6209V19.9313L10.207 21.3104L12.5518 19.9313ZM0 10.6208L2.27587 11.9999V16.6205L6.20689 18.9653V21.6554L0 17.9996V10.6208ZM20.4139 10.6208V17.9996L14.138 21.6554V18.9657L18.069 16.6205V12.0002L20.4139 10.6208ZM14.138 6.96563L16.4828 8.34474V11.0343L12.5518 13.3793V18.0689L10.2759 19.448L8.00007 18.0689V13.3795L3.93103 11.0346V8.34496L6.27585 6.96585L10.207 9.31067L14.138 6.96563ZM3.93103 12.9657L6.20689 14.3448V17.0345L3.93103 15.6554V12.9657ZM16.4828 12.9657V15.6554L14.207 17.0345V14.345L16.4828 12.9657ZM2.27587 4.6208L4.62069 5.99991L2.27587 7.37903V10.0686L0 8.68952V6.00014L2.27587 4.6208ZM18.138 4.6208L20.4829 5.99991V8.68952L18.138 10.0686V7.37947L15.8621 6.00036L18.138 4.6208ZM10.207 4.6208L12.5518 5.99991L10.207 7.37903L7.93112 5.99991L10.207 4.6208ZM10.207 0L16.4828 3.6552L14.207 5.03432L10.2759 2.68949L6.27585 5.03432L3.99998 3.6552L10.207 0Z" fill="#999999"/>
</svg>
