<svg width="16" height="14" viewBox="0 0 16 14" fill="none" xmlns="http://www.w3.org/2000/svg">
<path d="M13.3702 13.6668C12.864 13.6668 12.4227 13.5156 12.0461 13.2131C11.6696 12.9107 11.4319 12.5434 11.3332 12.1113H7.38873C6.57391 12.1113 5.89798 11.8428 5.36095 11.3057C4.82391 10.7687 4.55539 10.0928 4.55539 9.27794C4.55539 8.46313 4.82391 7.7872 5.36095 7.25016C5.89798 6.71313 6.57391 6.44461 7.38873 6.44461H8.81465C9.32082 6.44461 9.7344 6.28411 10.0554 5.96313C10.3764 5.64214 10.5369 5.22856 10.5369 4.72238C10.5369 4.21621 10.3764 3.80263 10.0554 3.48164C9.7344 3.16066 9.32082 3.00016 8.81465 3.00016H4.81465C4.70354 3.43226 4.4628 3.79955 4.09243 4.10201C3.72206 4.40448 3.28379 4.55572 2.77761 4.55572C2.18502 4.55572 1.68502 4.35201 1.27762 3.94461C0.870208 3.5372 0.666504 3.0372 0.666504 2.44461C0.666504 1.85201 0.870208 1.35201 1.27762 0.944607C1.68502 0.5372 2.18502 0.333496 2.77761 0.333496C3.28379 0.333496 3.72206 0.484731 4.09243 0.7872C4.4628 1.08967 4.70354 1.45695 4.81465 1.88905H8.81465C9.62947 1.88905 10.3054 2.15757 10.8424 2.69461C11.3795 3.23164 11.648 3.90757 11.648 4.72238C11.648 5.5372 11.3795 6.21313 10.8424 6.75016C10.3054 7.2872 9.62947 7.55572 8.81465 7.55572H7.38873C6.88255 7.55572 6.46897 7.71621 6.14798 8.0372C5.827 8.35819 5.6665 8.77177 5.6665 9.27794C5.6665 9.78411 5.827 10.1977 6.14798 10.5187C6.46897 10.8397 6.88255 11.0002 7.38873 11.0002H11.3332C11.4443 10.5681 11.685 10.2008 12.0554 9.89831C12.4258 9.59584 12.864 9.44461 13.3702 9.44461C13.9628 9.44461 14.4628 9.64831 14.8702 10.0557C15.2776 10.4631 15.4813 10.9631 15.4813 11.5557C15.4813 12.1483 15.2776 12.6483 14.8702 13.0557C14.4628 13.4631 13.9628 13.6668 13.3702 13.6668ZM2.77761 3.44461C3.06157 3.44461 3.29922 3.34893 3.49058 3.15757C3.68194 2.96621 3.77761 2.72856 3.77761 2.44461C3.77761 2.16066 3.68194 1.923 3.49058 1.73164C3.29922 1.54029 3.06157 1.44461 2.77761 1.44461C2.49366 1.44461 2.25601 1.54029 2.06465 1.73164C1.87329 1.923 1.77761 2.16066 1.77761 2.44461C1.77761 2.72856 1.87329 2.96621 2.06465 3.15757C2.25601 3.34893 2.49366 3.44461 2.77761 3.44461Z" fill="#999999"/>
</svg>
