<svg width="108" height="22" viewBox="0 0 108 22" fill="none" xmlns="http://www.w3.org/2000/svg">
<path d="M17.6872 7.15235C17.277 6.90143 16.7439 6.90143 16.2926 7.15235L13.0934 9.07604L10.9196 10.3306L7.72041 12.2544C7.31026 12.5053 6.77707 12.5053 6.3259 12.2544L3.78294 10.7489C3.37279 10.4979 3.08568 10.0379 3.08568 9.53607V6.56688C3.08568 6.06504 3.33177 5.60502 3.78294 5.3541L6.28488 3.8904C6.69504 3.63948 7.22825 3.63948 7.67941 3.8904L10.1814 5.3541C10.5916 5.60502 10.8786 6.06504 10.8786 6.56688V8.49058L13.0525 7.19417V5.27045C13.0525 4.76861 12.8064 4.3086 12.3552 4.05768L7.72041 1.29756C7.31026 1.04665 6.77707 1.04665 6.3259 1.29756L1.60913 4.05768C1.15796 4.3086 0.911865 4.76861 0.911865 5.27045V10.8325C0.911865 11.3343 1.15796 11.7944 1.60913 12.0453L6.3259 14.8054C6.73605 15.0563 7.26925 15.0563 7.72041 14.8054L10.9196 12.9234L13.0934 11.6271L16.2926 9.74519C16.7028 9.49428 17.236 9.49428 17.6872 9.74519L20.1891 11.2089C20.5993 11.4599 20.8864 11.9198 20.8864 12.4217V15.3909C20.8864 15.8927 20.6402 16.3527 20.1891 16.6036L17.6872 18.1092C17.277 18.3601 16.7439 18.3601 16.2926 18.1092L13.7908 16.6455C13.3806 16.3946 13.0934 15.9346 13.0934 15.4326V13.509L10.9196 14.8054V16.7291C10.9196 17.2309 11.1658 17.691 11.6169 17.9418L16.3337 20.702C16.7439 20.953 17.277 20.953 17.7282 20.702L22.4449 17.9418C22.8551 17.691 23.1423 17.2309 23.1423 16.7291V11.167C23.1423 10.6653 22.8962 10.2052 22.4449 9.95431L17.6872 7.15235Z" fill="#999999"/>
<path d="M33.7216 21.0037V15.6298C34.3037 16.3636 35.36 16.7737 36.589 16.7737C39.7151 16.7737 41.8279 14.5508 41.8279 11.1624C41.8279 7.77416 39.8875 5.55127 36.8477 5.55127C35.4463 5.55127 34.3683 6.06923 33.7216 6.9109V5.72392H30.7249V21.0037H33.7216ZM36.2225 14.1838C34.6056 14.1838 33.5491 12.9753 33.5491 11.1624C33.5491 9.32803 34.6056 8.11947 36.2225 8.11947C37.7963 8.11947 38.8743 9.32803 38.8743 11.1624C38.8743 12.9753 37.7963 14.1838 36.2225 14.1838Z" fill="#999999"/>
<path d="M48.6317 16.7737C51.9735 16.7737 54.3665 14.3997 54.3665 11.1624C54.3665 7.92525 51.9735 5.55127 48.6317 5.55127C45.2901 5.55127 42.897 7.92525 42.897 11.1624C42.897 14.3997 45.2901 16.7737 48.6317 16.7737ZM48.6317 14.1838C47.0148 14.1838 45.9153 12.9537 45.9153 11.1624C45.9153 9.34962 47.0148 8.11947 48.6317 8.11947C50.2487 8.11947 51.3482 9.34962 51.3482 11.1624C51.3482 12.9537 50.2487 14.1838 48.6317 14.1838Z" fill="#999999"/>
<path d="M59.1758 16.6V0.996582H56.1792V16.6H59.1758Z" fill="#999999"/>
<path d="M68.1831 5.72363L65.9194 12.7376L63.6341 5.72363H60.5728L64.5181 16.5144L62.9227 21.0034H65.79L67.3207 16.5576L71.2657 5.72363H68.1831Z" fill="#999999"/>
<path d="M79.6833 6.80299C79.0797 6.04764 78.0017 5.55127 76.6865 5.55127C73.5174 5.55127 71.5986 7.77416 71.5986 11.1624C71.5986 14.5508 73.5174 16.7737 76.7297 16.7737C78.0017 16.7737 79.1443 16.2989 79.7049 15.5003V16.9248C79.7049 17.9391 79.0366 18.6513 78.1311 18.6513H73.1293V21.0037H78.6053C81.0631 21.0037 82.7015 19.5145 82.7015 17.2485V5.72392H79.6833V6.80299ZM77.204 14.1838C75.6086 14.1838 74.5523 12.9969 74.5523 11.1624C74.5523 9.32803 75.6086 8.11947 77.204 8.11947C78.8209 8.11947 79.8774 9.32803 79.8774 11.1624C79.8774 12.9969 78.8209 14.1838 77.204 14.1838Z" fill="#999999"/>
<path d="M90.2562 16.7737C93.5979 16.7737 95.991 14.3997 95.991 11.1624C95.991 7.92525 93.5979 5.55127 90.2562 5.55127C86.9145 5.55127 84.5215 7.92525 84.5215 11.1624C84.5215 14.3997 86.9145 16.7737 90.2562 16.7737ZM90.2562 14.1838C88.6393 14.1838 87.5397 12.9537 87.5397 11.1624C87.5397 9.34962 88.6393 8.11947 90.2562 8.11947C91.8732 8.11947 92.9726 9.34962 92.9726 11.1624C92.9726 12.9537 91.8732 14.1838 90.2562 14.1838Z" fill="#999999"/>
<path d="M100.648 16.601V10.6445C100.648 9.24171 101.575 8.22738 102.89 8.22738C104.141 8.22738 104.982 9.17696 104.982 10.4934V16.601H108V9.82442C108 7.32096 106.405 5.55127 103.947 5.55127C102.459 5.55127 101.252 6.17713 100.648 7.23463V5.72392H97.6299V16.601H100.648Z" fill="#999999"/>
</svg>
