<svg width="32" height="32" viewBox="0 0 32 32" fill="none" xmlns="http://www.w3.org/2000/svg">
<path d="M12.2266 20.7733C11.9733 20.7733 11.72 20.68 11.52 20.48C11.1333 20.0933 11.1333 19.4533 11.52 19.0666L19.0666 11.52C19.4533 11.1333 20.0933 11.1333 20.48 11.52C20.8666 11.9066 20.8666 12.5466 20.48 12.9333L12.9333 20.48C12.7466 20.68 12.48 20.7733 12.2266 20.7733Z" fill="white"/>
<path d="M19.7733 20.7733C19.52 20.7733 19.2666 20.68 19.0666 20.48L11.52 12.9333C11.1333 12.5466 11.1333 11.9066 11.52 11.52C11.9066 11.1333 12.5466 11.1333 12.9333 11.52L20.48 19.0666C20.8666 19.4533 20.8666 20.0933 20.48 20.48C20.28 20.68 20.0266 20.7733 19.7733 20.7733Z" fill="white"/>
<path d="M20.0001 30.3334H12.0001C4.76008 30.3334 1.66675 27.2401 1.66675 20.0001V12.0001C1.66675 4.76008 4.76008 1.66675 12.0001 1.66675H20.0001C27.2401 1.66675 30.3334 4.76008 30.3334 12.0001V20.0001C30.3334 27.2401 27.2401 30.3334 20.0001 30.3334ZM12.0001 3.66675C5.85341 3.66675 3.66675 5.85341 3.66675 12.0001V20.0001C3.66675 26.1467 5.85341 28.3334 12.0001 28.3334H20.0001C26.1467 28.3334 28.3334 26.1467 28.3334 20.0001V12.0001C28.3334 5.85341 26.1467 3.66675 20.0001 3.66675H12.0001Z" fill="white"/>
</svg>
