<svg width="16" height="17" viewBox="0 0 16 17" fill="none" xmlns="http://www.w3.org/2000/svg">
<path d="M4.66683 7.66683H3.3335C1.72016 7.66683 0.833496 6.78016 0.833496 5.16683V3.8335C0.833496 2.22016 1.72016 1.3335 3.3335 1.3335H4.66683C6.28016 1.3335 7.16683 2.22016 7.16683 3.8335V5.16683C7.16683 6.78016 6.28016 7.66683 4.66683 7.66683ZM3.3335 2.3335C2.28016 2.3335 1.8335 2.78016 1.8335 3.8335V5.16683C1.8335 6.22016 2.28016 6.66683 3.3335 6.66683H4.66683C5.72016 6.66683 6.16683 6.22016 6.16683 5.16683V3.8335C6.16683 2.78016 5.72016 2.3335 4.66683 2.3335H3.3335Z" fill="#999999"/>
<path d="M12.6668 7.66683H11.3335C9.72016 7.66683 8.8335 6.78016 8.8335 5.16683V3.8335C8.8335 2.22016 9.72016 1.3335 11.3335 1.3335H12.6668C14.2802 1.3335 15.1668 2.22016 15.1668 3.8335V5.16683C15.1668 6.78016 14.2802 7.66683 12.6668 7.66683ZM11.3335 2.3335C10.2802 2.3335 9.8335 2.78016 9.8335 3.8335V5.16683C9.8335 6.22016 10.2802 6.66683 11.3335 6.66683H12.6668C13.7202 6.66683 14.1668 6.22016 14.1668 5.16683V3.8335C14.1668 2.78016 13.7202 2.3335 12.6668 2.3335H11.3335Z" fill="#999999"/>
<path d="M12.6668 15.6668H11.3335C9.72016 15.6668 8.8335 14.7802 8.8335 13.1668V11.8335C8.8335 10.2202 9.72016 9.3335 11.3335 9.3335H12.6668C14.2802 9.3335 15.1668 10.2202 15.1668 11.8335V13.1668C15.1668 14.7802 14.2802 15.6668 12.6668 15.6668ZM11.3335 10.3335C10.2802 10.3335 9.8335 10.7802 9.8335 11.8335V13.1668C9.8335 14.2202 10.2802 14.6668 11.3335 14.6668H12.6668C13.7202 14.6668 14.1668 14.2202 14.1668 13.1668V11.8335C14.1668 10.7802 13.7202 10.3335 12.6668 10.3335H11.3335Z" fill="#999999"/>
<path d="M4.66683 15.6668H3.3335C1.72016 15.6668 0.833496 14.7802 0.833496 13.1668V11.8335C0.833496 10.2202 1.72016 9.3335 3.3335 9.3335H4.66683C6.28016 9.3335 7.16683 10.2202 7.16683 11.8335V13.1668C7.16683 14.7802 6.28016 15.6668 4.66683 15.6668ZM3.3335 10.3335C2.28016 10.3335 1.8335 10.7802 1.8335 11.8335V13.1668C1.8335 14.2202 2.28016 14.6668 3.3335 14.6668H4.66683C5.72016 14.6668 6.16683 14.2202 6.16683 13.1668V11.8335C6.16683 10.7802 5.72016 10.3335 4.66683 10.3335H3.3335Z" fill="#999999"/>
</svg>
