<svg width="24" height="24" viewBox="0 0 24 24" fill="none" xmlns="http://www.w3.org/2000/svg">
<path d="M9.00994 21.2502C8.81994 21.2502 8.62994 21.1802 8.47994 21.0302L3.46994 16.0202C3.17994 15.7302 3.17994 15.2502 3.46994 14.9602C3.75994 14.6702 4.23994 14.6702 4.52994 14.9602L9.53994 19.9702C9.82994 20.2602 9.82994 20.7402 9.53994 21.0302C9.38994 21.1702 9.19994 21.2502 9.00994 21.2502Z" fill="#F1F5F8"/>
<path d="M9.01001 21.25C8.60001 21.25 8.26001 20.91 8.26001 20.5V3.5C8.26001 3.09 8.60001 2.75 9.01001 2.75C9.42001 2.75 9.76001 3.09 9.76001 3.5V20.5C9.76001 20.91 9.42001 21.25 9.01001 21.25Z" fill="#F1F5F8"/>
<path d="M20.0099 9.25994C19.8199 9.25994 19.6299 9.18994 19.4799 9.03994L14.4699 4.02994C14.1799 3.73994 14.1799 3.25994 14.4699 2.96994C14.7599 2.67994 15.2399 2.67994 15.5299 2.96994L20.5399 7.97994C20.8299 8.26994 20.8299 8.74994 20.5399 9.03994C20.3899 9.18994 20.1999 9.25994 20.0099 9.25994Z" fill="#F1F5F8"/>
<path d="M14.99 21.25C14.58 21.25 14.24 20.91 14.24 20.5V3.5C14.24 3.09 14.58 2.75 14.99 2.75C15.4 2.75 15.74 3.09 15.74 3.5V20.5C15.74 20.91 15.41 21.25 14.99 21.25Z" fill="#F1F5F8"/>
</svg>
