<svg width="16" height="16" viewBox="0 0 16 16" fill="none" xmlns="http://www.w3.org/2000/svg">
<path d="M8.66667 7.83341C8.54 7.83341 8.41333 7.78674 8.31333 7.68674C8.12 7.49341 8.12 7.17341 8.31333 6.98008L13.78 1.51341C13.9733 1.32007 14.2933 1.32007 14.4867 1.51341C14.68 1.70674 14.68 2.02674 14.4867 2.22007L9.02 7.68674C8.92 7.78674 8.79333 7.83341 8.66667 7.83341Z" fill="white"/>
<path d="M14.6667 5.03325C14.3933 5.03325 14.1667 4.80659 14.1667 4.53325V1.83325H11.4667C11.1933 1.83325 10.9667 1.60659 10.9667 1.33325C10.9667 1.05992 11.1933 0.833252 11.4667 0.833252H14.6667C14.94 0.833252 15.1667 1.05992 15.1667 1.33325V4.53325C15.1667 4.80659 14.94 5.03325 14.6667 5.03325Z" fill="white"/>
<path d="M10 15.1666H6C2.38 15.1666 0.833328 13.6199 0.833328 9.99992V5.99992C0.833328 2.37992 2.38 0.833252 6 0.833252H7.33333C7.60666 0.833252 7.83333 1.05992 7.83333 1.33325C7.83333 1.60659 7.60666 1.83325 7.33333 1.83325H6C2.92666 1.83325 1.83333 2.92659 1.83333 5.99992V9.99992C1.83333 13.0733 2.92666 14.1666 6 14.1666H10C13.0733 14.1666 14.1667 13.0733 14.1667 9.99992V8.66659C14.1667 8.39325 14.3933 8.16659 14.6667 8.16659C14.94 8.16659 15.1667 8.39325 15.1667 8.66659V9.99992C15.1667 13.6199 13.62 15.1666 10 15.1666Z" fill="white"/>
</svg>
