<svg width="16" height="14" viewBox="0 0 16 14" fill="none" xmlns="http://www.w3.org/2000/svg">
<path d="M12.3625 10.5152L13.5158 11.2837C13.6276 11.3582 13.7637 11.3872 13.8962 11.3645C14.0287 11.3418 14.1474 11.2692 14.228 11.1617L15.805 9.05914L14.9639 8.42837L13.6851 10.1335L12.5223 9.3577C12.4088 9.28186 12.2702 9.25317 12.1359 9.2777C12.0016 9.30223 11.8821 9.37804 11.8027 9.48911L10.128 11.834V7.69247H9.07676V12.9489C9.07704 13.2276 9.18789 13.4948 9.38498 13.6919C9.58207 13.889 9.84931 13.9999 10.128 14.0002H15.3845V12.9489H10.6237L12.3625 10.5152ZM0.666504 10.3207H8.02548V11.372H0.666504V10.3207ZM0.666504 12.9489H8.02548V14.0002H0.666504V12.9489ZM5.39727 7.69247V5.06427H5.92291C6.48034 5.06357 7.01473 4.84183 7.40888 4.44767C7.80304 4.05351 8.02478 3.51912 8.02548 2.9617V1.38478H6.44855C5.91029 1.38566 5.3931 1.59408 5.00462 1.96666C4.73242 1.47244 4.33269 1.06024 3.84705 0.773C3.36142 0.48576 2.80765 0.33399 2.24343 0.333496H0.666504V1.91042C0.667478 2.74657 1.00007 3.5482 1.59132 4.13945C2.18257 4.7307 2.9842 5.06329 3.82035 5.06427H4.34599V7.69247H0.666504V8.74375H8.02548V7.69247H5.39727ZM6.44855 2.43606H6.9742V2.9617C6.97392 3.24043 6.86307 3.50767 6.66598 3.70476C6.46888 3.90186 6.20165 4.0127 5.92291 4.01298H5.39727V3.48734C5.39755 3.20861 5.5084 2.94137 5.70549 2.74428C5.90259 2.54719 6.16982 2.43634 6.44855 2.43606ZM3.82035 4.01298C3.26293 4.01229 2.72854 3.79054 2.33438 3.39639C1.94022 3.00223 1.71848 2.46784 1.71779 1.91042V1.38478H2.24343C2.80085 1.38547 3.33524 1.60722 3.7294 2.00137C4.12355 2.39553 4.3453 2.92992 4.34599 3.48734V4.01298H3.82035Z" fill="#999999"/>
</svg>
