<svg width="28" height="28" viewBox="0 0 28 28" fill="none" xmlns="http://www.w3.org/2000/svg">
<path d="M2.92501 20.5729V23.685H24.7417V20.5729H2.92501ZM2.92501 25.61C2.39028 25.61 1.93577 25.4228 1.56146 25.0485C1.18715 24.6742 1 24.2197 1 23.685V8.28492C1 7.75019 1.18715 7.29568 1.56146 6.92137C1.93577 6.54706 2.39028 6.35991 2.92501 6.35991H6.93544C6.82849 6.16741 6.74293 5.92678 6.67877 5.63803C6.6146 5.34928 6.58252 5.08727 6.58252 4.85199C6.58252 3.84671 6.93544 2.99115 7.64127 2.28532C8.34711 1.57948 9.19197 1.22656 10.1759 1.22656C10.8389 1.22656 11.4485 1.39233 12.0046 1.72386C12.5607 2.05538 12.9992 2.47782 13.32 2.99115L13.8655 3.82532L14.3788 2.99115C14.721 2.45643 15.1595 2.02865 15.6942 1.70781C16.2289 1.38698 16.8064 1.22656 17.4267 1.22656C18.4534 1.22656 19.3196 1.57413 20.0255 2.26927C20.7313 2.96442 21.0842 3.82532 21.0842 4.85199C21.0842 5.08727 21.0575 5.32255 21.004 5.55783C20.9505 5.7931 20.8703 6.06047 20.7634 6.35991H24.7417C25.2765 6.35991 25.731 6.54706 26.1053 6.92137C26.4796 7.29568 26.6667 7.75019 26.6667 8.28492V23.685C26.6667 24.2197 26.4796 24.6742 26.1053 25.0485C25.731 25.4228 25.2765 25.61 24.7417 25.61H2.92501ZM2.92501 17.1399H24.7417V8.28492H16.753L19.4159 11.9745C19.5656 12.1884 19.6137 12.4183 19.5603 12.6643C19.5068 12.9103 19.3838 13.1295 19.1913 13.322C18.9774 13.4931 18.7368 13.5626 18.4694 13.5306C18.2021 13.4985 17.9935 13.3648 17.8438 13.1295L13.8334 7.547L9.79086 13.1295C9.61975 13.3648 9.40051 13.4985 9.13315 13.5306C8.86579 13.5626 8.64655 13.4931 8.47544 13.322C8.26155 13.1509 8.13856 12.9424 8.10648 12.6964C8.0744 12.4504 8.13322 12.2098 8.28294 11.9745L10.9138 8.28492H2.92501V17.1399ZM10.2079 6.55241C10.6785 6.55241 11.0795 6.38665 11.4111 6.05512C11.7426 5.72359 11.9084 5.32255 11.9084 4.85199C11.9084 4.38143 11.7426 3.98039 11.4111 3.64886C11.0795 3.31733 10.6785 3.15157 10.2079 3.15157C9.73739 3.15157 9.33635 3.31733 9.00482 3.64886C8.67329 3.98039 8.50752 4.38143 8.50752 4.85199C8.50752 5.32255 8.67329 5.72359 9.00482 6.05512C9.33635 6.38665 9.73739 6.55241 10.2079 6.55241ZM17.4267 6.55241C17.9187 6.55241 18.3304 6.38665 18.6619 6.05512C18.9935 5.72359 19.1592 5.32255 19.1592 4.85199C19.1592 4.38143 18.9935 3.98039 18.6619 3.64886C18.3304 3.31733 17.9187 3.15157 17.4267 3.15157C16.9776 3.15157 16.5872 3.31733 16.2557 3.64886C15.9241 3.98039 15.7584 4.38143 15.7584 4.85199C15.7584 5.32255 15.9241 5.72359 16.2557 6.05512C16.5872 6.38665 16.9776 6.55241 17.4267 6.55241Z" fill="#4CAFFF"/>
</svg>
