<svg width="80" height="80" viewBox="0 0 80 80" fill="none" xmlns="http://www.w3.org/2000/svg">
<path d="M68.2844 11.7156C60.7292 4.16078 50.6844 0 40 0C32.832 0 25.7998 1.91859 19.6637 5.54828C19.1067 5.87781 18.9222 6.59641 19.2517 7.15344C19.5811 7.71047 20.2998 7.89516 20.8569 7.56547C26.632 4.14937 33.2516 2.34375 40 2.34375C50.0584 2.34375 59.5147 6.26062 66.627 13.373C73.7394 20.4853 77.6562 29.9416 77.6562 40C77.6562 50.0584 73.7394 59.5147 66.627 66.627C59.5147 73.7394 50.0584 77.6562 40 77.6562C29.9416 77.6562 20.4853 73.7394 13.373 66.627C6.26062 59.5147 2.34375 50.0584 2.34375 40C2.34375 28.4545 7.5325 17.7063 16.5795 10.5111C17.0861 10.1081 17.1702 9.37094 16.7673 8.86438C16.3644 8.35781 15.6273 8.27391 15.1206 8.67656C5.51125 16.3192 0 27.7361 0 40C0 50.6844 4.16078 60.7292 11.7156 68.2844C19.2708 75.8392 29.3156 80 40 80C50.6844 80 60.7292 75.8392 68.2844 68.2844C75.8392 60.7292 80 50.6844 80 40C80 29.3156 75.8392 19.2708 68.2844 11.7156Z" fill="#9BD0FD"/>
<path d="M24.91 71.5687C29.64 73.8337 34.717 74.982 40 74.982C49.3441 74.982 58.1287 71.3433 64.7361 64.7361C71.3433 58.1287 74.982 49.344 74.982 40C74.982 30.6559 71.3433 21.8712 64.7361 15.2639C58.1287 8.6567 49.3441 5.01794 40 5.01794C30.6559 5.01794 21.8712 8.6567 15.2639 15.2639C8.65672 21.8712 5.01797 30.6559 5.01797 40C5.01797 51.544 10.7102 62.3379 20.2445 68.8736C20.7784 69.2397 21.5078 69.1033 21.8736 68.5695C22.2395 68.0356 22.1034 67.3064 21.5697 66.9404C12.6731 60.842 7.36172 50.7709 7.36172 40C7.36172 22.0033 22.0033 7.36169 40 7.36169C57.9967 7.36169 72.6383 22.0033 72.6383 40C72.6383 57.9967 57.9967 72.6383 40 72.6383C35.0702 72.6383 30.3337 71.5672 25.9222 69.4547C25.3383 69.1751 24.6386 69.4219 24.3591 70.0054C24.0795 70.589 24.3262 71.289 24.91 71.5687Z" fill="#9BD0FD"/>
<path d="M30.6832 36.169L40.0057 26.8503L49.332 36.1766L54.7533 30.7514L40.0057 16L25.258 30.7477L30.6832 36.169Z" fill="#9BD0FD"/>
<path d="M16 40.0019L21.4214 34.5767L26.8465 40.0019L21.4214 45.4233L16 40.0019Z" fill="#9BD0FD"/>
<path d="M30.6832 43.831L40.0057 53.1535L49.332 43.8272L54.7571 49.2448L40.0095 63.9962L25.258 49.2562L30.6832 43.831Z" fill="#9BD0FD"/>
<path d="M53.1535 40.0019L58.5748 34.5767L64 39.9981L58.5748 45.427L53.1535 40.0019Z" fill="#9BD0FD"/>
<path d="M45.5067 39.9981L40.0057 34.4933L35.9378 38.5613L35.4677 39.0276L34.5047 39.9905L40.0057 45.4877L45.5067 40.0019V39.9981Z" fill="#9BD0FD"/>
</svg>
