<svg width="80" height="80" viewBox="0 0 80 80" fill="none" xmlns="http://www.w3.org/2000/svg">
<path d="M68.2844 11.7156C60.7294 4.16078 50.6844 0 40 0C31.9889 0 24.2588 2.36 17.6453 6.82516C11.1925 11.1816 6.18156 17.2612 3.15391 24.4066C2.90141 25.0023 3.17969 25.6902 3.77562 25.9428C4.37141 26.1953 5.05922 25.9169 5.31172 25.3211C11.2261 11.3628 24.842 2.34375 40 2.34375C50.0584 2.34375 59.5147 6.26062 66.627 13.373C73.7394 20.4853 77.6562 29.9416 77.6562 40C77.6562 50.0584 73.7394 59.5147 66.627 66.627C59.5147 73.7394 50.0584 77.6562 40 77.6562C29.9416 77.6562 20.4853 73.7394 13.373 66.627C6.26062 59.5147 2.34375 50.0584 2.34375 40C2.34375 36.5494 2.81 33.1311 3.73 29.8403C3.90406 29.217 3.54 28.5705 2.91672 28.3962C2.29312 28.2217 1.64688 28.5861 1.47266 29.2094C0.495469 32.7056 0 36.3361 0 40C0 50.6844 4.16078 60.7292 11.7156 68.2844C19.2706 75.8392 29.3156 80 40 80C50.6844 80 60.7294 75.8392 68.2844 68.2844C75.8392 60.7292 80 50.6844 80 40C80 29.3156 75.8392 19.2708 68.2844 11.7156Z" fill="url(#paint0_linear_2959_10570)"/>
<path d="M63.5491 64.2885C64.0154 64.7374 64.7573 64.7231 65.206 64.2569C71.5102 57.7075 74.9819 49.093 74.9819 40C74.9819 30.656 71.3432 21.8713 64.736 15.2639C58.1288 8.65676 49.3441 5.01801 40.0001 5.01801C30.656 5.01801 21.8713 8.65676 15.264 15.2639C8.65679 21.8713 5.01804 30.656 5.01804 40C5.01804 49.3441 8.65679 58.1288 15.264 64.7361C21.8712 71.3433 30.656 74.9821 40.0001 74.9821C47.828 74.9821 55.2291 72.4544 61.4032 67.6724C61.9148 67.276 62.0083 66.5399 61.6121 66.0283C61.2155 65.5166 60.4793 65.4231 59.968 65.8194C54.2085 70.2803 47.3037 72.6383 40.0001 72.6383C22.0032 72.6383 7.36179 57.9967 7.36179 40C7.36179 22.0033 22.0032 7.36175 40.0001 7.36175C57.9969 7.36175 72.6384 22.0033 72.6384 40C72.6384 48.4838 69.3993 56.5211 63.5176 62.6316C63.0687 63.0978 63.0827 63.8397 63.5491 64.2885Z" fill="url(#paint1_linear_2959_10570)"/>
<path d="M39.7769 34.5819V18L26 40.8368L39.7769 34.5819Z" fill="#8A92B2"/>
<path d="M39.7769 48.9734V34.5819L26 40.8367L39.7769 48.9734ZM39.7769 34.5819L53.5564 40.8367L39.7769 18V34.5819Z" fill="#62688F"/>
<path d="M39.7769 34.5818V48.9734L53.5564 40.8367L39.7769 34.5818Z" fill="#454A75"/>
<path d="M39.7769 51.5794L26 43.4478L39.7769 62.8423V51.5794Z" fill="#8A92B2"/>
<path d="M53.5641 43.4478L39.7769 51.5794V62.8423L53.5641 43.4478Z" fill="#62688F"/>
<defs>
<linearGradient id="paint0_linear_2959_10570" x1="0" y1="40" x2="80" y2="40" gradientUnits="userSpaceOnUse">
<stop stop-color="#AAD9EE"/>
<stop offset="0.427083" stop-color="#9BD0FD"/>
<stop offset="0.604167" stop-color="#9CD0FC"/>
<stop offset="1" stop-color="#A9D8EF"/>
</linearGradient>
<linearGradient id="paint1_linear_2959_10570" x1="5.01804" y1="40" x2="74.9819" y2="40" gradientUnits="userSpaceOnUse">
<stop stop-color="#AAD9EE"/>
<stop offset="0.427083" stop-color="#9BD0FD"/>
<stop offset="0.604167" stop-color="#9CD0FC"/>
<stop offset="1" stop-color="#A9D8EF"/>
</linearGradient>
</defs>
</svg>
