<svg width="28" height="28" viewBox="0 0 28 28" fill="none" xmlns="http://www.w3.org/2000/svg">
<path d="M7.93924 13.1657C8.32298 12.3982 8.73337 11.6414 9.1704 10.8953C9.60743 10.1491 10.0711 9.43493 10.5614 8.75273L8.03518 8.24108L4.54957 11.7267L7.93924 13.1657ZM24.408 3.18855C22.2334 3.29514 20.2721 3.75882 18.524 4.57959C16.7759 5.40036 15.0704 6.64218 13.4075 8.30504C12.7466 8.96592 12.0644 9.82933 11.3609 10.8953C10.6574 11.9612 10.0285 13.1018 9.47419 14.3169L13.7273 18.57C14.9424 18.0157 16.083 17.3868 17.1489 16.6833C18.2149 15.9798 19.0783 15.2976 19.7392 14.6367C21.402 12.9738 22.6438 11.2737 23.4646 9.5362C24.2854 7.79872 24.7491 5.84273 24.8556 3.66822C24.8556 3.60426 24.845 3.54031 24.8237 3.47635C24.8024 3.41239 24.7704 3.3591 24.7277 3.31646C24.6851 3.27382 24.6371 3.24184 24.5838 3.22052C24.5305 3.19921 24.4719 3.18855 24.408 3.18855ZM16.8291 11.247C16.4028 10.8207 16.1896 10.293 16.1896 9.66411C16.1896 9.03521 16.4028 8.50757 16.8291 8.08119C17.2555 7.65482 17.7832 7.44163 18.4121 7.44163C19.041 7.44163 19.5686 7.65482 19.995 8.08119C20.4214 8.50757 20.6345 9.03521 20.6345 9.66411C20.6345 10.293 20.4214 10.8207 19.995 11.247C19.5686 11.6734 19.041 11.8866 18.4121 11.8866C17.7832 11.8866 17.2555 11.6734 16.8291 11.247ZM14.8785 20.1369L16.3175 23.4946L19.8031 20.009L19.3234 17.4828C18.6412 17.9731 17.9217 18.4421 17.1649 18.8898C16.4081 19.3375 15.646 19.7532 14.8785 20.1369ZM26.8063 2.26118C26.8703 4.92602 26.4386 7.383 25.5112 9.63213C24.5838 11.8813 23.1182 14.0078 21.1142 16.0118C21.0929 16.0331 21.0716 16.0491 21.0503 16.0597C21.0289 16.0704 21.0076 16.0864 20.9863 16.1077L21.6898 19.6253C21.7538 19.9451 21.7431 20.2542 21.6578 20.5526C21.5726 20.8511 21.4127 21.1176 21.1782 21.3521L16.6693 25.861C16.4348 26.0955 16.1523 26.1808 15.8218 26.1168C15.4914 26.0529 15.2622 25.861 15.1343 25.5412L12.9598 20.5207L7.55551 15.0844L2.50297 12.9419C2.18319 12.814 1.99665 12.5794 1.94335 12.2383C1.89006 11.8972 1.98066 11.6094 2.21517 11.3749L6.6921 6.898C6.9266 6.6635 7.19309 6.49828 7.49155 6.40234C7.79001 6.30641 8.09913 6.29042 8.41891 6.35438L11.9365 7.05789C11.9578 7.03658 11.9791 7.02059 12.0005 7.00993C12.0218 6.99927 12.0431 6.98328 12.0644 6.96196C14.0684 4.958 16.1896 3.49234 18.4281 2.56497C20.6665 1.63761 23.1182 1.20591 25.783 1.26986C25.9109 1.26986 26.0335 1.29651 26.1508 1.34981C26.268 1.4031 26.3799 1.48305 26.4865 1.58964C26.5931 1.69624 26.6731 1.80283 26.7264 1.90942C26.7797 2.01602 26.8063 2.13327 26.8063 2.26118ZM3.36638 18.9537C4.11253 18.2076 5.02391 17.8292 6.1005 17.8185C7.1771 17.8079 8.08847 18.1756 8.83463 18.9218C9.58078 19.6679 9.94853 20.5793 9.93787 21.6559C9.92721 22.7325 9.54881 23.6439 8.80265 24.39C8.24836 24.9443 7.39029 25.4027 6.22842 25.7651C5.06655 26.1275 3.32374 26.4686 1 26.7884C1.31978 24.4646 1.65555 22.7165 2.00731 21.544C2.35907 20.3714 2.81209 19.508 3.36638 18.9537ZM4.70946 20.3288C4.411 20.6486 4.14451 21.1496 3.91001 21.8318C3.6755 22.514 3.47297 23.388 3.30242 24.454C4.36836 24.2834 5.24242 24.0809 5.92462 23.8464C6.60682 23.6119 7.10781 23.3454 7.42759 23.0469C7.83265 22.6845 8.04051 22.2315 8.05117 21.6879C8.06183 21.1442 7.87529 20.6699 7.49155 20.2648C7.08649 19.8811 6.61215 19.6946 6.06853 19.7052C5.5249 19.7159 5.07188 19.9237 4.70946 20.3288Z" fill="#4CAFFF"/>
</svg>
