<svg width="64" height="64" viewBox="0 0 64 64" fill="none" xmlns="http://www.w3.org/2000/svg">
<path d="M32 36.6667C30.9067 36.6667 30 35.76 30 34.6667V20.6667C30 19.5733 30.9067 18.6667 32 18.6667C33.0933 18.6667 34 19.5733 34 20.6667V34.6667C34 35.76 33.0933 36.6667 32 36.6667Z" fill="#666666"/>
<path d="M32 45.9999C31.28 45.9999 30.6133 45.7333 30.1066 45.2266C29.8666 44.96 29.68 44.6666 29.52 44.3466C29.3867 44.0266 29.3333 43.6799 29.3333 43.3333C29.3333 42.6399 29.6266 41.9465 30.1066 41.4399C31.0933 40.4532 32.9067 40.4532 33.8934 41.4399C34.3734 41.9465 34.6667 42.6399 34.6667 43.3333C34.6667 43.6799 34.5866 44.0266 34.4533 44.3466C34.32 44.6666 34.1334 44.96 33.8934 45.2266C33.3867 45.7333 32.72 45.9999 32 45.9999Z" fill="#666666"/>
<path d="M32.0005 60.6666C30.2138 60.6666 28.4005 60.2132 26.8005 59.2799L10.9604 50.1333C7.76045 48.2666 5.76042 44.8266 5.76042 41.1199V22.88C5.76042 19.1733 7.76045 15.7333 10.9604 13.8667L26.8005 4.72001C30.0005 2.85334 33.9739 2.85334 37.2005 4.72001L53.0405 13.8667C56.2405 15.7333 58.2406 19.1733 58.2406 22.88V41.1199C58.2406 44.8266 56.2405 48.2666 53.0405 50.1333L37.2005 59.2799C35.6005 60.2132 33.7872 60.6666 32.0005 60.6666ZM32.0005 7.33329C30.9072 7.33329 29.7871 7.62664 28.8005 8.18664L12.9604 17.3333C10.9871 18.48 9.76042 20.5867 9.76042 22.88V41.1199C9.76042 43.3866 10.9871 45.52 12.9604 46.6666L28.8005 55.8133C30.7738 56.9599 33.2272 56.9599 35.1738 55.8133L51.0138 46.6666C52.9872 45.52 54.2139 43.4132 54.2139 41.1199V22.88C54.2139 20.6133 52.9872 18.48 51.0138 17.3333L35.1738 8.18664C34.2138 7.62664 33.0938 7.33329 32.0005 7.33329Z" fill="#666666"/>
</svg>
