<svg width="387" height="56" viewBox="0 0 387 56" fill="none" xmlns="http://www.w3.org/2000/svg">
<g clip-path="url(#clip0_14925_36156)">
<g clip-path="url(#clip1_14925_36156)">
<path d="M52.757 52.8879H36.2928L25.3477 36.502L41.4176 36.8287L52.757 52.8879Z" fill="url(#paint0_linear_14925_36156)"/>
<path d="M52.7525 19.7667C52.7525 25.2286 50.5496 30.1771 47.0017 33.7484C43.4537 37.3197 38.5377 39.5371 33.1115 39.5371H27.4302L18.3633 26.5124H32.9723C34.8043 26.5124 36.4739 25.7655 37.6797 24.5517C38.8855 23.338 39.6276 21.6573 39.6276 19.8133C39.6276 16.102 36.6362 13.1143 32.9723 13.1143H25.0649L16.2763 0.533084L15.9053 0.0195773H33.0651C43.9639 -0.00376439 52.7525 8.84274 52.7525 19.7667Z" fill="url(#paint1_linear_14925_36156)"/>
<path d="M26.5499 19.7004H24.231L10.5264 0L12.8685 0.0233645L26.5499 19.7004Z" fill="url(#paint2_linear_14925_36156)"/>
<path d="M16.0236 19.7004H13.6815L0 0L2.34209 0.0233645L16.0236 19.7004Z" fill="url(#paint3_linear_14925_36156)"/>
<path d="M21.2863 19.7004H18.9674L5.2627 0L7.60477 0.0233645L21.2863 19.7004Z" fill="url(#paint4_linear_14925_36156)"/>
</g>
<path d="M89.158 32.3886H83.3132V45.5092H75.9766V9.66756H89.2069C93.4132 9.66756 96.6576 10.6112 98.9401 12.4985C101.223 14.3857 102.364 17.0525 102.364 20.4988C102.364 22.944 101.834 24.9872 100.774 26.6283C99.7309 28.253 98.1413 29.5495 96.0055 30.5177L103.709 45.1645V45.5092H95.8343L89.158 32.3886ZM83.3132 26.4068H89.2314C91.0737 26.4068 92.5002 25.9391 93.5111 25.0036C94.5219 24.0518 95.0273 22.7471 95.0273 21.0896C95.0273 19.3993 94.5463 18.07 93.5844 17.1017C92.6388 16.1335 91.1796 15.6494 89.2069 15.6494H83.3132V26.4068Z" fill="#F3F4F7"/>
<path d="M114.958 45.5092H107.866V18.8741H114.958V45.5092ZM107.451 11.9815C107.451 10.9148 107.801 10.0368 108.502 9.34755C109.22 8.65828 110.19 8.31365 111.412 8.31365C112.619 8.31365 113.581 8.65828 114.298 9.34755C115.015 10.0368 115.374 10.9148 115.374 11.9815C115.374 13.0646 115.007 13.9508 114.274 14.6401C113.556 15.3294 112.603 15.674 111.412 15.674C110.222 15.674 109.26 15.3294 108.527 14.6401C107.809 13.9508 107.451 13.0646 107.451 11.9815Z" fill="#F3F4F7"/>
<path d="M119.776 31.9947C119.776 27.9084 120.738 24.618 122.662 22.1235C124.602 19.629 127.211 18.3818 130.488 18.3818C133.39 18.3818 135.648 19.3829 137.262 21.385L137.555 18.8741H143.962V44.623C143.962 46.9533 143.433 48.9801 142.373 50.7032C141.329 52.4264 139.854 53.7393 137.946 54.6419C136.039 55.5445 133.805 55.9958 131.246 55.9958C129.306 55.9958 127.414 55.6019 125.572 54.8142C123.73 54.0429 122.336 53.0418 121.39 51.811L124.52 47.4785C126.281 49.4642 128.417 50.4571 130.928 50.4571C132.803 50.4571 134.262 49.9483 135.305 48.9308C136.349 47.9298 136.87 46.502 136.87 44.6476V43.2198C135.24 45.0743 133.096 46.0015 130.439 46.0015C127.259 46.0015 124.683 44.7542 122.711 42.2598C120.754 39.7489 119.776 36.4257 119.776 32.2901V31.9947ZM126.844 32.5117C126.844 34.9241 127.325 36.8195 128.287 38.1981C129.248 39.5602 130.569 40.2412 132.248 40.2412C134.4 40.2412 135.941 39.4289 136.87 37.8042V26.6037C135.925 24.979 134.4 24.1667 132.297 24.1667C130.602 24.1667 129.265 24.8641 128.287 26.2591C127.325 27.654 126.844 29.7382 126.844 32.5117Z" fill="#F3F4F7"/>
<path d="M161.595 46.0015C157.715 46.0015 154.552 44.8035 152.106 42.4075C149.677 40.0115 148.462 36.8195 148.462 32.8317V32.1424C148.462 29.4674 148.976 27.0796 150.003 24.979C151.03 22.862 152.481 21.2373 154.356 20.1049C156.247 18.9562 158.399 18.3818 160.812 18.3818C164.432 18.3818 167.277 19.5306 169.347 21.8281C171.434 24.1256 172.477 27.3832 172.477 31.6008V34.5056H155.628C155.856 36.2452 156.541 37.6401 157.682 38.6904C158.839 39.7407 160.299 40.2658 162.059 40.2658C164.782 40.2658 166.91 39.273 168.442 37.2873L171.915 41.2013C170.855 42.7111 169.42 43.8927 167.611 44.746C165.801 45.583 163.796 46.0015 161.595 46.0015ZM160.788 24.1421C159.386 24.1421 158.244 24.618 157.364 25.5698C156.5 26.5216 155.946 27.8838 155.701 29.6561H165.532V29.09C165.499 27.5145 165.076 26.3001 164.26 25.4467C163.445 24.5769 162.288 24.1421 160.788 24.1421Z" fill="#F3F4F7"/>
<path d="M183.971 45.5092H176.879V7.69824H183.971V45.5092Z" fill="#F3F4F7"/>
<path d="M210.09 32.8809V45.5092H202.753V9.66756H216.644C219.318 9.66756 221.665 10.1599 223.687 11.1445C225.725 12.1292 227.29 13.5323 228.382 15.354C229.475 17.1592 230.021 19.2188 230.021 21.5327C230.021 25.0447 228.823 27.8181 226.426 29.8531C224.046 31.8716 220.744 32.8809 216.522 32.8809H210.09ZM210.09 26.8991H216.644C218.584 26.8991 220.059 26.4396 221.07 25.5206C222.097 24.6016 222.611 23.2887 222.611 21.5819C222.611 19.826 222.097 18.4064 221.07 17.3233C220.043 16.2402 218.625 15.6822 216.815 15.6494H210.09V26.8991Z" fill="#F3F4F7"/>
<path d="M249.487 25.5452C248.525 25.4139 247.678 25.3483 246.944 25.3483C244.27 25.3483 242.518 26.2591 241.686 28.0807V45.5092H234.618V18.8741H241.295L241.49 22.0496C242.909 19.6044 244.873 18.3818 247.384 18.3818C248.167 18.3818 248.9 18.4885 249.585 18.7018L249.487 25.5452Z" fill="#F3F4F7"/>
<path d="M250.93 31.9455C250.93 29.3033 251.436 26.9483 252.446 24.8805C253.457 22.8128 254.908 21.2127 256.799 20.0803C258.707 18.948 260.916 18.3818 263.427 18.3818C266.997 18.3818 269.908 19.4813 272.157 21.6804C274.424 23.8795 275.687 26.8663 275.948 30.6408L275.997 32.4624C275.997 36.5488 274.864 39.831 272.598 42.309C270.331 44.7707 267.291 46.0015 263.476 46.0015C259.661 46.0015 256.612 44.7707 254.33 42.309C252.063 39.8474 250.93 36.4995 250.93 32.2655V31.9455ZM257.998 32.4624C257.998 34.9897 258.471 36.9262 259.416 38.2719C260.362 39.6012 261.715 40.2658 263.476 40.2658C265.188 40.2658 266.525 39.6094 267.486 38.2965C268.448 36.9672 268.929 34.8502 268.929 31.9455C268.929 29.4674 268.448 27.5473 267.486 26.1852C266.525 24.8231 265.171 24.1421 263.427 24.1421C261.699 24.1421 260.362 24.8231 259.416 26.1852C258.471 27.5309 257.998 29.6233 257.998 32.4624Z" fill="#F3F4F7"/>
<path d="M288.812 12.3261V18.8741H293.336V24.0928H288.812V37.3857C288.812 38.3704 288.999 39.076 289.374 39.5027C289.749 39.9294 290.466 40.1428 291.526 40.1428C292.309 40.1428 293.002 40.0853 293.605 39.9704V45.3615C292.219 45.7881 290.792 46.0015 289.325 46.0015C284.369 46.0015 281.842 43.4824 281.744 38.4442V24.0928H277.88V18.8741H281.744V12.3261H288.812Z" fill="#F3F4F7"/>
<path d="M295.439 31.9455C295.439 29.3033 295.944 26.9483 296.955 24.8805C297.966 22.8128 299.417 21.2127 301.308 20.0803C303.216 18.948 305.425 18.3818 307.936 18.3818C311.506 18.3818 314.416 19.4813 316.666 21.6804C318.932 23.8795 320.196 26.8663 320.457 30.6408L320.506 32.4624C320.506 36.5488 319.373 39.831 317.106 42.309C314.84 44.7707 311.8 46.0015 307.985 46.0015C304.17 46.0015 301.121 44.7707 298.838 42.309C296.572 39.8474 295.439 36.4995 295.439 32.2655V31.9455ZM302.507 32.4624C302.507 34.9897 302.979 36.9262 303.925 38.2719C304.871 39.6012 306.224 40.2658 307.985 40.2658C309.696 40.2658 311.033 39.6094 311.995 38.2965C312.957 36.9672 313.438 34.8502 313.438 31.9455C313.438 29.4674 312.957 27.5473 311.995 26.1852C311.033 24.8231 309.68 24.1421 307.936 24.1421C306.207 24.1421 304.871 24.8231 303.925 26.1852C302.979 27.5309 302.507 29.6233 302.507 32.4624Z" fill="#F3F4F7"/>
<path d="M335.864 40.2658C337.168 40.2658 338.228 39.9048 339.043 39.1827C339.858 38.4606 340.282 37.5006 340.315 36.3026H346.942C346.926 38.1078 346.437 39.7653 345.475 41.2751C344.513 42.7685 343.192 43.9337 341.513 44.7707C339.85 45.5912 338.008 46.0015 335.986 46.0015C332.204 46.0015 329.22 44.7953 327.035 42.3829C324.851 39.954 323.758 36.6062 323.758 32.3393V31.8716C323.758 27.7689 324.842 24.4949 327.011 22.0496C329.179 19.6044 332.155 18.3818 335.937 18.3818C339.247 18.3818 341.896 19.3336 343.885 21.2373C345.89 23.1246 346.909 25.6437 346.942 28.7946H340.315C340.282 27.416 339.858 26.3001 339.043 25.4467C338.228 24.5769 337.152 24.1421 335.815 24.1421C334.168 24.1421 332.921 24.7493 332.073 25.9637C331.242 27.1617 330.826 29.1146 330.826 31.8224V32.5609C330.826 35.3015 331.242 37.2708 332.073 38.4688C332.905 39.6668 334.168 40.2658 335.864 40.2658Z" fill="#F3F4F7"/>
<path d="M349.877 31.9455C349.877 29.3033 350.382 26.9483 351.393 24.8805C352.404 22.8128 353.855 21.2127 355.746 20.0803C357.653 18.948 359.863 18.3818 362.373 18.3818C365.944 18.3818 368.854 19.4813 371.104 21.6804C373.37 23.8795 374.634 26.8663 374.894 30.6408L374.943 32.4624C374.943 36.5488 373.81 39.831 371.544 42.309C369.278 44.7707 366.237 46.0015 362.422 46.0015C358.607 46.0015 355.558 44.7707 353.276 42.309C351.01 39.8474 349.877 36.4995 349.877 32.2655V31.9455ZM356.944 32.4624C356.944 34.9897 357.417 36.9262 358.363 38.2719C359.308 39.6012 360.661 40.2658 362.422 40.2658C364.134 40.2658 365.471 39.6094 366.433 38.2965C367.395 36.9672 367.876 34.8502 367.876 31.9455C367.876 29.4674 367.395 27.5473 366.433 26.1852C365.471 24.8231 364.118 24.1421 362.373 24.1421C360.645 24.1421 359.308 24.8231 358.363 26.1852C357.417 27.5309 356.944 29.6233 356.944 32.4624Z" fill="#F3F4F7"/>
<path d="M386.755 45.5092H379.663V7.69824H386.755V45.5092Z" fill="#F3F4F7"/>
</g>
<defs>
<linearGradient id="paint0_linear_14925_36156" x1="69.2312" y1="44.2685" x2="3.41099" y2="45.1847" gradientUnits="userSpaceOnUse">
<stop stop-color="#40BAD5"/>
<stop offset="1" stop-color="#035AA6"/>
</linearGradient>
<linearGradient id="paint1_linear_14925_36156" x1="41.282" y1="38.5413" x2="28.3741" y2="0.534517" gradientUnits="userSpaceOnUse">
<stop stop-color="#40BAD5"/>
<stop offset="1" stop-color="#035AA6"/>
</linearGradient>
<linearGradient id="paint2_linear_14925_36156" x1="36.5526" y1="37.0539" x2="10.8066" y2="-1.31234" gradientUnits="userSpaceOnUse">
<stop stop-color="#40BAD5"/>
<stop offset="1" stop-color="#035AA6"/>
</linearGradient>
<linearGradient id="paint3_linear_14925_36156" x1="29.2609" y1="41.948" x2="3.51493" y2="3.58177" gradientUnits="userSpaceOnUse">
<stop stop-color="#40BAD5"/>
<stop offset="1" stop-color="#035AA6"/>
</linearGradient>
<linearGradient id="paint4_linear_14925_36156" x1="32.9063" y1="39.5009" x2="7.16027" y2="1.13472" gradientUnits="userSpaceOnUse">
<stop stop-color="#40BAD5"/>
<stop offset="1" stop-color="#035AA6"/>
</linearGradient>
<clipPath id="clip0_14925_36156">
<rect width="386.752" height="56.0002" fill="white"/>
</clipPath>
<clipPath id="clip1_14925_36156">
<rect width="52.7549" height="52.8924" fill="white"/>
</clipPath>
</defs>
</svg>
