<svg width="15" height="15" viewBox="0 0 15 15" fill="none" xmlns="http://www.w3.org/2000/svg">
<path d="M1.83317 14.6665C1.52206 14.6665 1.24984 14.5498 1.0165 14.3165C0.783171 14.0832 0.666504 13.8109 0.666504 13.4998V1.83317C0.666504 1.52206 0.783171 1.24984 1.0165 1.0165C1.24984 0.783171 1.52206 0.666504 1.83317 0.666504H13.4998C13.8109 0.666504 14.0832 0.783171 14.3165 1.0165C14.5498 1.24984 14.6665 1.52206 14.6665 1.83317V13.4998C14.6665 13.8109 14.5498 14.0832 14.3165 14.3165C14.0832 14.5498 13.8109 14.6665 13.4998 14.6665H1.83317ZM1.83317 13.4998H13.4998V1.83317H1.83317V13.4998ZM2.92206 11.6137H12.4304L9.57206 7.80262L7.00539 11.1276L5.19706 8.65817L2.92206 11.6137ZM1.83317 13.4998V1.83317V13.4998Z" fill="#999999"/>
</svg>
