<svg width="24" height="24" viewBox="0 0 24 24" fill="none" xmlns="http://www.w3.org/2000/svg">
<rect width="24" height="24" rx="12" fill="white"/>
<path d="M12 2C6.486 2 2 6.486 2 12C2 17.514 6.486 22 12 22C17.514 22 22 17.514 22 12C22 6.486 17.514 2 12 2ZM4 12C4 10.154 4.634 8.458 5.688 7.103L16.897 18.312C15.499 19.4058 13.7751 20.0001 12 20C7.589 20 4 16.411 4 12ZM18.312 16.897L7.103 5.688C8.50105 4.5943 10.225 4.00006 12 4C16.411 4 20 7.589 20 12C19.9995 13.775 19.4053 15.4987 18.312 16.897Z" fill="#808080"/>
</svg>
