<svg width="80" height="80" viewBox="0 0 80 80" fill="none" xmlns="http://www.w3.org/2000/svg">
<g clip-path="url(#clip0_12620_31831)">
<rect width="80" height="80" fill="#000C15"/>
<path d="M68.2844 11.7156C60.7294 4.16078 50.6844 0 40 0C31.9889 0 24.2588 2.36 17.6453 6.82516C11.1925 11.1816 6.18156 17.2612 3.15391 24.4066C2.90141 25.0023 3.17969 25.6902 3.77562 25.9428C4.37141 26.1953 5.05922 25.9169 5.31172 25.3211C11.2261 11.3628 24.842 2.34375 40 2.34375C50.0584 2.34375 59.5147 6.26062 66.627 13.373C73.7394 20.4853 77.6562 29.9416 77.6562 40C77.6562 50.0584 73.7394 59.5147 66.627 66.627C59.5147 73.7394 50.0584 77.6562 40 77.6562C29.9416 77.6562 20.4853 73.7394 13.373 66.627C6.26062 59.5147 2.34375 50.0584 2.34375 40C2.34375 36.5494 2.81 33.1311 3.73 29.8403C3.90406 29.217 3.54 28.5705 2.91672 28.3962C2.29312 28.2217 1.64688 28.5861 1.47266 29.2094C0.495469 32.7056 0 36.3361 0 40C0 50.6844 4.16078 60.7292 11.7156 68.2844C19.2706 75.8392 29.3156 80 40 80C50.6844 80 60.7294 75.8392 68.2844 68.2844C75.8392 60.7292 80 50.6844 80 40C80 29.3156 75.8392 19.2708 68.2844 11.7156Z" fill="#0089DB"/>
<path d="M63.5487 64.2884C64.0149 64.7373 64.7568 64.7231 65.2055 64.2569C71.5098 57.7075 74.9815 49.093 74.9815 40C74.9815 30.6559 71.3427 21.8713 64.7355 15.2639C58.1284 8.65673 49.3437 5.01797 39.9996 5.01797C30.6555 5.01797 21.8709 8.65673 15.2635 15.2639C8.65633 21.8713 5.01758 30.6559 5.01758 40C5.01758 49.3441 8.65633 58.1287 15.2635 64.7361C21.8707 71.3433 30.6555 74.982 39.9996 74.982C47.8276 74.982 55.2287 72.4544 61.4027 67.6723C61.9143 67.2759 62.0079 66.5398 61.6116 66.0283C61.2151 65.5166 60.4788 65.4231 59.9676 65.8194C54.208 70.2803 47.3032 72.6383 39.9996 72.6383C22.0027 72.6383 7.36133 57.9967 7.36133 40C7.36133 22.0033 22.0027 7.36172 39.9996 7.36172C57.9965 7.36172 72.6379 22.0033 72.6379 40C72.6379 48.4837 69.3988 56.5211 63.5171 62.6316C63.0682 63.0978 63.0823 63.8397 63.5487 64.2884Z" fill="#0089DB"/>
<path fill-rule="evenodd" clip-rule="evenodd" d="M55.9375 27.9375C52.9062 24.0625 48.4688 21.5938 43.5625 21.5938C34.0625 21.5938 27.0938 30.4375 27.0938 40C27.0938 46.6562 31.5312 51.6562 36.4375 51.6562C36.9062 51.6562 37.3438 51.625 37.8125 51.5312C34.5 49.125 32.4062 44.75 32.4062 40C32.4062 32.4375 37.5312 26.5312 43.5625 26.5312C50.1562 26.5312 54.7188 33.0625 54.7188 40C54.6875 45.125 52.875 50.2188 49.6562 53.9688C46.8438 57.25 43.2188 59.3125 39.2188 59.9688C39.2188 59.9688 39.5625 60 40 60C51.0312 60 60 51.0312 60 40C60 35.4688 58.5 31.2812 55.9375 27.9375ZM52.9062 40C52.9062 33.3438 48.4688 28.3438 43.5625 28.3438C43.0938 28.3438 42.6562 28.375 42.1875 28.4688C45.5 30.875 47.5938 35.25 47.5938 40C47.5938 47.5625 42.4688 53.4688 36.4375 53.4688C29.8437 53.4688 25.2812 46.9375 25.2812 40C25.3125 34.875 27.125 29.7812 30.3438 26.0312C33.1562 22.75 36.7812 20.6875 40.7812 20.0312C40.7812 20.0312 40.4375 20 40 20C28.9688 20 20 28.9688 20 40C20 44.5312 21.5 48.7188 24.0625 52.0625C27.0938 55.9375 31.5312 58.375 36.4375 58.375C45.9375 58.4062 52.9062 49.5625 52.9062 40Z" fill="#0089DB"/>
</g>
<defs>
<clipPath id="clip0_12620_31831">
<rect width="80" height="80" fill="white"/>
</clipPath>
</defs>
</svg>
