
<svg width="32" height="32" viewBox="0 0 32 32" fill="none" xmlns="http://www.w3.org/2000/svg">
<g clip-path="url(#clip0_3401_42090)">
<path d="M27.3137 4.68625C24.2917 1.66431 20.2738 0 16 0C12.7956 0 9.7035 0.944 7.05813 2.73006C4.477 4.47262 2.47263 6.9045 1.26156 9.76262C1.16056 10.0009 1.27188 10.2761 1.51025 10.3771C1.74856 10.4781 2.02369 10.3667 2.12469 10.1284C4.49044 4.54512 9.93681 0.9375 16 0.9375C20.0234 0.9375 23.8059 2.50425 26.6508 5.34919C29.4958 8.19413 31.0625 11.9766 31.0625 16C31.0625 20.0234 29.4958 23.8059 26.6508 26.6508C23.8059 29.4958 20.0234 31.0625 16 31.0625C11.9766 31.0625 8.19413 29.4958 5.34919 26.6508C2.50425 23.8059 0.9375 20.0234 0.9375 16C0.9375 14.6198 1.124 13.2524 1.492 11.9361C1.56163 11.6868 1.416 11.4282 1.16669 11.3585C0.91725 11.2887 0.65875 11.4344 0.589063 11.6838C0.198188 13.0823 0 14.5344 0 16C0 20.2738 1.66431 24.2917 4.68625 27.3137C7.70825 30.3357 11.7262 32 16 32C20.2738 32 24.2917 30.3357 27.3137 27.3137C30.3357 24.2917 32 20.2738 32 16C32 11.7262 30.3357 7.70831 27.3137 4.68625Z" fill="#0089DB"/>
<path d="M25.4198 25.7154C25.6063 25.8949 25.903 25.8893 26.0825 25.7028C28.6042 23.083 29.9929 19.6372 29.9929 16C29.9929 12.2624 28.5374 8.74851 25.8945 6.10558C23.2516 3.4627 19.7378 2.0072 16.0001 2.0072C12.2625 2.0072 8.74864 3.4627 6.1057 6.10558C3.46282 8.74851 2.00732 12.2624 2.00732 16C2.00732 19.7376 3.46282 23.2515 6.1057 25.8944C8.74858 28.5373 12.2625 29.9928 16.0001 29.9928C19.1313 29.9928 22.0918 28.9818 24.5614 27.0689C24.766 26.9104 24.8035 26.6159 24.645 26.4113C24.4863 26.2066 24.1918 26.1693 23.9873 26.3278C21.6835 28.1121 18.9216 29.0553 16.0001 29.0553C8.80139 29.0553 2.94482 23.1987 2.94482 16C2.94482 8.80132 8.80139 2.9447 16.0001 2.9447C23.1989 2.9447 29.0555 8.80132 29.0555 16C29.0555 19.3935 27.7598 22.6084 25.4071 25.0526C25.2276 25.2391 25.2332 25.5359 25.4198 25.7154Z" fill="#0089DB"/>
<path fill-rule="evenodd" clip-rule="evenodd" d="M22.375 11.175C21.1625 9.625 19.3875 8.6375 17.425 8.6375C13.625 8.6375 10.8375 12.175 10.8375 16C10.8375 18.6625 12.6125 20.6625 14.575 20.6625C14.7625 20.6625 14.9375 20.65 15.125 20.6125C13.8 19.65 12.9625 17.9 12.9625 16C12.9625 12.975 15.0125 10.6125 17.425 10.6125C20.0625 10.6125 21.8875 13.225 21.8875 16C21.875 18.05 21.15 20.0875 19.8625 21.5875C18.7375 22.9 17.2875 23.725 15.6875 23.9875C15.6875 23.9875 15.825 24 16 24C20.4125 24 24 20.4125 24 16C24 14.1875 23.4 12.5125 22.375 11.175ZM21.1625 16C21.1625 13.3375 19.3875 11.3375 17.425 11.3375C17.2375 11.3375 17.0625 11.35 16.875 11.3875C18.2 12.35 19.0375 14.1 19.0375 16C19.0375 19.025 16.9875 21.3875 14.575 21.3875C11.9375 21.3875 10.1125 18.775 10.1125 16C10.125 13.95 10.85 11.9125 12.1375 10.4125C13.2625 9.1 14.7125 8.275 16.3125 8.0125C16.3125 8.0125 16.175 8 16 8C11.5875 8 8 11.5875 8 16C8 17.8125 8.6 19.4875 9.625 20.825C10.8375 22.375 12.6125 23.35 14.575 23.35C18.375 23.3625 21.1625 19.825 21.1625 16Z" fill="#0089DB"/>
</g>
<defs>
<clipPath id="clip0_3401_42090">
<rect width="32" height="32" fill="white"/>
</clipPath>
</defs>
</svg>
