<svg width="16" height="16" viewBox="0 0 16 16" fill="none" xmlns="http://www.w3.org/2000/svg">
<path fill-rule="evenodd" clip-rule="evenodd" d="M14.375 3.175C13.1625 1.625 11.3875 0.6375 9.425 0.6375C5.625 0.6375 2.8375 4.175 2.8375 8C2.8375 10.6625 4.6125 12.6625 6.575 12.6625C6.7625 12.6625 6.9375 12.65 7.125 12.6125C5.8 11.65 4.9625 9.9 4.9625 8C4.9625 4.975 7.0125 2.6125 9.425 2.6125C12.0625 2.6125 13.8875 5.225 13.8875 8C13.875 10.05 13.15 12.0875 11.8625 13.5875C10.7375 14.9 9.2875 15.725 7.6875 15.9875C7.6875 15.9875 7.825 16 8 16C12.4125 16 16 12.4125 16 8C16 6.1875 15.4 4.5125 14.375 3.175ZM13.1625 8C13.1625 5.3375 11.3875 3.3375 9.425 3.3375C9.2375 3.3375 9.0625 3.35 8.875 3.3875C10.2 4.35 11.0375 6.1 11.0375 8C11.0375 11.025 8.9875 13.3875 6.575 13.3875C3.9375 13.3875 2.1125 10.775 2.1125 8C2.125 5.95 2.85 3.9125 4.1375 2.4125C5.2625 1.1 6.7125 0.275 8.3125 0.0125C8.3125 0.0125 8.175 0 8 0C3.5875 0 0 3.5875 0 8C0 9.8125 0.6 11.4875 1.625 12.825C2.8375 14.375 4.6125 15.35 6.575 15.35C10.375 15.3625 13.1625 11.825 13.1625 8Z" fill="#66C6FF"/>
</svg>
