<svg width="80" height="80" viewBox="0 0 80 80" fill="none" xmlns="http://www.w3.org/2000/svg">
<g clip-path="url(#clip0_2904_33569)">
<rect width="80" height="80" fill="#000C15"/>
<path d="M68.2844 11.7156C60.7294 4.16078 50.6844 0 40 0C31.9889 0 24.2588 2.36 17.6453 6.82516C11.1925 11.1816 6.18156 17.2612 3.15391 24.4066C2.90141 25.0023 3.17969 25.6902 3.77562 25.9428C4.37141 26.1953 5.05922 25.9169 5.31172 25.3211C11.2261 11.3628 24.842 2.34375 40 2.34375C50.0584 2.34375 59.5147 6.26062 66.627 13.373C73.7394 20.4853 77.6562 29.9416 77.6562 40C77.6562 50.0584 73.7394 59.5147 66.627 66.627C59.5147 73.7394 50.0584 77.6562 40 77.6562C29.9416 77.6562 20.4853 73.7394 13.373 66.627C6.26062 59.5147 2.34375 50.0584 2.34375 40C2.34375 36.5494 2.81 33.1311 3.73 29.8403C3.90406 29.217 3.54 28.5705 2.91672 28.3962C2.29312 28.2217 1.64688 28.5861 1.47266 29.2094C0.495469 32.7056 0 36.3361 0 40C0 50.6844 4.16078 60.7292 11.7156 68.2844C19.2706 75.8392 29.3156 80 40 80C50.6844 80 60.7294 75.8392 68.2844 68.2844C75.8392 60.7292 80 50.6844 80 40C80 29.3156 75.8392 19.2708 68.2844 11.7156Z" fill="#2691C1"/>
<path d="M63.5491 64.2885C64.0154 64.7374 64.7573 64.7231 65.206 64.2569C71.5102 57.7075 74.982 49.093 74.982 40C74.982 30.656 71.3432 21.8713 64.736 15.2639C58.1288 8.65676 49.3441 5.01801 40.0001 5.01801C30.656 5.01801 21.8713 8.65676 15.264 15.2639C8.6568 21.8713 5.01805 30.656 5.01805 40C5.01805 49.3441 8.6568 58.1288 15.264 64.7361C21.8712 71.3433 30.656 74.9821 40.0001 74.9821C47.828 74.9821 55.2291 72.4544 61.4032 67.6724C61.9148 67.276 62.0084 66.5399 61.6121 66.0283C61.2155 65.5166 60.4793 65.4231 59.9681 65.8194C54.2085 70.2803 47.3037 72.6383 40.0001 72.6383C22.0032 72.6383 7.3618 57.9967 7.3618 40C7.3618 22.0033 22.0032 7.36175 40.0001 7.36175C57.997 7.36175 72.6384 22.0033 72.6384 40C72.6384 48.4838 69.3993 56.5211 63.5176 62.6316C63.0687 63.0978 63.0827 63.8397 63.5491 64.2885Z" fill="#2691C1"/>
<g clip-path="url(#clip1_2904_33569)">
<path d="M50 33.2C49.3 32.8 48.4 32.8 47.6 33.2L42 36.5L38.2 38.6L32.7 41.9C32 42.3 31.1 42.3 30.3 41.9L26 39.3C25.3 38.9 24.8 38.1 24.8 37.2V32.2C24.8 31.4 25.2 30.6 26 30.1L30.3 27.6C31 27.2 31.9 27.2 32.7 27.6L37 30.2C37.7 30.6 38.2 31.4 38.2 32.3V35.6L42 33.4V30C42 29.2 41.6 28.4 40.8 27.9L32.8 23.2C32.1 22.8 31.2 22.8 30.4 23.2L22.2 28C21.4 28.4 21 29.2 21 30V39.4C21 40.2 21.4 41 22.2 41.5L30.3 46.2C31 46.6 31.9 46.6 32.7 46.2L38.2 43L42 40.8L47.5 37.6C48.2 37.2 49.1 37.2 49.9 37.6L54.2 40.1C54.9 40.5 55.4 41.3 55.4 42.2V47.2C55.4 48 55 48.8 54.2 49.3L50 51.8C49.3 52.2 48.4 52.2 47.6 51.8L43.3 49.3C42.6 48.9 42.1 48.1 42.1 47.2V44L38.3 46.2V49.5C38.3 50.3 38.7 51.1 39.5 51.6L47.6 56.3C48.3 56.7 49.2 56.7 50 56.3L58.1 51.6C58.8 51.2 59.3 50.4 59.3 49.5V40C59.3 39.2 58.9 38.4 58.1 37.9L50 33.2Z" fill="#2691C1"/>
</g>
</g>
<defs>
<clipPath id="clip0_2904_33569">
<rect width="80" height="80" fill="white"/>
</clipPath>
<clipPath id="clip1_2904_33569">
<rect width="38.4" height="33.5" fill="white" transform="translate(21 23)"/>
</clipPath>
</defs>
</svg>
