<svg width="24" height="24" viewBox="0 0 24 24" fill="none" xmlns="http://www.w3.org/2000/svg">
<circle cx="12" cy="12" r="12" fill="#40BAD5"/>
<path d="M17.7476 17.7032H14.2516L11.9275 14.2466L15.3398 14.3155L17.7476 17.7032Z" fill="white"/>
<path d="M17.7478 10.7161C17.7478 11.8683 17.28 12.9122 16.5267 13.6656C15.7733 14.419 14.7294 14.8867 13.5772 14.8867H12.3708L10.4456 12.1392H13.5477C13.9367 12.1392 14.2912 11.9816 14.5472 11.7255C14.8033 11.4695 14.9608 11.115 14.9608 10.726C14.9608 9.94307 14.3257 9.31281 13.5477 9.31281H11.8686L10.0024 6.6588L9.92365 6.55047H13.5674C15.8816 6.54555 17.7478 8.41173 17.7478 10.7161Z" fill="white"/>
<path d="M12.1835 10.7013H11.6911L8.78107 6.54548L9.27839 6.55041L12.1835 10.7013Z" fill="white"/>
<path d="M9.94792 10.7013H9.4506L6.54547 6.54551L7.04279 6.55044L9.94792 10.7013Z" fill="white"/>
<path d="M11.0654 10.7013H10.573L7.66296 6.54548L8.16028 6.55041L11.0654 10.7013Z" fill="white"/>
</svg>
