<svg width="25" height="25" viewBox="0 0 25 25" fill="none" xmlns="http://www.w3.org/2000/svg">
<g clip-path="url(#clip0_2765_33590)">
<circle cx="12.25" cy="12.5" r="12" fill="#120136"/>
<path d="M18.0715 18.2777H14.4601L12.0547 14.7026L15.5835 14.772L18.0715 18.2777Z" fill="url(#paint0_linear_2765_33590)"/>
<path d="M18.0702 11.0515C18.0702 12.241 17.5878 13.3214 16.808 14.1012C16.0282 14.881 14.9511 15.3634 13.7583 15.3634H12.5126L10.5235 12.5218H13.7318C14.135 12.5218 14.5017 12.3566 14.766 12.0923C15.0304 11.828 15.1956 11.4612 15.1956 11.0581C15.1956 10.2519 14.5414 9.59439 13.7318 9.59439H11.9972L10.0676 6.84867L9.98828 6.73633H13.7583C16.1406 6.73963 18.0702 8.66924 18.0702 11.0515Z" fill="url(#paint1_linear_2765_33590)"/>
<path d="M12.3177 11.0385H11.8089L8.79883 6.74316L9.31427 6.74647L12.3177 11.0385Z" fill="url(#paint2_linear_2765_33590)"/>
<path d="M10.0052 11.0385H9.49638L6.48633 6.74316L7.00177 6.74647L10.0052 11.0385Z" fill="url(#paint3_linear_2765_33590)"/>
<path d="M11.1615 11.0385H10.6526L7.64258 6.74316L8.15802 6.74647L11.1615 11.0385Z" fill="url(#paint4_linear_2765_33590)"/>
</g>
<defs>
<linearGradient id="paint0_linear_2765_33590" x1="21.6895" y1="16.3973" x2="7.23858" y2="16.5997" gradientUnits="userSpaceOnUse">
<stop stop-color="#40BAD5"/>
<stop offset="1" stop-color="#035AA6"/>
</linearGradient>
<linearGradient id="paint1_linear_2765_33590" x1="15.5529" y1="15.1479" x2="12.7521" y2="6.84678" gradientUnits="userSpaceOnUse">
<stop stop-color="#40BAD5"/>
<stop offset="1" stop-color="#035AA6"/>
</linearGradient>
<linearGradient id="paint2_linear_2765_33590" x1="14.5144" y1="14.8228" x2="8.91282" y2="6.42051" gradientUnits="userSpaceOnUse">
<stop stop-color="#40BAD5"/>
<stop offset="1" stop-color="#035AA6"/>
</linearGradient>
<linearGradient id="paint3_linear_2765_33590" x1="12.9135" y1="15.8903" x2="7.31197" y2="7.488" gradientUnits="userSpaceOnUse">
<stop stop-color="#40BAD5"/>
<stop offset="1" stop-color="#035AA6"/>
</linearGradient>
<linearGradient id="paint4_linear_2765_33590" x1="13.7139" y1="15.3566" x2="8.11239" y2="6.95425" gradientUnits="userSpaceOnUse">
<stop stop-color="#40BAD5"/>
<stop offset="1" stop-color="#035AA6"/>
</linearGradient>
<clipPath id="clip0_2765_33590">
<rect width="24" height="24" fill="white" transform="translate(0.25 0.5)"/>
</clipPath>
</defs>
</svg>
