<svg width="24" height="24" viewBox="0 0 24 24" fill="none" xmlns="http://www.w3.org/2000/svg">
<path d="M12 0C18.6271 0 24 5.37288 24 12C24 18.6271 18.6269 24 12 24C5.37312 24 0 18.6286 0 12C0 5.37144 5.37216 0 12 0Z" fill="#53AE94"/>
<path d="M13.4811 10.401V8.61592H17.5633V5.896H6.44745V8.61592H10.5301V10.3996C7.21209 10.552 4.71729 11.2091 4.71729 11.9963C4.71729 12.7835 7.21329 13.4406 10.5301 13.594V19.312H13.4821V13.5935C16.7941 13.4406 19.2838 12.784 19.2838 11.9975C19.2838 11.211 16.7941 10.5544 13.4821 10.4015L13.4811 10.401ZM13.4821 13.1092V13.1078C13.3988 13.113 12.9709 13.1387 12.0181 13.1387C11.2563 13.1387 10.7204 13.1171 10.5315 13.1073V13.1097C7.60017 12.9798 5.41209 12.4694 5.41209 11.8586C5.41209 11.2478 7.60041 10.738 10.5315 10.6079V12.6011C10.7235 12.6143 11.2726 12.6467 12.0306 12.6467C12.9409 12.6467 13.3986 12.6088 13.4826 12.6011V10.6079C16.4082 10.7382 18.5912 11.2492 18.5912 11.8578C18.5912 12.4665 16.4072 12.9777 13.4826 13.108" fill="white"/>
</svg>
