<svg width="16" height="16" viewBox="0 0 16 16" fill="none" xmlns="http://www.w3.org/2000/svg">
<path d="M7.99984 15.3332C6.75539 15.3332 5.55539 14.9665 4.39984 14.2332C3.24428 13.4998 2.33317 12.6609 1.6665 11.7165V13.4998C1.6665 13.6443 1.61928 13.7637 1.52484 13.8582C1.43039 13.9526 1.31095 13.9998 1.1665 13.9998C1.02206 13.9998 0.902615 13.9526 0.808171 13.8582C0.713726 13.7637 0.666504 13.6443 0.666504 13.4998V10.4998C0.666504 10.3554 0.713726 10.2359 0.808171 10.1415C0.902615 10.0471 1.02206 9.99984 1.1665 9.99984H4.1665C4.31095 9.99984 4.43039 10.0471 4.52484 10.1415C4.61928 10.2359 4.6665 10.3554 4.6665 10.4998C4.6665 10.6443 4.61928 10.7637 4.52484 10.8582C4.43039 10.9526 4.31095 10.9998 4.1665 10.9998H2.38317C2.94984 11.8554 3.75817 12.6248 4.80817 13.3082C5.85817 13.9915 6.92206 14.3332 7.99984 14.3332C9.6665 14.3332 11.1054 13.7693 12.3165 12.6415C13.5276 11.5137 14.1943 10.1332 14.3165 8.49984C14.3276 8.35539 14.3804 8.23595 14.4748 8.1415C14.5693 8.04706 14.6887 7.99984 14.8332 7.99984C14.9776 7.99984 15.0971 8.04984 15.1915 8.14984C15.2859 8.24984 15.3276 8.3665 15.3165 8.49984C15.2498 9.45539 15.0137 10.3471 14.6082 11.1748C14.2026 12.0026 13.6721 12.7248 13.0165 13.3415C12.3609 13.9582 11.6026 14.4443 10.7415 14.7998C9.88039 15.1554 8.9665 15.3332 7.99984 15.3332ZM1.1665 7.99984C1.02206 7.99984 0.902615 7.94984 0.808171 7.84984C0.713726 7.74984 0.672059 7.63317 0.683171 7.49984C0.749837 6.54428 0.985948 5.65261 1.3915 4.82484C1.79706 3.99706 2.32761 3.27484 2.98317 2.65817C3.63873 2.0415 4.39706 1.55539 5.25817 1.19984C6.11928 0.844282 7.03317 0.666504 7.99984 0.666504C9.24428 0.666504 10.4443 1.03317 11.5998 1.7665C12.7554 2.49984 13.6665 3.33873 14.3332 4.28317V2.49984C14.3332 2.35539 14.3804 2.23595 14.4748 2.1415C14.5693 2.04706 14.6887 1.99984 14.8332 1.99984C14.9776 1.99984 15.0971 2.04706 15.1915 2.1415C15.2859 2.23595 15.3332 2.35539 15.3332 2.49984V5.49984C15.3332 5.64428 15.2859 5.76373 15.1915 5.85817C15.0971 5.95261 14.9776 5.99984 14.8332 5.99984H11.8332C11.6887 5.99984 11.5693 5.95261 11.4748 5.85817C11.3804 5.76373 11.3332 5.64428 11.3332 5.49984C11.3332 5.35539 11.3804 5.23595 11.4748 5.1415C11.5693 5.04706 11.6887 4.99984 11.8332 4.99984H13.6165C13.0498 4.14428 12.2443 3.37484 11.1998 2.6915C10.1554 2.00817 9.08873 1.6665 7.99984 1.6665C6.33317 1.6665 4.89428 2.23039 3.68317 3.35817C2.47206 4.48595 1.80539 5.8665 1.68317 7.49984C1.67206 7.64428 1.61928 7.76373 1.52484 7.85817C1.43039 7.95261 1.31095 7.99984 1.1665 7.99984ZM7.98317 12.7832C7.86095 12.7832 7.75261 12.7387 7.65817 12.6498C7.56372 12.5609 7.5165 12.4554 7.5165 12.3332V11.8832C7.09428 11.7721 6.73039 11.6026 6.42484 11.3748C6.11928 11.1471 5.85539 10.8498 5.63317 10.4832C5.55539 10.3609 5.5415 10.2415 5.5915 10.1248C5.6415 10.0082 5.73873 9.92206 5.88317 9.8665C5.98317 9.83317 6.08039 9.8415 6.17484 9.8915C6.26928 9.9415 6.34428 10.0109 6.39984 10.0998C6.5665 10.4221 6.80261 10.6721 7.10817 10.8498C7.41373 11.0276 7.74984 11.1165 8.1165 11.1165C8.54984 11.1165 8.9165 10.9915 9.2165 10.7415C9.5165 10.4915 9.6665 10.1832 9.6665 9.8165C9.6665 9.46095 9.53872 9.17206 9.28317 8.94984C9.02761 8.72761 8.50539 8.4665 7.7165 8.1665C6.94984 7.87761 6.42484 7.57206 6.1415 7.24984C5.85817 6.92761 5.7165 6.49428 5.7165 5.94984C5.7165 5.44984 5.88039 5.03317 6.20817 4.69984C6.53595 4.3665 6.98317 4.16095 7.54984 4.08317V3.68317C7.54984 3.56095 7.59706 3.45539 7.6915 3.3665C7.78595 3.27761 7.89428 3.23317 8.0165 3.23317C8.13872 3.23317 8.24428 3.27761 8.33317 3.3665C8.42206 3.45539 8.4665 3.56095 8.4665 3.68317V4.08317C8.81095 4.1165 9.11928 4.21095 9.3915 4.3665C9.66372 4.52206 9.89428 4.73317 10.0832 4.99984C10.1609 5.09984 10.1804 5.21095 10.1415 5.33317C10.1026 5.45539 10.0221 5.54428 9.89984 5.59984C9.79984 5.65539 9.69428 5.6665 9.58317 5.63317C9.47206 5.59984 9.37761 5.53873 9.29984 5.44984C9.14428 5.24984 8.96095 5.09984 8.74984 4.99984C8.53872 4.89984 8.29984 4.84984 8.03317 4.84984C7.59984 4.84984 7.25817 4.94706 7.00817 5.1415C6.75817 5.33595 6.63317 5.60539 6.63317 5.94984C6.63317 6.3165 6.76373 6.61373 7.02484 6.8415C7.28595 7.06928 7.7665 7.29984 8.4665 7.53317C9.24428 7.78873 9.7915 8.08872 10.1082 8.43317C10.4248 8.77761 10.5832 9.23872 10.5832 9.8165C10.5832 10.3943 10.3915 10.8693 10.0082 11.2415C9.62484 11.6137 9.09984 11.8387 8.43317 11.9165V12.3165C8.43317 12.4387 8.38872 12.5471 8.29984 12.6415C8.21095 12.7359 8.10539 12.7832 7.98317 12.7832Z" fill="#999999"/>
</svg>
