<svg width="510" height="431" viewBox="0 0 510 431" fill="none" xmlns="http://www.w3.org/2000/svg">
<g clip-path="url(#clip0_906_14472)">
<g opacity="0.2" clip-path="url(#clip1_906_14472)">
<path d="M381 224.397C381 221.968 382.968 220 385.397 220H716.603C719.032 220 721 221.968 721 224.397V696.293C721 698.721 719.032 700.69 716.603 700.69H385.397C382.968 700.69 381 698.721 381 696.293V224.397Z" fill="#15202B"/>
<path d="M393.228 240.312C393.181 242.528 395.093 244.345 397.297 244.31C398.739 244.31 399.958 243.618 400.615 242.528L399.677 241.836C399.126 242.692 398.328 243.173 397.308 243.173C395.726 243.173 394.518 241.953 394.518 240.312C394.518 238.671 395.726 237.451 397.308 237.451C398.328 237.451 399.126 237.932 399.677 238.788L400.615 238.096C399.946 237.006 398.715 236.314 397.297 236.314C395.093 236.279 393.181 238.096 393.228 240.312ZM401.541 241.297C401.506 242.926 402.925 244.345 404.578 244.31C406.254 244.345 407.673 242.926 407.638 241.297C407.673 239.667 406.254 238.26 404.578 238.295C402.925 238.272 401.506 239.644 401.541 241.297ZM406.372 241.308C406.372 242.352 405.598 243.173 404.578 243.173C403.569 243.173 402.796 242.375 402.796 241.308C402.796 240.242 403.569 239.421 404.589 239.421C405.586 239.421 406.372 240.242 406.372 241.308ZM414.079 240.582C414.079 239.21 413.27 238.295 411.921 238.295C411.206 238.295 410.632 238.53 410.198 238.987V238.424H409.049V244.181H410.28V240.746C410.28 239.96 410.831 239.409 411.593 239.409C412.343 239.409 412.848 239.948 412.848 240.746V244.181H414.079V240.582ZM417.235 237.369C417.235 236.631 417.61 236.373 418.36 236.373C418.501 236.373 418.665 236.384 418.853 236.408V235.364C418.63 235.294 418.372 235.259 418.055 235.259C416.789 235.259 416.004 235.915 416.004 237.264V238.424H415.183V239.491H416.004V244.181H417.235V239.491H418.595V238.424H417.235V237.369ZM419.744 244.181H420.975V238.424H419.744V244.181ZM419.521 236.279C419.521 236.736 419.896 237.088 420.365 237.088C420.822 237.088 421.197 236.736 421.197 236.279C421.197 235.822 420.822 235.458 420.365 235.458C419.896 235.458 419.521 235.822 419.521 236.279ZM426.06 238.424C425.919 238.389 425.767 238.366 425.591 238.366C424.934 238.366 424.325 238.659 423.914 239.175V238.424H422.765V244.181H423.996V241.109C423.996 240.089 424.712 239.515 425.685 239.515H426.06V238.424ZM435.803 240.582C435.803 239.21 434.994 238.295 433.669 238.295C432.86 238.295 432.145 238.647 431.723 239.198C431.383 238.635 430.773 238.295 429.976 238.295C429.284 238.295 428.721 238.542 428.311 238.964V238.424H427.162V244.181H428.393V240.757C428.393 239.96 428.909 239.421 429.659 239.421C430.398 239.421 430.867 239.96 430.867 240.757V244.181H432.098V240.699C432.098 239.96 432.614 239.421 433.364 239.421C434.103 239.421 434.56 239.948 434.56 240.757V244.181H435.803V240.582ZM440.329 242.633C440.927 243.677 441.982 244.31 443.248 244.31C444.737 244.31 445.839 243.419 445.839 242.071C445.839 241.051 445.241 240.441 443.987 239.866L443.119 239.468C442.357 239.081 442.088 238.975 442.041 238.366C442.041 237.756 442.557 237.428 443.213 237.428C443.87 237.428 444.433 237.756 444.843 238.366L445.71 237.697C445.23 236.865 444.304 236.314 443.213 236.314C441.877 236.314 440.775 237.146 440.775 238.413C440.775 239.444 441.455 240.042 442.58 240.558L443.436 240.957C444.245 241.332 444.573 241.566 444.573 242.117C444.573 242.774 444.034 243.196 443.237 243.196C442.346 243.196 441.724 242.715 441.208 241.965L440.329 242.633ZM454.704 238.424L453.215 242.141L451.444 238.295H451.022L449.275 242.188L447.763 238.424H446.45L449.006 244.31H449.428L451.233 240.476L453.039 244.31H453.461L456.017 238.424H454.704ZM461.468 240.699C461.468 239.151 460.53 238.295 459.111 238.295C458.115 238.295 457.259 238.694 456.685 239.526L457.4 240.253C457.88 239.679 458.349 239.397 458.994 239.397C459.78 239.397 460.225 239.831 460.225 240.628V241.004H458.596C457.294 241.004 456.474 241.648 456.474 242.645C456.474 243.642 457.271 244.31 458.478 244.31C459.264 244.31 459.897 244.04 460.319 243.536V244.181H461.468V240.699ZM460.225 242C460.225 242.786 459.569 243.36 458.736 243.36C458.138 243.36 457.728 243.079 457.728 242.598C457.728 242.129 458.091 241.895 458.748 241.895H460.225V242ZM469.161 241.297C469.161 239.597 467.965 238.295 466.336 238.295C465.492 238.295 464.753 238.635 464.331 239.233V238.424H463.182V246.291H464.413V243.477C464.87 244.005 465.55 244.31 466.336 244.31C467.965 244.31 469.161 243.02 469.161 241.297ZM467.895 241.308C467.895 242.411 467.121 243.184 466.136 243.184C465.234 243.184 464.401 242.563 464.401 241.297C464.401 240.042 465.234 239.421 466.136 239.421C467.133 239.421 467.895 240.206 467.895 241.308Z" fill="#F1F5F8"/>
<path d="M392.724 265.431C392.724 263.003 394.693 261.034 397.121 261.034H704.879C707.308 261.034 709.276 263.003 709.276 265.431V326.982C709.276 329.411 707.308 331.379 704.879 331.379H397.121C394.693 331.379 392.724 329.411 392.724 326.982V265.431Z" fill="#213345"/>
<path d="M405.515 285.215H406.43V281.792H409.689V280.96H406.43V278.298H410.357V277.478H405.515V285.215ZM414.446 279.506C414.294 279.471 414.153 279.459 414.024 279.459C413.333 279.459 412.664 279.764 412.254 280.315V279.506H411.41V285.215H412.313V281.98C412.313 280.924 413.145 280.303 414.106 280.303H414.446V279.506ZM415.133 282.355C415.109 283.961 416.481 285.368 418.111 285.333C419.74 285.368 421.147 283.961 421.112 282.355C421.147 280.725 419.752 279.353 418.122 279.377C416.493 279.342 415.098 280.725 415.133 282.355ZM420.186 282.367C420.186 283.562 419.271 284.5 418.111 284.5C416.95 284.5 416.059 283.562 416.059 282.367C416.059 281.135 416.95 280.209 418.122 280.209C419.283 280.209 420.186 281.135 420.186 282.367ZM431.035 281.628C431.035 280.268 430.273 279.377 428.96 279.377C428.116 279.377 427.424 279.764 427.002 280.362C426.673 279.74 426.076 279.377 425.243 279.377C424.54 279.377 423.953 279.635 423.543 280.104V279.506H422.699V285.215H423.602V281.745C423.602 280.842 424.2 280.209 425.056 280.209C425.888 280.209 426.416 280.819 426.416 281.745V285.215H427.318V281.663C427.318 280.854 427.928 280.209 428.784 280.209C429.628 280.209 430.132 280.819 430.132 281.745V285.215H431.035V281.628Z" fill="#DCE6EF"/>
<path d="M444.644 313.061L441.162 308.277C442.552 307.732 443.396 306.536 443.396 305.006C443.396 302.914 441.796 301.454 439.457 301.454H435.218V313.061H437.082V308.576H439.21L442.517 313.061H444.644ZM437.082 303.107H439.421C440.705 303.107 441.479 303.881 441.479 305.024C441.479 306.149 440.705 306.923 439.421 306.923H437.082V303.107ZM445.352 307.257C445.299 310.581 448.078 313.307 451.472 313.254C453.811 313.254 455.851 312.041 456.888 310.194V306.923H451.454V308.576H455.024V309.825C454.303 310.933 453.09 311.584 451.56 311.584C449.062 311.584 447.286 309.719 447.286 307.24C447.286 304.795 449.01 302.966 451.454 302.966C452.896 302.966 454.057 303.582 454.918 304.795L456.273 303.687C455.165 302.14 453.494 301.261 451.472 301.261C448.113 301.208 445.281 303.934 445.352 307.257ZM459.176 313.061H461.04V308.576H463.414C465.753 308.576 467.353 307.082 467.353 305.006C467.353 302.914 465.753 301.454 463.414 301.454H459.176V313.061ZM461.04 306.923V303.107H463.379C464.698 303.107 465.437 303.881 465.437 305.024C465.437 306.167 464.698 306.923 463.379 306.923H461.04Z" fill="#F1F5F8"/>
<path d="M404.448 307.931C404.448 301.456 409.697 296.207 416.172 296.207C422.647 296.207 427.897 301.456 427.897 307.931C427.897 314.407 422.647 319.655 416.172 319.655C409.697 319.655 404.448 314.407 404.448 307.931Z" fill="#120136"/>
<path d="M422.035 313.794H418.38L415.945 310.162L419.516 310.232L422.035 313.794Z" fill="url(#paint0_linear_906_14472)"/>
<path d="M422.034 306.453C422.034 307.661 421.546 308.759 420.757 309.551C419.968 310.343 418.878 310.833 417.67 310.833H416.41L414.397 307.947H417.644C418.052 307.947 418.423 307.779 418.69 307.51C418.958 307.242 419.125 306.869 419.125 306.459C419.125 305.641 418.463 304.973 417.644 304.973H415.888L413.935 302.184L413.855 302.069H417.67C420.082 302.073 422.034 304.033 422.034 306.453Z" fill="url(#paint1_linear_906_14472)"/>
<path d="M416.212 306.44H415.697L412.651 302.076L413.173 302.08L416.212 306.44Z" fill="url(#paint2_linear_906_14472)"/>
<path d="M413.872 306.439H413.357L410.31 302.075L410.832 302.079L413.872 306.439Z" fill="url(#paint3_linear_906_14472)"/>
<path d="M415.042 306.44H414.527L411.481 302.076L412.002 302.08L415.042 306.44Z" fill="url(#paint4_linear_906_14472)"/>
<path d="M397.121 261.767H704.879V260.302H397.121V261.767ZM708.543 265.431V326.983H710.009V265.431H708.543ZM704.879 330.647H397.121V332.112H704.879V330.647ZM393.457 326.983V265.431H391.991V326.983H393.457ZM397.121 330.647C395.097 330.647 393.457 329.006 393.457 326.983H391.991C391.991 329.816 394.288 332.112 397.121 332.112V330.647ZM708.543 326.983C708.543 329.006 706.903 330.647 704.879 330.647V332.112C707.712 332.112 710.009 329.816 710.009 326.983H708.543ZM704.879 261.767C706.903 261.767 708.543 263.408 708.543 265.431H710.009C710.009 262.598 707.712 260.302 704.879 260.302V261.767ZM397.121 260.302C394.288 260.302 391.991 262.598 391.991 265.431H393.457C393.457 263.408 395.097 261.767 397.121 261.767V260.302Z" fill="#324D68"/>
<path d="M392.724 341.638C392.724 339.209 394.693 337.241 397.121 337.241H704.879C707.308 337.241 709.276 339.209 709.276 341.638V403.189C709.276 405.618 707.308 407.586 704.879 407.586H397.121C394.693 407.586 392.724 405.618 392.724 403.189V341.638Z" fill="#213345"/>
<path d="M407.391 361.423H408.306V354.505H411.037V353.685H404.671V354.505H407.391V361.423ZM410.965 358.562C410.942 360.168 412.314 361.575 413.943 361.54C415.573 361.575 416.98 360.168 416.945 358.562C416.98 356.932 415.585 355.56 413.955 355.584C412.325 355.549 410.93 356.932 410.965 358.562ZM416.018 358.574C416.018 359.769 415.104 360.707 413.943 360.707C412.783 360.707 411.892 359.769 411.892 358.574C411.892 357.343 412.783 356.416 413.955 356.416C415.116 356.416 416.018 357.343 416.018 358.574Z" fill="#DCE6EF"/>
<path d="M435.095 384.572C435.095 387.632 437.1 389.461 439.879 389.461C442.605 389.461 444.627 387.632 444.627 384.572V377.66H442.763V384.695C442.763 386.664 441.567 387.755 439.879 387.755C438.173 387.755 436.959 386.664 436.959 384.695V377.66H435.095V384.572ZM446.517 386.946C447.414 388.511 448.996 389.461 450.896 389.461C453.129 389.461 454.782 388.124 454.782 386.102C454.782 384.572 453.885 383.657 452.004 382.795L450.702 382.197C449.559 381.617 449.155 381.459 449.084 380.544C449.084 379.63 449.858 379.137 450.843 379.137C451.828 379.137 452.672 379.63 453.287 380.544L454.589 379.542C453.868 378.293 452.478 377.467 450.843 377.467C448.838 377.467 447.185 378.715 447.185 380.615C447.185 382.162 448.205 383.059 449.893 383.833L451.177 384.431C452.39 384.994 452.883 385.345 452.883 386.172C452.883 387.157 452.074 387.79 450.878 387.79C449.541 387.79 448.609 387.069 447.836 385.943L446.517 386.946ZM457.167 389.267H460.807C464.588 389.267 467.12 386.823 467.12 383.446C467.12 380.017 464.606 377.66 460.807 377.66H457.167V389.267ZM459.031 387.596V379.349H460.789C463.498 379.349 465.204 380.984 465.204 383.446C465.204 385.873 463.48 387.596 460.789 387.596H459.031ZM471.812 389.267H473.676V379.331H477.597V377.66H467.907V379.331H471.812V389.267Z" fill="#F1F5F8"/>
<path d="M416.172 372.414C422.647 372.414 427.897 377.664 427.897 384.138C427.897 390.613 422.647 395.862 416.172 395.862C409.698 395.862 404.448 390.614 404.448 384.138C404.448 377.662 409.697 372.414 416.172 372.414Z" fill="#53AE94"/>
<path d="M417.619 382.576V380.832H421.608V378.174H410.747V380.832H414.736V382.574C411.495 382.723 409.057 383.365 409.057 384.134C409.057 384.903 411.496 385.545 414.736 385.695V391.281H417.62V385.695C420.856 385.545 423.289 384.903 423.289 384.136C423.289 383.367 420.856 382.726 417.62 382.576L417.619 382.576ZM417.62 385.222V385.22C417.539 385.225 417.121 385.25 416.19 385.25C415.446 385.25 414.922 385.229 414.738 385.219V385.222C411.874 385.095 409.736 384.596 409.736 383.999C409.736 383.403 411.874 382.905 414.738 382.778V384.725C414.925 384.738 415.462 384.769 416.202 384.769C417.092 384.769 417.539 384.733 417.621 384.725V382.778C420.479 382.905 422.612 383.404 422.612 383.999C422.612 384.594 420.478 385.093 417.621 385.22" fill="white"/>
<path d="M397.121 337.974H704.879V336.509H397.121V337.974ZM708.543 341.638V403.19H710.009V341.638H708.543ZM704.879 406.854H397.121V408.319H704.879V406.854ZM393.457 403.19V341.638H391.991V403.19H393.457ZM397.121 406.854C395.097 406.854 393.457 405.213 393.457 403.19H391.991C391.991 406.023 394.288 408.319 397.121 408.319V406.854ZM708.543 403.19C708.543 405.213 706.903 406.854 704.879 406.854V408.319C707.712 408.319 710.009 406.023 710.009 403.19H708.543ZM704.879 337.974C706.903 337.974 708.543 339.615 708.543 341.638H710.009C710.009 338.805 707.712 336.509 704.879 336.509V337.974ZM397.121 336.509C394.288 336.509 391.991 338.805 391.991 341.638H393.457C393.457 339.615 395.097 337.974 397.121 337.974V336.509Z" fill="#324D68"/>
<path d="M405.3 430.301H406.387V427.685H407.772C409.137 427.685 410.07 426.813 410.07 425.603C410.07 424.382 409.137 423.531 407.772 423.531H405.3V430.301ZM406.387 426.721V424.495H407.752C408.521 424.495 408.952 424.946 408.952 425.613C408.952 426.28 408.521 426.721 407.752 426.721H406.387ZM414.081 425.264C413.958 425.234 413.825 425.213 413.671 425.213C413.097 425.213 412.563 425.47 412.204 425.921V425.264H411.199V430.301H412.276V427.614C412.276 426.721 412.902 426.218 413.753 426.218H414.081V425.264ZM415.046 430.301H416.123V425.264H415.046V430.301ZM414.851 423.387C414.851 423.787 415.179 424.095 415.589 424.095C415.99 424.095 416.318 423.787 416.318 423.387C416.318 422.987 415.99 422.669 415.589 422.669C415.179 422.669 414.851 422.987 414.851 423.387ZM417.363 427.778C417.363 429.245 418.542 430.414 420.03 430.414C420.943 430.414 421.702 429.973 422.153 429.245L421.394 428.66C421.025 429.163 420.573 429.419 420.04 429.419C419.137 429.419 418.46 428.701 418.46 427.778C418.46 426.865 419.137 426.147 420.04 426.147C420.584 426.147 421.035 426.403 421.394 426.916L422.153 426.321C421.712 425.593 420.963 425.152 420.03 425.152C418.583 425.131 417.332 426.331 417.363 427.778ZM427.775 428.137C427.826 427.901 427.857 427.675 427.857 427.46C427.857 426.147 426.862 425.152 425.528 425.152C424.102 425.121 422.892 426.342 422.923 427.788C422.923 429.276 424.092 430.414 425.631 430.414C426.4 430.414 427.067 430.147 427.642 429.604L427.129 428.865C426.677 429.265 426.185 429.46 425.662 429.46C424.8 429.46 424.154 428.957 424.02 428.137H427.775ZM424.041 427.296C424.205 426.547 424.779 426.065 425.487 426.065C426.195 426.065 426.77 426.526 426.78 427.296H424.041Z" fill="#DCE6EF"/>
<path d="M385.397 220.733H716.604V219.268H385.397V220.733ZM720.267 224.397V696.293H721.733V224.397H720.267ZM716.604 699.957H385.397V701.423H716.604V699.957ZM381.733 696.293V224.397H380.267V696.293H381.733ZM385.397 699.957C383.373 699.957 381.733 698.317 381.733 696.293H380.267C380.267 699.126 382.564 701.423 385.397 701.423V699.957ZM720.267 696.293C720.267 698.317 718.627 699.957 716.604 699.957V701.423C719.436 701.423 721.733 699.126 721.733 696.293H720.267ZM716.604 220.733C718.627 220.733 720.267 222.373 720.267 224.397H721.733C721.733 221.564 719.436 219.268 716.604 219.268V220.733ZM385.397 219.268C382.564 219.268 380.267 221.564 380.267 224.397H381.733C381.733 222.373 383.373 220.733 385.397 220.733V219.268Z" fill="#324D68"/>
</g>
<g clip-path="url(#clip2_906_14472)">
<path d="M6 143.093C6 140.833 7.84141 139 10.1129 139H341.887C344.159 139 346 140.833 346 143.093V426.907C346 429.167 344.159 431 341.887 431H10.1129C7.84141 431 6 429.167 6 426.907V143.093Z" fill="#15202B"/>
<path d="M326.806 165.437C322.742 165.437 319.438 162.148 319.438 158.103C319.438 154.057 322.742 150.769 326.806 150.769C330.871 150.769 334.175 154.057 334.175 158.103C334.175 162.148 330.871 165.437 326.806 165.437ZM326.806 151.792C323.31 151.792 320.466 154.623 320.466 158.103C320.466 161.582 323.31 164.413 326.806 164.413C330.302 164.413 333.147 161.582 333.147 158.103C333.147 154.623 330.302 151.792 326.806 151.792Z" fill="#DCE6EF"/>
<path d="M329.35 160.784C329.261 160.784 329.171 160.764 329.089 160.709L326.964 159.447C326.436 159.133 326.046 158.444 326.046 157.837V155.04C326.046 154.76 326.279 154.528 326.56 154.528C326.841 154.528 327.074 154.76 327.074 155.04V157.837C327.074 158.083 327.28 158.444 327.492 158.567L329.617 159.829C329.864 159.973 329.939 160.286 329.795 160.532C329.692 160.696 329.521 160.784 329.35 160.784Z" fill="#DCE6EF"/>
<path d="M299.387 160.661C297.968 160.661 296.817 159.515 296.817 158.102C296.817 156.69 297.968 155.544 299.387 155.544C300.806 155.544 301.958 156.69 301.958 158.102C301.958 159.515 300.806 160.661 299.387 160.661ZM299.387 156.567C298.537 156.567 297.845 157.256 297.845 158.102C297.845 158.948 298.537 159.637 299.387 159.637C300.237 159.637 300.93 158.948 300.93 158.102C300.93 157.256 300.237 156.567 299.387 156.567Z" fill="#DCE6EF"/>
<path d="M301.588 165.055C301.444 165.055 301.3 165.034 301.156 165C300.731 164.884 300.374 164.618 300.148 164.243L300.066 164.107C299.661 163.411 299.106 163.411 298.702 164.107L298.626 164.236C298.4 164.618 298.044 164.891 297.619 165C297.187 165.116 296.741 165.055 296.364 164.83L295.185 164.154C294.767 163.916 294.465 163.527 294.335 163.056C294.212 162.585 294.274 162.101 294.513 161.685C294.712 161.337 294.767 161.023 294.651 160.825C294.534 160.627 294.239 160.511 293.835 160.511C292.834 160.511 292.018 159.699 292.018 158.703V157.503C292.018 156.506 292.834 155.695 293.835 155.695C294.239 155.695 294.534 155.579 294.651 155.381C294.767 155.183 294.719 154.869 294.513 154.521C294.274 154.105 294.212 153.614 294.335 153.15C294.459 152.679 294.76 152.29 295.185 152.051L296.371 151.376C297.146 150.919 298.167 151.185 298.633 151.97L298.715 152.106C299.12 152.802 299.675 152.802 300.08 152.106L300.155 151.976C300.621 151.185 301.643 150.919 302.424 151.383L303.603 152.058C304.021 152.297 304.323 152.686 304.453 153.157C304.576 153.627 304.515 154.112 304.275 154.528C304.076 154.876 304.021 155.19 304.138 155.388C304.254 155.585 304.549 155.701 304.953 155.701C305.954 155.701 306.77 156.513 306.77 157.509V158.71C306.77 159.706 305.954 160.518 304.953 160.518C304.549 160.518 304.254 160.634 304.138 160.832C304.021 161.03 304.069 161.344 304.275 161.691C304.515 162.108 304.583 162.599 304.453 163.063C304.33 163.534 304.028 163.922 303.603 164.161L302.417 164.837C302.157 164.98 301.876 165.055 301.588 165.055ZM299.387 162.531C299.997 162.531 300.566 162.913 300.957 163.588L301.032 163.718C301.115 163.861 301.252 163.963 301.416 164.004C301.581 164.045 301.745 164.025 301.882 163.943L303.068 163.261C303.247 163.158 303.384 162.988 303.438 162.783C303.493 162.578 303.466 162.367 303.363 162.19C302.972 161.521 302.924 160.832 303.226 160.307C303.528 159.781 304.151 159.481 304.933 159.481C305.372 159.481 305.721 159.133 305.721 158.696V157.496C305.721 157.066 305.372 156.711 304.933 156.711C304.151 156.711 303.528 156.411 303.226 155.886C302.924 155.36 302.972 154.671 303.363 154.003C303.466 153.825 303.493 153.614 303.438 153.409C303.384 153.204 303.253 153.041 303.075 152.931L301.889 152.256C301.595 152.079 301.204 152.181 301.026 152.481L300.95 152.611C300.559 153.286 299.99 153.668 299.38 153.668C298.77 153.668 298.201 153.286 297.811 152.611L297.735 152.474C297.564 152.188 297.18 152.086 296.885 152.256L295.699 152.938C295.521 153.041 295.384 153.211 295.329 153.416C295.274 153.621 295.302 153.832 295.405 154.009C295.795 154.678 295.843 155.367 295.542 155.892C295.24 156.418 294.616 156.718 293.835 156.718C293.396 156.718 293.047 157.066 293.047 157.503V158.703C293.047 159.133 293.396 159.488 293.835 159.488C294.616 159.488 295.24 159.788 295.542 160.313C295.843 160.839 295.795 161.528 295.405 162.196C295.302 162.374 295.274 162.585 295.329 162.79C295.384 162.995 295.514 163.158 295.692 163.267L296.878 163.943C297.022 164.032 297.194 164.052 297.351 164.011C297.516 163.97 297.653 163.861 297.742 163.718L297.818 163.588C298.208 162.92 298.777 162.531 299.387 162.531Z" fill="#DCE6EF"/>
<path d="M17.3625 160.073C17.9219 161.045 18.909 161.634 20.0935 161.634C21.4864 161.634 22.5174 160.804 22.5174 159.549C22.5174 158.599 21.958 158.032 20.7845 157.497L19.9729 157.126C19.26 156.766 19.0077 156.667 18.9638 156.1C18.9638 155.532 19.4464 155.226 20.0606 155.226C20.6748 155.226 21.2013 155.532 21.5851 156.1L22.3967 155.478C21.9471 154.703 21.0806 154.189 20.0606 154.189C18.8103 154.189 17.7793 154.964 17.7793 156.143C17.7793 157.104 18.4155 157.661 19.4684 158.141L20.269 158.512C21.0258 158.861 21.3329 159.08 21.3329 159.593C21.3329 160.204 20.8284 160.597 20.0825 160.597C19.249 160.597 18.6677 160.15 18.1851 159.451L17.3625 160.073ZM30.8097 156.154L29.4168 159.615L27.7607 156.034H27.3658L25.7316 159.658L24.3168 156.154H23.0884L25.4794 161.634H25.8742L27.5632 158.065L29.2523 161.634H29.6471L32.0381 156.154H30.8097ZM37.1379 158.272C37.1379 156.831 36.2605 156.034 34.9334 156.034C34.0012 156.034 33.2005 156.405 32.6631 157.18L33.3321 157.857C33.7818 157.322 34.2205 157.06 34.8237 157.06C35.5586 157.06 35.9754 157.464 35.9754 158.207V158.556H34.4508C33.2334 158.556 32.4657 159.156 32.4657 160.084C32.4657 161.012 33.2115 161.634 34.3412 161.634C35.076 161.634 35.6683 161.383 36.0631 160.914V161.514H37.1379V158.272ZM35.9754 159.484C35.9754 160.215 35.3612 160.75 34.5825 160.75C34.0231 160.75 33.6392 160.488 33.6392 160.04C33.6392 159.604 33.9792 159.385 34.5934 159.385H35.9754V159.484ZM44.3342 158.829C44.3342 157.246 43.2155 156.034 41.691 156.034C40.9013 156.034 40.2103 156.351 39.8155 156.908V156.154H38.7407V163.479H39.8923V160.859C40.32 161.35 40.9561 161.634 41.691 161.634C43.2155 161.634 44.3342 160.433 44.3342 158.829ZM43.1497 158.84C43.1497 159.866 42.4258 160.586 41.5045 160.586C40.66 160.586 39.8813 160.008 39.8813 158.829C39.8813 157.661 40.66 157.082 41.5045 157.082C42.4368 157.082 43.1497 157.814 43.1497 158.84Z" fill="#F1F5F8"/>
<path d="M16.9677 181.3C16.9677 179.039 18.8091 177.206 21.0806 177.206H330.919C333.191 177.206 335.032 179.039 335.032 181.3V242.701C335.032 244.962 333.191 246.795 330.919 246.795H21.0806C18.8091 246.795 16.9677 244.962 16.9677 242.701V181.3Z" fill="#15202B"/>
<path d="M241.806 190.85C241.806 189.343 243.034 188.121 244.548 188.121H321.323C322.837 188.121 324.064 189.343 324.064 190.85V212.682C324.064 214.189 322.837 215.411 321.323 215.411H244.548C243.034 215.411 241.806 214.189 241.806 212.682V190.85Z" fill="#213345"/>
<path d="M261 209.953C265.543 209.953 269.226 206.288 269.226 201.766C269.226 197.245 265.543 193.579 261 193.579C256.457 193.579 252.774 197.245 252.774 201.766C252.774 206.288 256.457 209.953 261 209.953Z" fill="#120136"/>
<path d="M264.99 205.708H262.514L260.865 203.269L263.285 203.316L264.99 205.708Z" fill="url(#paint5_linear_906_14472)"/>
<path d="M264.99 200.778C264.99 201.59 264.659 202.327 264.125 202.859C263.591 203.391 262.852 203.72 262.034 203.72H261.18L259.817 201.781H262.016C262.292 201.781 262.544 201.668 262.725 201.488C262.906 201.308 263.02 201.058 263.02 200.783C263.02 200.232 262.571 199.784 262.016 199.784H260.827L259.504 197.911L259.45 197.834H262.034C263.667 197.836 264.99 199.153 264.99 200.778Z" fill="url(#paint6_linear_906_14472)"/>
<path d="M261.047 200.769H260.698L258.635 197.839L258.988 197.841L261.047 200.769Z" fill="url(#paint7_linear_906_14472)"/>
<path d="M259.461 200.769H259.112L257.049 197.839L257.403 197.841L259.461 200.769Z" fill="url(#paint8_linear_906_14472)"/>
<path d="M260.253 200.769H259.905L257.842 197.839L258.195 197.841L260.253 200.769Z" fill="url(#paint9_linear_906_14472)"/>
<path d="M281.499 205.178L279.327 202.208C280.194 201.87 280.72 201.128 280.72 200.178C280.72 198.879 279.722 197.973 278.263 197.973H275.62V205.178H276.783V202.394H278.11L280.172 205.178H281.499ZM276.783 198.999H278.241C279.042 198.999 279.525 199.479 279.525 200.189C279.525 200.888 279.042 201.368 278.241 201.368H276.783V198.999ZM281.94 201.575C281.907 203.638 283.64 205.33 285.756 205.298C287.215 205.298 288.487 204.544 289.134 203.398V201.368H285.745V202.394H287.972V203.169C287.522 203.857 286.765 204.261 285.811 204.261C284.254 204.261 283.146 203.104 283.146 201.564C283.146 200.047 284.221 198.912 285.745 198.912C286.645 198.912 287.369 199.294 287.906 200.047L288.751 199.359C288.06 198.399 287.018 197.853 285.756 197.853C283.661 197.82 281.896 199.512 281.94 201.575ZM290.562 205.178H291.724V202.394H293.205C294.663 202.394 295.662 201.466 295.662 200.178C295.662 198.879 294.663 197.973 293.205 197.973H290.562V205.178ZM291.724 201.368V198.999H293.183C294.005 198.999 294.466 199.479 294.466 200.189C294.466 200.899 294.005 201.368 293.183 201.368H291.724Z" fill="#DCE6EF"/>
<path d="M307.613 203.949C307.293 203.949 306.973 203.827 306.73 203.586L303.751 200.62C303.618 200.488 303.618 200.27 303.751 200.138C303.884 200.006 304.103 200.006 304.235 200.138L307.215 203.103C307.434 203.322 307.791 203.322 308.01 203.103L310.99 200.138C311.122 200.006 311.342 200.006 311.474 200.138C311.607 200.27 311.607 200.488 311.474 200.62L308.495 203.586C308.252 203.827 307.933 203.949 307.613 203.949Z" fill="#DCE6EF"/>
<path d="M244.548 188.804H321.322V187.439H244.548V188.804ZM323.379 190.851V212.682H324.75V190.851H323.379ZM321.322 214.729H244.548V216.094H321.322V214.729ZM242.492 212.682V190.851H241.121V212.682H242.492ZM244.548 214.729C243.412 214.729 242.492 213.813 242.492 212.682H241.121C241.121 214.566 242.656 216.094 244.548 216.094V214.729ZM323.379 212.682C323.379 213.813 322.458 214.729 321.322 214.729V216.094C323.215 216.094 324.75 214.566 324.75 212.682H323.379ZM321.322 188.804C322.458 188.804 323.379 189.72 323.379 190.851H324.75C324.75 188.967 323.215 187.439 321.322 187.439V188.804ZM244.548 187.439C242.656 187.439 241.121 188.967 241.121 190.851H242.492C242.492 189.72 243.412 188.804 244.548 188.804V187.439Z" fill="#324D68"/>
<path d="M36.8851 203.169H35.4045V199.845H33.6606V203.169H30.4196L33.4961 195.735H31.7029L28.2316 204.184V204.659H33.6606V206.542H35.4045V204.659H36.8851V203.169ZM38.5147 205.461C38.5147 206.182 39.0905 206.722 39.8144 206.722C40.5383 206.722 41.0812 206.182 41.0812 205.461C41.0812 204.725 40.5383 204.184 39.8144 204.184C39.0905 204.184 38.5147 204.741 38.5147 205.461ZM51.216 203.169H49.7354V199.845H47.9915V203.169H44.7506L47.827 195.735H46.0338L42.5625 204.184V204.659H47.9915V206.542H49.7354V204.659H51.216V203.169ZM59.6314 203.071C59.6314 202.138 59.3517 201.384 58.7924 200.811C58.233 200.238 57.5585 199.878 56.7524 199.747L59.3846 196.21V195.735H52.623V197.324H56.6701L54.1366 200.713V201.188H55.3375C56.9333 201.188 57.8382 201.859 57.8382 203.087C57.8382 204.315 56.9169 205.134 55.6172 205.134C54.4985 205.134 53.7253 204.528 53.0672 203.529L51.8498 204.381C52.5737 205.773 53.9062 206.722 55.6666 206.722C57.8053 206.722 59.6314 205.265 59.6314 203.071ZM64.5993 195.735L60.8319 196.963L61.2596 198.486L63.4641 197.782V206.542H65.208V195.735H64.5993ZM71.0096 195.735L67.2422 196.963L67.6699 198.486L69.8744 197.782V206.542H71.6183V195.735H71.0096Z" fill="#F1F5F8"/>
<path d="M33.9965 229.288C33.9965 228.476 33.5359 227.865 32.7586 227.636C33.1424 227.34 33.3632 226.92 33.3632 226.394C33.3632 225.926 33.2 225.544 32.8737 225.248C32.5474 224.952 32.106 224.799 31.559 224.799H29.3805V231.103H31.9908C33.2288 231.103 33.9965 230.339 33.9965 229.288ZM31.4822 225.468C32.2115 225.468 32.5954 225.84 32.5954 226.442C32.5954 227.044 32.2019 227.426 31.4822 227.426H30.129V225.468H31.4822ZM33.2288 229.269C33.2288 229.966 32.749 230.434 31.914 230.434H30.129V228.104H31.914C32.749 228.104 33.2288 228.572 33.2288 229.269ZM38.7393 228.238C38.7393 227.015 38.0196 226.346 36.9159 226.346C36.1386 226.346 35.438 226.681 35.0158 227.368L35.5052 227.77C35.8891 227.273 36.3018 227.025 36.868 227.025C37.5685 227.025 38.0004 227.435 38.0004 228.199V228.601H36.5225C35.5148 228.601 34.843 229.107 34.843 229.9C34.843 230.702 35.5148 231.208 36.4745 231.208C37.1559 231.208 37.7029 230.96 38.0484 230.501V231.103H38.7393V228.238ZM38.0004 229.317C38.0004 230.033 37.3382 230.597 36.5705 230.597C36.0234 230.597 35.6012 230.329 35.6012 229.861C35.6012 229.432 35.9563 229.202 36.6089 229.202H38.0004V229.317ZM40.3067 231.103H41.0456V223.939H40.3067V231.103ZM46.1712 228.238C46.1712 227.015 45.4515 226.346 44.3478 226.346C43.5705 226.346 42.8699 226.681 42.4477 227.368L42.9371 227.77C43.321 227.273 43.7336 227.025 44.2998 227.025C45.0004 227.025 45.4323 227.435 45.4323 228.199V228.601H43.9544C42.9467 228.601 42.2749 229.107 42.2749 229.9C42.2749 230.702 42.9467 231.208 43.9064 231.208C44.5877 231.208 45.1348 230.96 45.4802 230.501V231.103H46.1712V228.238ZM45.4323 229.317C45.4323 230.033 44.7701 230.597 44.0023 230.597C43.4553 230.597 43.0331 230.329 43.0331 229.861C43.0331 229.432 43.3882 229.202 44.0407 229.202H45.4323V229.317ZM51.6061 228.18C51.6061 227.082 50.9535 226.346 49.8691 226.346C49.2837 226.346 48.775 226.566 48.4295 226.948V226.451H47.7386V231.103H48.4775V228.266C48.4775 227.54 48.9862 227.025 49.7059 227.025C50.4257 227.025 50.8671 227.531 50.8671 228.266V231.103H51.6061V228.18ZM52.8384 228.772C52.8384 230.119 53.9324 231.208 55.2855 231.208C56.1013 231.208 56.7826 230.816 57.2049 230.196L56.6771 229.785C56.3028 230.282 55.8422 230.53 55.2951 230.53C54.3259 230.53 53.5965 229.747 53.5965 228.772C53.5965 227.808 54.3259 227.025 55.2951 227.025C55.8422 227.025 56.3124 227.273 56.6867 227.779L57.2145 227.359C56.7922 226.738 56.1013 226.346 55.2855 226.346C53.9516 226.327 52.8096 227.445 52.8384 228.772ZM62.4929 229.002C62.5312 228.811 62.5504 228.629 62.5504 228.448C62.5504 227.216 61.6292 226.346 60.42 226.346C59.086 226.346 58.0304 227.435 58.0304 228.782C58.0304 230.148 59.1148 231.208 60.5063 231.208C61.2453 231.208 61.8883 230.902 62.3777 230.396L61.9458 229.9C61.5236 230.32 61.0437 230.53 60.5159 230.53C59.5946 230.53 58.8845 229.919 58.7981 229.002H62.4929ZM58.8269 228.352C58.99 227.55 59.6234 227.015 60.4008 227.015C61.1781 227.015 61.7827 227.521 61.7923 228.352H58.8269ZM63.772 227.005C63.772 227.349 64.0408 227.607 64.3766 227.607C64.7125 227.607 64.9812 227.349 64.9812 227.005C64.9812 226.662 64.7125 226.404 64.3766 226.404C64.0408 226.404 63.772 226.662 63.772 227.005ZM63.772 230.606C63.772 230.95 64.0408 231.208 64.3766 231.208C64.7125 231.208 64.9812 230.95 64.9812 230.606C64.9812 230.262 64.7125 230.005 64.3766 230.005C64.0408 230.005 63.772 230.262 63.772 230.606ZM73.4604 229.279H72.5391V227.177H71.7906V229.279H69.5641L71.4643 224.799H70.6965L68.614 229.718V229.928H71.7906V231.103H72.5391V229.928H73.4604V229.279ZM74.5964 230.606C74.5964 230.95 74.8651 231.208 75.201 231.208C75.5369 231.208 75.8056 230.95 75.8056 230.606C75.8056 230.262 75.5369 230.005 75.201 230.005C74.8651 230.005 74.5964 230.262 74.5964 230.606ZM81.6891 229.279H80.7678V227.177H80.0192V229.279H77.7928L79.693 224.799H78.9252L76.8427 229.718V229.928H80.0192V231.103H80.7678V229.928H81.6891V229.279ZM86.7068 229.107C86.7068 227.808 85.7088 227.158 84.538 227.158C84.2309 227.158 83.9334 227.187 83.6359 227.235V225.468H86.3517V224.799H82.8873V227.808H84.3172C85.3537 227.808 85.9295 228.285 85.9295 229.116C85.9295 229.957 85.3057 230.52 84.4516 230.52C83.6934 230.52 83.1848 230.129 82.7913 229.527L82.2731 229.909C82.705 230.673 83.4535 231.208 84.4612 231.208C85.6512 231.208 86.7068 230.377 86.7068 229.107ZM92.2695 229.279H91.3482V227.177H90.5997V229.279H88.3732L90.2734 224.799H89.5057L87.4232 229.718V229.928H90.5997V231.103H91.3482V229.928H92.2695V229.279ZM97.715 229.279H96.7937V227.177H96.0452V229.279H93.8187L95.7189 224.799H94.9511L92.8686 229.718V229.928H96.0452V231.103H96.7937V229.928H97.715V229.279ZM106.43 231.103L104.405 228.371C105.24 228.133 105.739 227.473 105.739 226.623C105.739 225.563 104.942 224.799 103.714 224.799H101.487V231.103H102.236V228.457H103.589L105.556 231.103H106.43ZM102.236 225.468H103.685C104.491 225.468 104.961 225.945 104.961 226.633C104.961 227.33 104.501 227.789 103.685 227.789H102.236V225.468ZM106.904 227.951C106.875 229.756 108.382 231.237 110.196 231.208C110.819 231.208 111.386 231.065 111.894 230.769C112.412 230.473 112.816 230.071 113.094 229.575V227.894H110.186V228.562H112.345V229.412C111.913 230.1 111.155 230.539 110.234 230.539C108.775 230.568 107.652 229.384 107.681 227.941C107.652 226.518 108.756 225.353 110.196 225.382C111.04 225.382 111.722 225.764 112.211 226.423L112.777 225.983C112.192 225.172 111.27 224.694 110.196 224.694C108.382 224.665 106.875 226.146 106.904 227.951ZM114.477 231.103H115.226V228.467H116.704C117.932 228.467 118.729 227.703 118.729 226.623C118.729 225.563 117.932 224.799 116.704 224.799H114.477V231.103ZM115.226 227.798V225.468H116.684C117.491 225.468 117.951 225.945 117.951 226.633C117.951 227.33 117.491 227.798 116.684 227.798H115.226Z" fill="#DCE6EF"/>
<path d="M145.153 220.869H127.331C125.816 220.869 124.589 222.091 124.589 223.598V233.15C124.589 234.657 125.816 235.878 127.331 235.878H145.153C146.667 235.878 147.895 234.657 147.895 233.15V223.598C147.895 222.091 146.667 220.869 145.153 220.869Z" fill="#213345"/>
<path d="M133.984 224.693L131.326 228.218L128.667 224.693H128.312V231.102H129.33V227.139L131.153 229.517H131.498L133.312 227.148V231.102H134.329V224.693H133.984ZM139.551 228.266C139.551 227.005 138.783 226.308 137.622 226.308C136.806 226.308 136.106 226.632 135.635 227.31L136.221 227.903C136.614 227.435 136.998 227.205 137.526 227.205C138.169 227.205 138.533 227.559 138.533 228.208V228.514H137.2C136.134 228.514 135.463 229.039 135.463 229.851C135.463 230.663 136.115 231.207 137.104 231.207C137.747 231.207 138.265 230.988 138.61 230.577V231.102H139.551V228.266ZM138.533 229.326C138.533 229.966 137.996 230.434 137.315 230.434C136.825 230.434 136.489 230.205 136.489 229.813C136.489 229.431 136.787 229.24 137.324 229.24H138.533V229.326ZM145.013 231.102L143.256 228.676L144.888 226.413H143.736L142.69 227.96L141.635 226.413H140.483L142.105 228.667L140.358 231.102H141.51L142.681 229.383L143.861 231.102H145.013Z" fill="#4CAFFF"/>
<path d="M21.0807 177.888H330.919V176.523H21.0807V177.888ZM334.347 181.299V242.701H335.718V181.299H334.347ZM330.919 246.112H21.0807V247.477H330.919V246.112ZM17.6533 242.701V181.299H16.2823V242.701H17.6533ZM21.0807 246.112C19.1878 246.112 17.6533 244.585 17.6533 242.701H16.2823C16.2823 245.339 18.4307 247.477 21.0807 247.477V246.112ZM334.347 242.701C334.347 244.585 332.812 246.112 330.919 246.112V247.477C333.57 247.477 335.718 245.339 335.718 242.701H334.347ZM330.919 177.888C332.812 177.888 334.347 179.415 334.347 181.299H335.718C335.718 178.662 333.57 176.523 330.919 176.523V177.888ZM21.0807 176.523C18.4307 176.523 16.2823 178.662 16.2823 181.299H17.6533C17.6533 179.415 19.1878 177.888 21.0807 177.888V176.523Z" fill="#324D68"/>
<path d="M16.9677 300.009C16.9677 297.749 18.8091 295.916 21.0806 295.916H330.919C333.191 295.916 335.032 297.749 335.032 300.009V361.411C335.032 363.672 333.191 365.505 330.919 365.505H21.0806C18.8091 365.505 16.9677 363.672 16.9677 361.411V300.009Z" fill="#15202B"/>
<path d="M235.637 309.561C235.637 308.054 236.865 306.832 238.379 306.832H321.323C322.837 306.832 324.065 308.054 324.065 309.561V331.393C324.065 332.9 322.837 334.122 321.323 334.122H238.379C236.865 334.122 235.637 332.9 235.637 331.393V309.561Z" fill="#213345"/>
<path d="M254.831 328.664C259.374 328.664 263.056 324.998 263.056 320.477C263.056 315.955 259.374 312.29 254.831 312.29C250.288 312.29 246.605 315.955 246.605 320.477C246.605 324.998 250.288 328.664 254.831 328.664Z" fill="#120136"/>
<path d="M258.821 324.418H256.345L254.696 321.979L257.115 322.026L258.821 324.418Z" fill="url(#paint10_linear_906_14472)"/>
<path d="M258.821 319.488C258.821 320.3 258.49 321.037 257.955 321.569C257.421 322.101 256.683 322.43 255.865 322.43H255.011L253.647 320.491H255.847C256.123 320.491 256.374 320.379 256.556 320.198C256.737 320.018 256.85 319.768 256.85 319.493C256.85 318.943 256.402 318.494 255.847 318.494H254.658L253.335 316.621L253.281 316.544H255.865C257.498 316.547 258.821 317.863 258.821 319.488Z" fill="url(#paint11_linear_906_14472)"/>
<path d="M254.877 319.479H254.528L252.465 316.549L252.819 316.551L254.877 319.479Z" fill="url(#paint12_linear_906_14472)"/>
<path d="M253.292 319.479H252.943L250.88 316.549L251.233 316.551L253.292 319.479Z" fill="url(#paint13_linear_906_14472)"/>
<path d="M254.084 319.479H253.736L251.673 316.549L252.026 316.551L254.084 319.479Z" fill="url(#paint14_linear_906_14472)"/>
<path d="M269.374 320.973C269.374 322.873 270.624 324.008 272.357 324.008C274.057 324.008 275.318 322.873 275.318 320.973V316.684H274.156V321.05C274.156 322.272 273.41 322.949 272.357 322.949C271.293 322.949 270.536 322.272 270.536 321.05V316.684H269.374V320.973ZM276.497 322.447C277.056 323.419 278.043 324.008 279.228 324.008C280.621 324.008 281.651 323.178 281.651 321.923C281.651 320.973 281.092 320.406 279.919 319.871L279.107 319.5C278.394 319.14 278.142 319.041 278.098 318.474C278.098 317.906 278.581 317.6 279.195 317.6C279.809 317.6 280.335 317.906 280.719 318.474L281.531 317.852C281.081 317.077 280.215 316.563 279.195 316.563C277.944 316.563 276.913 317.338 276.913 318.517C276.913 319.478 277.55 320.035 278.602 320.515L279.403 320.886C280.16 321.235 280.467 321.454 280.467 321.967C280.467 322.578 279.962 322.971 279.217 322.971C278.383 322.971 277.802 322.524 277.319 321.825L276.497 322.447ZM283.139 323.888H285.409C287.767 323.888 289.347 322.371 289.347 320.275C289.347 318.146 287.778 316.684 285.409 316.684H283.139V323.888ZM284.302 322.851V317.731H285.398C287.087 317.731 288.151 318.747 288.151 320.275C288.151 321.781 287.076 322.851 285.398 322.851H284.302ZM292.272 323.888H293.435V317.721H295.881V316.684H289.838V317.721H292.272V323.888Z" fill="#DCE6EF"/>
<path d="M307.613 322.659C307.293 322.659 306.973 322.537 306.73 322.296L303.751 319.33C303.618 319.198 303.618 318.98 303.751 318.848C303.884 318.716 304.103 318.716 304.235 318.848L307.215 321.813C307.434 322.032 307.791 322.032 308.01 321.813L310.99 318.848C311.122 318.716 311.342 318.716 311.474 318.848C311.607 318.98 311.607 319.198 311.474 319.33L308.495 322.296C308.252 322.537 307.933 322.659 307.613 322.659Z" fill="#DCE6EF"/>
<path d="M238.379 307.514H321.323V306.149H238.379V307.514ZM323.379 309.561V331.392H324.75V309.561H323.379ZM321.323 333.439H238.379V334.804H321.323V333.439ZM236.323 331.392V309.561H234.952V331.392H236.323ZM238.379 333.439C237.243 333.439 236.323 332.523 236.323 331.392H234.952C234.952 333.276 236.486 334.804 238.379 334.804V333.439ZM323.379 331.392C323.379 332.523 322.458 333.439 321.323 333.439V334.804C323.215 334.804 324.75 333.276 324.75 331.392H323.379ZM321.323 307.514C322.458 307.514 323.379 308.43 323.379 309.561H324.75C324.75 307.677 323.215 306.149 321.323 306.149V307.514ZM238.379 306.149C236.486 306.149 234.952 307.677 234.952 309.561H236.323C236.323 308.43 237.243 307.514 238.379 307.514V306.149Z" fill="#324D68"/>
<path d="M31.8839 323.746L33.7923 321.732C34.549 320.93 35.1248 320.242 35.5032 319.636C35.8981 319.03 36.0955 318.359 36.0955 317.622C36.0955 315.723 34.5655 314.266 32.4926 314.266C30.2716 314.266 28.8403 315.952 28.8403 317.72C28.8403 318.048 28.8732 318.359 28.9555 318.654H30.7158C30.6665 318.326 30.6336 318.048 30.6336 317.819C30.6336 316.705 31.3739 315.854 32.4761 315.854C33.5784 315.854 34.2858 316.656 34.2858 317.753C34.2858 318.67 33.7594 319.456 32.5584 320.717L28.6923 324.859V325.252H36.4739V323.746H31.8839ZM38.3702 324.172C38.3702 324.892 38.946 325.433 39.6699 325.433C40.3937 325.433 40.9367 324.892 40.9367 324.172C40.9367 323.435 40.3937 322.895 39.6699 322.895C38.946 322.895 38.3702 323.451 38.3702 324.172ZM50.3843 321.699C50.3843 319.653 48.7063 318.081 46.8143 318.081C46.6334 318.081 46.4853 318.097 46.3372 318.13L48.953 314.446H46.8966L44.1821 318.261C43.8037 318.801 43.524 319.211 43.343 319.505C43.1621 319.8 43.014 320.127 42.8824 320.504C42.7672 320.864 42.7014 321.257 42.7014 321.683C42.6521 323.812 44.4782 325.465 46.5347 325.433C48.6076 325.433 50.3843 323.812 50.3843 321.699ZM48.6569 321.699C48.6569 322.305 48.443 322.829 48.0318 323.238C47.6205 323.648 47.1269 323.844 46.5347 323.844C45.9259 323.844 45.4324 323.648 45.0211 323.238C44.6098 322.829 44.4124 322.305 44.4124 321.699C44.4124 321.093 44.6098 320.586 45.0211 320.177C45.4324 319.767 45.9259 319.554 46.5347 319.554C47.1269 319.554 47.6205 319.767 48.0318 320.177C48.443 320.586 48.6569 321.093 48.6569 321.699ZM59.2298 321.781C59.2298 320.848 58.9501 320.095 58.3908 319.522C57.8314 318.949 57.1569 318.588 56.3508 318.457L58.983 314.921V314.446H52.2214V316.034H56.2685L53.735 319.423V319.898H54.9359C56.5318 319.898 57.4366 320.57 57.4366 321.798C57.4366 323.026 56.5153 323.844 55.2156 323.844C54.0969 323.844 53.3237 323.238 52.6656 322.24L51.4482 323.091C52.1721 324.483 53.5047 325.433 55.265 325.433C57.4037 325.433 59.2298 323.975 59.2298 321.781ZM68.4257 321.765C68.4257 319.587 66.6654 318.392 64.7241 318.392C64.2306 318.392 63.7699 318.441 63.3422 318.539V316.001H67.817V314.446H61.6312V319.882H64.1319C65.7277 319.882 66.6325 320.57 66.6325 321.798C66.6325 323.042 65.6783 323.844 64.3786 323.844C63.2106 323.844 62.4044 323.238 61.7464 322.24L60.5289 323.107C61.2693 324.499 62.6348 325.433 64.428 325.433C66.5831 325.433 68.4257 323.943 68.4257 321.765ZM77.6482 321.699C77.6482 319.653 75.9701 318.081 74.0784 318.081C73.8975 318.081 73.7494 318.097 73.6013 318.13L76.2169 314.446H74.1607L71.4462 318.261C71.0678 318.801 70.7881 319.211 70.6071 319.505C70.4262 319.8 70.2781 320.127 70.1465 320.504C70.0313 320.864 69.9655 321.257 69.9655 321.683C69.9162 323.812 71.7423 325.465 73.7988 325.433C75.8714 325.433 77.6482 323.812 77.6482 321.699ZM75.9207 321.699C75.9207 322.305 75.7069 322.829 75.2956 323.238C74.8843 323.648 74.391 323.844 73.7988 323.844C73.19 323.844 72.6965 323.648 72.2852 323.238C71.8739 322.829 71.6765 322.305 71.6765 321.699C71.6765 321.093 71.8739 320.586 72.2852 320.177C72.6965 319.767 73.19 319.554 73.7988 319.554C74.391 319.554 74.8843 319.767 75.2956 320.177C75.7069 320.586 75.9207 321.093 75.9207 321.699Z" fill="#F1F5F8"/>
<path d="M33.7716 347.998C33.7716 347.186 33.3109 346.575 32.5336 346.346C32.9175 346.05 33.1382 345.629 33.1382 345.104C33.1382 344.636 32.975 344.254 32.6487 343.958C32.3225 343.662 31.881 343.509 31.334 343.509H29.1555V349.813H31.7658C33.0038 349.813 33.7716 349.049 33.7716 347.998ZM31.2572 344.178C31.9866 344.178 32.3704 344.55 32.3704 345.152C32.3704 345.754 31.977 346.136 31.2572 346.136H29.9041V344.178H31.2572ZM33.0038 347.979C33.0038 348.676 32.524 349.144 31.6891 349.144H29.9041V346.814H31.6891C32.524 346.814 33.0038 347.282 33.0038 347.979ZM38.5144 346.948C38.5144 345.725 37.7946 345.056 36.691 345.056C35.9136 345.056 35.2131 345.391 34.7908 346.078L35.2802 346.48C35.6641 345.983 36.0768 345.735 36.643 345.735C37.3436 345.735 37.7754 346.145 37.7754 346.909V347.31H36.2975C35.2898 347.31 34.6181 347.817 34.6181 348.609C34.6181 349.412 35.2898 349.918 36.2495 349.918C36.9309 349.918 37.4779 349.67 37.8234 349.211V349.813H38.5144V346.948ZM37.7754 348.027C37.7754 348.743 37.1132 349.307 36.3455 349.307C35.7985 349.307 35.3762 349.039 35.3762 348.571C35.3762 348.141 35.7313 347.912 36.3839 347.912H37.7754V348.027ZM40.0817 349.813H40.8207V342.649H40.0817V349.813ZM45.9462 346.948C45.9462 345.725 45.2265 345.056 44.1229 345.056C43.3455 345.056 42.645 345.391 42.2227 346.078L42.7121 346.48C43.096 345.983 43.5087 345.735 44.0749 345.735C44.7754 345.735 45.2073 346.145 45.2073 346.909V347.31H43.7294C42.7217 347.31 42.0499 347.817 42.0499 348.609C42.0499 349.412 42.7217 349.918 43.6814 349.918C44.3628 349.918 44.9098 349.67 45.2553 349.211V349.813H45.9462V346.948ZM45.2073 348.027C45.2073 348.743 44.5451 349.307 43.7774 349.307C43.2304 349.307 42.8081 349.039 42.8081 348.571C42.8081 348.141 43.1632 347.912 43.8158 347.912H45.2073V348.027ZM51.3811 346.89C51.3811 345.792 50.7285 345.056 49.6441 345.056C49.0587 345.056 48.55 345.276 48.2046 345.658V345.161H47.5136V349.813H48.2526V346.976C48.2526 346.25 48.7612 345.735 49.4809 345.735C50.2007 345.735 50.6421 346.241 50.6421 346.976V349.813H51.3811V346.89ZM52.6134 347.482C52.6134 348.829 53.7074 349.918 55.0606 349.918C55.8763 349.918 56.5577 349.526 56.9799 348.906L56.4521 348.495C56.0778 348.992 55.6172 349.24 55.0702 349.24C54.1009 349.24 53.3715 348.457 53.3715 347.482C53.3715 346.518 54.1009 345.735 55.0702 345.735C55.6172 345.735 56.0874 345.983 56.4617 346.489L56.9895 346.069C56.5673 345.448 55.8763 345.056 55.0606 345.056C53.7266 345.037 52.5846 346.155 52.6134 347.482ZM62.2679 347.712C62.3063 347.521 62.3255 347.339 62.3255 347.158C62.3255 345.926 61.4042 345.056 60.195 345.056C58.861 345.056 57.8054 346.145 57.8054 347.492C57.8054 348.858 58.8898 349.918 60.2814 349.918C61.0203 349.918 61.6633 349.612 62.1527 349.106L61.7209 348.609C61.2986 349.03 60.8188 349.24 60.2909 349.24C59.3697 349.24 58.6595 348.629 58.5731 347.712H62.2679ZM58.6019 347.062C58.7651 346.26 59.3984 345.725 60.1758 345.725C60.9531 345.725 61.5577 346.231 61.5673 347.062H58.6019ZM63.547 345.715C63.547 346.059 63.8157 346.317 64.1516 346.317C64.4875 346.317 64.7562 346.059 64.7562 345.715C64.7562 345.372 64.4875 345.114 64.1516 345.114C63.8157 345.114 63.547 345.372 63.547 345.715ZM63.547 349.316C63.547 349.66 63.8157 349.918 64.1516 349.918C64.4875 349.918 64.7562 349.66 64.7562 349.316C64.7562 348.972 64.4875 348.715 64.1516 348.715C63.8157 348.715 63.547 348.972 63.547 349.316ZM70.0589 349.144L71.46 347.673C72.0358 347.072 72.3621 346.69 72.602 346.155C72.7268 345.887 72.7844 345.61 72.7844 345.314C72.7844 344.244 71.9495 343.404 70.7882 343.404C69.5503 343.404 68.7441 344.359 68.7441 345.362C68.7441 345.563 68.7633 345.744 68.8113 345.916H69.5791C69.5407 345.744 69.5215 345.572 69.5215 345.391C69.5215 345.037 69.6366 344.732 69.867 344.474C70.0973 344.216 70.4044 344.092 70.7882 344.092C71.5272 344.092 72.007 344.655 72.007 345.352C72.007 345.954 71.6616 346.432 70.8938 347.234L68.6386 349.622V349.813H73.0435V349.144H70.0589ZM74.2966 349.316C74.2966 349.66 74.5655 349.918 74.9014 349.918C75.2372 349.918 75.506 349.66 75.506 349.316C75.506 348.972 75.2372 348.715 74.9014 348.715C74.5655 348.715 74.2966 348.972 74.2966 349.316ZM78.119 349.144L79.5201 347.673C80.0959 347.072 80.4222 346.69 80.6622 346.155C80.7869 345.887 80.8445 345.61 80.8445 345.314C80.8445 344.244 80.0096 343.404 78.8484 343.404C77.6104 343.404 76.8043 344.359 76.8043 345.362C76.8043 345.563 76.8234 345.744 76.8714 345.916H77.6392C77.6008 345.744 77.5816 345.572 77.5816 345.391C77.5816 345.037 77.6968 344.732 77.9271 344.474C78.1574 344.216 78.4645 344.092 78.8484 344.092C79.5873 344.092 80.0672 344.655 80.0672 345.352C80.0672 345.954 79.7217 346.432 78.9539 347.234L76.6987 349.622V349.813H81.1036V349.144H78.119ZM86.2626 347.817C86.2626 346.642 85.3797 345.973 84.42 345.878L86.0994 343.729V343.509H82.2991V344.197H84.919L83.2588 346.308V346.527H83.8826C84.9094 346.527 85.4852 347.014 85.4852 347.826C85.4852 348.667 84.8806 349.23 84.0073 349.23C83.2876 349.23 82.8077 348.839 82.3951 348.237L81.8672 348.609C82.2895 349.374 83.0476 349.918 84.0162 349.918C85.2165 349.918 86.2626 349.087 86.2626 347.817ZM91.4263 347.817C91.4263 346.642 90.5434 345.973 89.5837 345.878L91.2632 343.729V343.509H87.4628V344.197H90.0828L88.4225 346.308V346.527H89.0463C90.0732 346.527 90.649 347.014 90.649 347.826C90.649 348.667 90.0444 349.23 89.1711 349.23C88.4513 349.23 87.9715 348.839 87.5588 348.237L87.031 348.609C87.4532 349.374 88.2114 349.918 89.1807 349.918C90.3803 349.918 91.4263 349.087 91.4263 347.817ZM93.7227 349.144L95.1238 347.673C95.6996 347.072 96.0259 346.69 96.2658 346.155C96.3906 345.887 96.4482 345.61 96.4482 345.314C96.4482 344.244 95.6132 343.404 94.452 343.404C93.2141 343.404 92.4079 344.359 92.4079 345.362C92.4079 345.563 92.4271 345.744 92.4751 345.916H93.2428C93.2045 345.744 93.1853 345.572 93.1853 345.391C93.1853 345.037 93.3004 344.732 93.5307 344.474C93.7611 344.216 94.0682 344.092 94.452 344.092C95.191 344.092 95.6708 344.655 95.6708 345.352C95.6708 345.954 95.3253 346.432 94.5576 347.234L92.3024 349.622V349.813H96.7073V349.144H93.7227ZM100.698 347.31C100.698 348.963 101.744 349.918 103.222 349.918C104.671 349.918 105.727 348.963 105.727 347.31V343.509H104.978V347.358C104.978 348.581 104.259 349.23 103.222 349.23C102.176 349.23 101.447 348.581 101.447 347.358V343.509H100.698V347.31ZM106.874 348.562C107.373 349.402 108.218 349.918 109.206 349.918C110.387 349.918 111.251 349.202 111.251 348.161C111.251 347.349 110.771 346.89 109.773 346.403L109.072 346.069C108.573 345.83 108.343 345.706 108.18 345.467C108.093 345.343 108.055 345.19 108.055 345.009C108.055 344.426 108.554 344.092 109.178 344.092C109.753 344.092 110.281 344.378 110.627 344.884L111.174 344.474C110.761 343.834 110.032 343.404 109.187 343.404C108.151 343.404 107.277 344.063 107.277 345.047C107.277 345.887 107.834 346.327 108.707 346.737L109.418 347.072C110.128 347.416 110.473 347.607 110.473 348.18C110.473 348.82 109.955 349.23 109.197 349.23C108.496 349.23 107.901 348.867 107.431 348.151L106.874 348.562ZM112.706 349.813H114.587C116.708 349.813 118.032 348.466 118.032 346.651C118.032 344.818 116.708 343.509 114.587 343.509H112.706V349.813ZM113.454 349.144V344.178H114.577C116.257 344.178 117.255 345.2 117.255 346.651C117.255 348.084 116.247 349.144 114.577 349.144H113.454ZM120.736 349.813H121.484V344.178H123.72V343.509H118.509V344.178H120.736V349.813Z" fill="#DCE6EF"/>
<path d="M149.952 339.579H132.129C130.615 339.579 129.387 340.801 129.387 342.308V351.859C129.387 353.367 130.615 354.588 132.129 354.588H149.952C151.466 354.588 152.694 353.367 152.694 351.859V342.308C152.694 340.801 151.466 339.579 149.952 339.579Z" fill="#213345"/>
<path d="M21.0807 296.598H330.919V295.233H21.0807V296.598ZM334.347 300.009V361.411H335.718V300.009H334.347ZM330.919 364.822H21.0807V366.187H330.919V364.822ZM17.6533 361.411V300.009H16.2823V361.411H17.6533ZM21.0807 364.822C19.1878 364.822 17.6533 363.295 17.6533 361.411H16.2823C16.2823 364.049 18.4307 366.187 21.0807 366.187V364.822ZM334.347 361.411C334.347 363.295 332.812 364.822 330.919 364.822V366.187C333.57 366.187 335.718 364.049 335.718 361.411H334.347ZM330.919 296.598C332.812 296.598 334.347 298.125 334.347 300.009H335.718C335.718 297.372 333.57 295.233 330.919 295.233V296.598ZM21.0807 295.233C18.4307 295.233 16.2823 297.372 16.2823 300.009H17.6533C17.6533 298.125 19.1878 296.598 21.0807 296.598V295.233Z" fill="#324D68"/>
<path d="M162.29 265.897C162.29 261.376 165.973 257.71 170.516 257.71H181.484C186.027 257.71 189.71 261.376 189.71 265.897V276.813C189.71 281.334 186.027 285 181.484 285H170.516C165.973 285 162.29 281.334 162.29 276.813V265.897Z" fill="#213345"/>
<path d="M173.95 277.666C173.82 277.666 173.69 277.619 173.587 277.516L170.153 274.098C169.954 273.9 169.954 273.573 170.153 273.375C170.352 273.177 170.681 273.177 170.879 273.375L174.314 276.793C174.512 276.991 174.512 277.318 174.314 277.516C174.211 277.612 174.081 277.666 173.95 277.666Z" fill="#F1F5F8"/>
<path d="M173.951 277.665C173.67 277.665 173.437 277.433 173.437 277.154V265.556C173.437 265.276 173.67 265.044 173.951 265.044C174.232 265.044 174.465 265.276 174.465 265.556V277.154C174.465 277.433 174.232 277.665 173.951 277.665Z" fill="#F1F5F8"/>
<path d="M181.491 269.486C181.36 269.486 181.23 269.438 181.127 269.335L177.693 265.917C177.494 265.72 177.494 265.392 177.693 265.194C177.892 264.996 178.221 264.996 178.42 265.194L181.854 268.612C182.053 268.81 182.053 269.138 181.854 269.335C181.751 269.438 181.621 269.486 181.491 269.486Z" fill="#F1F5F8"/>
<path d="M178.05 277.665C177.768 277.665 177.535 277.433 177.535 277.154V265.556C177.535 265.276 177.768 265.044 178.05 265.044C178.331 265.044 178.564 265.276 178.564 265.556V277.154C178.564 277.433 178.337 277.665 178.05 277.665Z" fill="#F1F5F8"/>
<path d="M170.516 259.757H181.484V255.663H170.516V259.757ZM187.653 265.897V276.813H191.766V265.897H187.653ZM181.484 282.953H170.516V287.046H181.484V282.953ZM164.347 276.813V265.897H160.234V276.813H164.347ZM170.516 282.953C167.109 282.953 164.347 280.204 164.347 276.813H160.234C160.234 282.464 164.838 287.046 170.516 287.046V282.953ZM187.653 276.813C187.653 280.204 184.891 282.953 181.484 282.953V287.046C187.162 287.046 191.766 282.464 191.766 276.813H187.653ZM181.484 259.757C184.891 259.757 187.653 262.505 187.653 265.897H191.766C191.766 260.245 187.162 255.663 181.484 255.663V259.757ZM170.516 255.663C164.838 255.663 160.234 260.245 160.234 265.897H164.347C164.347 262.505 167.109 259.757 170.516 259.757V255.663Z" fill="#324D68"/>
<g filter="url(#filter0_dd_906_14472)">
<path d="M16.9677 380.514C16.9677 378.253 18.8091 376.421 21.0806 376.421H330.919C333.191 376.421 335.032 378.253 335.032 380.514V405.075C335.032 407.336 333.191 409.169 330.919 409.169H21.0806C18.8091 409.169 16.9677 407.336 16.9677 405.075V380.514Z" fill="#4CAFFF"/>
<path d="M142.265 395.267C142.894 396.36 144.005 397.023 145.337 397.023C146.904 397.023 148.064 396.09 148.064 394.678C148.064 393.609 147.435 392.971 146.115 392.369L145.202 391.951C144.4 391.546 144.116 391.436 144.067 390.797C144.067 390.158 144.609 389.815 145.3 389.815C145.991 389.815 146.584 390.158 147.016 390.797L147.929 390.097C147.423 389.225 146.448 388.648 145.3 388.648C143.894 388.648 142.734 389.52 142.734 390.846C142.734 391.927 143.45 392.553 144.634 393.093L145.535 393.511C146.386 393.904 146.732 394.149 146.732 394.727C146.732 395.414 146.164 395.856 145.325 395.856C144.387 395.856 143.733 395.353 143.191 394.567L142.265 395.267ZM157.393 390.858L155.826 394.751L153.963 390.723H153.519L151.68 394.8L150.089 390.858H148.707L151.396 397.023H151.841L153.741 393.007L155.641 397.023H156.085L158.775 390.858H157.393ZM164.513 393.241C164.513 391.62 163.525 390.723 162.032 390.723C160.984 390.723 160.083 391.141 159.478 392.013L160.231 392.774C160.737 392.172 161.23 391.878 161.909 391.878C162.736 391.878 163.205 392.332 163.205 393.167V393.56H161.49C160.12 393.56 159.256 394.235 159.256 395.279C159.256 396.323 160.095 397.023 161.366 397.023C162.193 397.023 162.859 396.741 163.303 396.213V396.888H164.513V393.241ZM163.205 394.604C163.205 395.427 162.514 396.028 161.638 396.028C161.008 396.028 160.576 395.734 160.576 395.23C160.576 394.739 160.959 394.493 161.65 394.493H163.205V394.604ZM172.608 393.867C172.608 392.086 171.35 390.723 169.634 390.723C168.746 390.723 167.969 391.079 167.525 391.706V390.858H166.315V399.098H167.611V396.151C168.092 396.704 168.808 397.023 169.634 397.023C171.35 397.023 172.608 395.672 172.608 393.867ZM171.276 393.879C171.276 395.034 170.461 395.844 169.425 395.844C168.475 395.844 167.599 395.193 167.599 393.867C167.599 392.553 168.475 391.902 169.425 391.902C170.473 391.902 171.276 392.725 171.276 393.879ZM178.942 396.888H180.25V389.95H183.001V388.783H176.203V389.95H178.942V396.888ZM182.838 393.867C182.801 395.574 184.294 397.06 186.034 397.023C187.798 397.06 189.291 395.574 189.254 393.867C189.291 392.16 187.798 390.686 186.034 390.723C184.294 390.699 182.801 392.136 182.838 393.867ZM187.922 393.879C187.922 394.972 187.107 395.832 186.034 395.832C184.973 395.832 184.159 394.997 184.159 393.879C184.159 392.762 184.973 391.902 186.046 391.902C187.095 391.902 187.922 392.762 187.922 393.879ZM190.74 396.888H192.035V387.678H190.74V396.888ZM193.602 393.511L196.045 390.858H194.441L192.072 393.499L194.701 396.888H196.255L193.602 393.511ZM202.532 394.297C202.593 394.014 202.63 393.744 202.63 393.486C202.63 391.914 201.433 390.723 199.829 390.723C198.114 390.686 196.658 392.148 196.695 393.879C196.695 395.66 198.102 397.023 199.953 397.023C200.878 397.023 201.68 396.704 202.371 396.053L201.754 395.169C201.211 395.648 200.619 395.881 199.99 395.881C198.953 395.881 198.176 395.279 198.016 394.297H202.532ZM198.04 393.29C198.238 392.393 198.929 391.816 199.78 391.816C200.631 391.816 201.322 392.369 201.335 393.29H198.04ZM209.408 393.118C209.408 391.681 208.556 390.723 207.137 390.723C206.385 390.723 205.78 390.969 205.324 391.448V390.858H204.114V396.888H205.41V393.29C205.41 392.467 205.99 391.89 206.792 391.89C207.582 391.89 208.112 392.455 208.112 393.29V396.888H209.408V393.118Z" fill="white"/>
</g>
<path d="M10.1128 139.682H341.887V138.317H10.1128V139.682ZM345.314 143.093V426.906H346.685V143.093H345.314ZM341.887 430.317H10.1128V431.682H341.887V430.317ZM6.68542 426.906V143.093H5.31445V426.906H6.68542ZM10.1128 430.317C8.21992 430.317 6.68542 428.79 6.68542 426.906H5.31445C5.31445 429.544 7.46276 431.682 10.1128 431.682V430.317ZM345.314 426.906C345.314 428.79 343.78 430.317 341.887 430.317V431.682C344.537 431.682 346.685 429.544 346.685 426.906H345.314ZM341.887 139.682C343.78 139.682 345.314 141.209 345.314 143.093H346.685C346.685 140.456 344.537 138.317 341.887 138.317V139.682ZM10.1128 138.317C7.46276 138.317 5.31445 140.456 5.31445 143.093H6.68542C6.68542 141.209 8.21993 139.682 10.1128 139.682V138.317Z" fill="#324D68"/>
</g>
<g clip-path="url(#clip3_906_14472)">
<g filter="url(#filter1_dd_906_14472)">
<path d="M173.895 13.6308C173.895 10.521 176.44 8 179.58 8H507.42C510.56 8 513.105 10.521 513.105 13.6308V118.738C513.105 121.849 510.56 124.369 507.42 124.369H179.58C176.44 124.369 173.895 121.849 173.895 118.738V13.6308Z" fill="#15202B"/>
<path d="M208.006 78.1496C202.387 78.1496 197.82 73.6262 197.82 68.0611C197.82 62.496 202.387 57.9727 208.006 57.9727C213.624 57.9727 218.191 62.496 218.191 68.0611C218.191 73.6262 213.624 78.1496 208.006 78.1496ZM208.006 59.3803C203.173 59.3803 199.241 63.275 199.241 68.0611C199.241 72.8473 203.173 76.7419 208.006 76.7419C212.838 76.7419 216.77 72.8473 216.77 68.0611C216.77 63.275 212.838 59.3803 208.006 59.3803Z" fill="#75F083"/>
<path d="M206.66 71.4217C206.47 71.4217 206.29 71.3467 206.158 71.2153L203.476 68.5594C203.202 68.2873 203.202 67.8368 203.476 67.5647C203.751 67.2925 204.206 67.2925 204.481 67.5647L206.66 69.7231L211.53 64.8994C211.805 64.6273 212.26 64.6273 212.535 64.8994C212.809 65.1716 212.809 65.622 212.535 65.8942L207.162 71.2153C207.03 71.3467 206.849 71.4217 206.66 71.4217Z" fill="#75F083"/>
<path d="M235.082 44.4945C235.855 45.8308 237.219 46.6417 238.857 46.6417C240.782 46.6417 242.207 45.5005 242.207 43.7737C242.207 42.4674 241.434 41.6866 239.812 40.9509L238.69 40.4403C237.705 39.9448 237.356 39.8097 237.295 39.0289C237.295 38.2481 237.962 37.8277 238.811 37.8277C239.66 37.8277 240.388 38.2481 240.918 39.0289L242.04 38.173C241.419 37.1069 240.221 36.4012 238.811 36.4012C237.083 36.4012 235.658 37.4673 235.658 39.0889C235.658 40.4103 236.537 41.1761 237.993 41.8368L239.099 42.3473C240.145 42.8278 240.57 43.1281 240.57 43.8338C240.57 44.6747 239.872 45.2152 238.842 45.2152C237.689 45.2152 236.886 44.5996 236.219 43.6386L235.082 44.4945ZM253.669 39.104L251.744 43.8638L249.455 38.9388H248.909L246.65 43.9239L244.694 39.104H242.996L246.301 46.6417H246.847L249.182 41.7317L251.516 46.6417H252.062L255.367 39.104H253.669ZM262.416 42.0169C262.416 40.0349 261.204 38.9388 259.369 38.9388C258.081 38.9388 256.974 39.4493 256.231 40.5154L257.156 41.4464C257.777 40.7106 258.384 40.3502 259.218 40.3502C260.233 40.3502 260.809 40.9058 260.809 41.9269V42.4073H258.702C257.019 42.4073 255.958 43.2332 255.958 44.5095C255.958 45.7858 256.989 46.6417 258.551 46.6417C259.566 46.6417 260.385 46.2963 260.931 45.6507V46.4765H262.416V42.0169ZM260.809 43.6836C260.809 44.6897 259.96 45.4254 258.884 45.4254C258.111 45.4254 257.58 45.0651 257.58 44.4494C257.58 43.8488 258.05 43.5485 258.899 43.5485H260.809V43.6836ZM272.364 42.7827C272.364 40.6055 270.817 38.9388 268.71 38.9388C267.618 38.9388 266.663 39.3742 266.118 40.14V39.104H264.632V49.1793H266.224V45.5756C266.815 46.2513 267.694 46.6417 268.71 46.6417C270.817 46.6417 272.364 44.99 272.364 42.7827ZM270.726 42.7977C270.726 44.2092 269.726 45.2002 268.452 45.2002C267.285 45.2002 266.208 44.4044 266.208 42.7827C266.208 41.1761 267.285 40.3803 268.452 40.3803C269.741 40.3803 270.726 41.3863 270.726 42.7977ZM285.54 43.3833H284.175V40.3352H282.568V43.3833H279.582L282.417 36.5664H280.764L277.565 44.3143V44.7497H282.568V46.4765H284.175V44.7497H285.54V43.3833ZM287.042 45.4855C287.042 46.1462 287.572 46.6417 288.239 46.6417C288.906 46.6417 289.407 46.1462 289.407 45.4855C289.407 44.8098 288.906 44.3143 288.239 44.3143C287.572 44.3143 287.042 44.8248 287.042 45.4855ZM297.839 43.2933C297.839 42.4374 297.582 41.7467 297.066 41.2211C296.551 40.6956 295.929 40.3653 295.186 40.2451L297.612 37.0018V36.5664H291.381V38.0229H295.111L292.776 41.131V41.5665H293.883C295.353 41.5665 296.187 42.1821 296.187 43.3083C296.187 44.4344 295.338 45.1852 294.14 45.1852C293.109 45.1852 292.397 44.6296 291.79 43.7137L290.669 44.4945C291.336 45.7708 292.564 46.6417 294.186 46.6417C296.157 46.6417 297.839 45.3053 297.839 43.2933ZM302.073 45.0951L303.831 43.2482C304.529 42.5125 305.059 41.8818 305.408 41.3262C305.772 40.7707 305.954 40.155 305.954 39.4793C305.954 37.7376 304.544 36.4012 302.634 36.4012C300.587 36.4012 299.268 37.9478 299.268 39.5694C299.268 39.8697 299.299 40.155 299.374 40.4253H300.997C300.951 40.125 300.921 39.8697 300.921 39.6595C300.921 38.6385 301.603 37.8577 302.619 37.8577C303.634 37.8577 304.286 38.5934 304.286 39.5995C304.286 40.4403 303.801 41.1611 302.694 42.3173L299.132 46.1161V46.4765H306.303V45.0951H302.073ZM310.748 45.0951L312.507 43.2482C313.204 42.5125 313.735 41.8818 314.084 41.3262C314.447 40.7707 314.629 40.155 314.629 39.4793C314.629 37.7376 313.219 36.4012 311.309 36.4012C309.263 36.4012 307.944 37.9478 307.944 39.5694C307.944 39.8697 307.974 40.155 308.05 40.4253H309.672C309.626 40.125 309.596 39.8697 309.596 39.6595C309.596 38.6385 310.278 37.8577 311.294 37.8577C312.31 37.8577 312.962 38.5934 312.962 39.5995C312.962 40.4403 312.477 41.1611 311.37 42.3173L307.807 46.1161V46.4765H314.978V45.0951H310.748ZM319.424 45.0951L321.182 43.2482C321.88 42.5125 322.41 41.8818 322.759 41.3262C323.123 40.7707 323.305 40.155 323.305 39.4793C323.305 37.7376 321.895 36.4012 319.985 36.4012C317.938 36.4012 316.619 37.9478 316.619 39.5694C316.619 39.8697 316.649 40.155 316.725 40.4253H318.347C318.302 40.125 318.272 39.8697 318.272 39.6595C318.272 38.6385 318.954 37.8577 319.97 37.8577C320.985 37.8577 321.637 38.5934 321.637 39.5995C321.637 40.4403 321.152 41.1611 320.045 42.3173L316.483 46.1161V46.4765H323.653V45.0951H319.424ZM328.296 36.5664L324.825 37.6925L325.219 39.0889L327.25 38.4433V46.4765H328.857V36.5664H328.296ZM344.001 46.4765L341 42.3923C342.197 41.9268 342.925 40.9058 342.925 39.5995C342.925 37.8126 341.545 36.5664 339.529 36.5664H335.875V46.4765H337.482V42.6476H339.317L342.167 46.4765H344.001ZM337.482 37.9778H339.499C340.605 37.9778 341.273 38.6385 341.273 39.6145C341.273 40.5755 340.605 41.2361 339.499 41.2361H337.482V37.9778ZM344.611 41.5214C344.565 44.3593 346.96 46.6867 349.886 46.6417C351.903 46.6417 353.661 45.6056 354.556 44.029V41.2361H349.871V42.6476H352.949V43.7137C352.327 44.6596 351.281 45.2152 349.962 45.2152C347.809 45.2152 346.278 43.6236 346.278 41.5064C346.278 39.4193 347.764 37.8577 349.871 37.8577C351.114 37.8577 352.115 38.3832 352.858 39.4193L354.025 38.4733C353.07 37.152 351.63 36.4012 349.886 36.4012C346.991 36.3561 344.55 38.6835 344.611 41.5214ZM356.528 46.4765H358.135V42.6476H360.182C362.198 42.6476 363.578 41.3713 363.578 39.5995C363.578 37.8126 362.198 36.5664 360.182 36.5664H356.528V46.4765ZM358.135 41.2361V37.9778H360.152C361.289 37.9778 361.925 38.6385 361.925 39.6145C361.925 40.5905 361.289 41.2361 360.152 41.2361H358.135ZM370.915 37.7526C370.915 36.8066 371.401 36.4763 372.371 36.4763C372.553 36.4763 372.765 36.4913 373.008 36.5213V35.1849C372.72 35.0949 372.386 35.0498 371.977 35.0498C370.339 35.0498 369.324 35.8907 369.324 37.6174V39.104H368.262V40.4704H369.324V46.4765H370.915V40.4704H372.674V39.104H370.915V37.7526ZM373.466 42.7827C373.421 44.8699 375.255 46.6867 377.393 46.6417C379.561 46.6867 381.395 44.8699 381.349 42.7827C381.395 40.6956 379.561 38.8937 377.393 38.9388C375.255 38.9088 373.421 40.6656 373.466 42.7827ZM379.712 42.7977C379.712 44.1341 378.712 45.1852 377.393 45.1852C376.089 45.1852 375.088 44.1641 375.088 42.7977C375.088 41.4313 376.089 40.3803 377.408 40.3803C378.696 40.3803 379.712 41.4313 379.712 42.7977ZM387.434 39.104C387.253 39.0589 387.055 39.0289 386.828 39.0289C385.979 39.0289 385.191 39.4043 384.66 40.0649V39.104H383.174V46.4765H384.766V42.5425C384.766 41.2361 385.691 40.5004 386.949 40.5004H387.434V39.104ZM395.595 45.0951L397.354 43.2482C398.051 42.5125 398.582 41.8818 398.931 41.3262C399.294 40.7707 399.476 40.155 399.476 39.4793C399.476 37.7376 398.066 36.4012 396.156 36.4012C394.11 36.4012 392.791 37.9478 392.791 39.5694C392.791 39.8697 392.821 40.155 392.897 40.4253H394.519C394.474 40.125 394.443 39.8697 394.443 39.6595C394.443 38.6385 395.125 37.8577 396.141 37.8577C397.157 37.8577 397.809 38.5934 397.809 39.5995C397.809 40.4403 397.324 41.1611 396.217 42.3173L392.654 46.1161V46.4765H399.825V45.0951H395.595ZM401.572 45.4855C401.572 46.1462 402.103 46.6417 402.77 46.6417C403.437 46.6417 403.937 46.1462 403.937 45.4855C403.937 44.8098 403.437 44.3143 402.77 44.3143C402.103 44.3143 401.572 44.8248 401.572 45.4855ZM412.37 43.2933C412.37 42.4374 412.112 41.7467 411.597 41.2211C411.082 40.6956 410.46 40.3653 409.717 40.2451L412.143 37.0018V36.5664H405.912V38.0229H409.641L407.307 41.131V41.5665H408.413C409.884 41.5665 410.718 42.1821 410.718 43.3083C410.718 44.4344 409.869 45.1852 408.671 45.1852C407.64 45.1852 406.928 44.6296 406.321 43.7137L405.199 44.4945C405.866 45.7708 407.094 46.6417 408.717 46.6417C410.687 46.6417 412.37 45.3053 412.37 43.2933ZM421.36 43.3833H419.996V40.3352H418.389V43.3833H415.402L418.237 36.5664H416.585L413.386 44.3143V44.7497H418.389V46.4765H419.996V44.7497H421.36V43.3833ZM429.357 43.2782C429.357 41.2812 427.735 40.1851 425.946 40.1851C425.491 40.1851 425.067 40.2301 424.673 40.3202V37.9928H428.796V36.5664H423.096V41.5515H425.4C426.871 41.5515 427.705 42.1821 427.705 43.3083C427.705 44.4494 426.825 45.1852 425.628 45.1852C424.551 45.1852 423.809 44.6296 423.202 43.7137L422.08 44.5095C422.763 45.7858 424.021 46.6417 425.673 46.6417C427.659 46.6417 429.357 45.2753 429.357 43.2782ZM437.826 43.2782C437.826 41.2812 436.204 40.1851 434.415 40.1851C433.96 40.1851 433.536 40.2301 433.142 40.3202V37.9928H437.265V36.5664H431.565V41.5515H433.869C435.34 41.5515 436.174 42.1821 436.174 43.3083C436.174 44.4494 435.294 45.1852 434.097 45.1852C433.02 45.1852 432.277 44.6296 431.671 43.7137L430.549 44.5095C431.231 45.7858 432.49 46.6417 434.142 46.6417C436.128 46.6417 437.826 45.2753 437.826 43.2782ZM235.688 64.9905C235.688 67.6032 237.416 69.1648 239.812 69.1648C242.162 69.1648 243.905 67.6032 243.905 64.9905V59.0894H242.298V65.0956C242.298 66.7773 241.267 67.7083 239.812 67.7083C238.341 67.7083 237.295 66.7773 237.295 65.0956V59.0894H235.688V64.9905ZM245.534 67.0176C246.307 68.3539 247.672 69.1648 249.309 69.1648C251.234 69.1648 252.659 68.0236 252.659 66.2968C252.659 64.9905 251.886 64.2097 250.264 63.4739L249.142 62.9634C248.157 62.4679 247.808 62.3328 247.747 61.552C247.747 60.7712 248.415 60.3507 249.264 60.3507C250.112 60.3507 250.84 60.7712 251.371 61.552L252.493 60.6961C251.871 59.63 250.673 58.9243 249.264 58.9243C247.535 58.9243 246.11 59.9904 246.11 61.612C246.11 62.9334 246.989 63.6992 248.445 64.3598L249.552 64.8704C250.598 65.3508 251.022 65.6512 251.022 66.3569C251.022 67.1977 250.325 67.7383 249.294 67.7383C248.142 67.7383 247.338 67.1227 246.671 66.1617L245.534 67.0176ZM254.715 68.9996H257.853C261.113 68.9996 263.296 66.9124 263.296 64.0295C263.296 61.1015 261.128 59.0894 257.853 59.0894H254.715V68.9996ZM256.322 67.5731V60.5309H257.838C260.173 60.5309 261.643 61.9273 261.643 64.0295C261.643 66.1016 260.158 67.5731 257.838 67.5731H256.322ZM267.34 68.9996H268.947V60.5159H272.328V59.0894H263.974V60.5159H267.34V68.9996Z" fill="#F1F5F8"/>
<path d="M242.434 89.1209L239.554 96.013L236.673 89.1209H234.869L239.281 99.1962H239.827L244.238 89.1209H242.434ZM245.726 99.0311H247.318V91.6585H245.726V99.0311ZM245.438 88.9107C245.438 89.4963 245.923 89.9468 246.529 89.9468C247.121 89.9468 247.606 89.4963 247.606 88.9107C247.606 88.3251 247.121 87.8596 246.529 87.8596C245.923 87.8596 245.438 88.3251 245.438 88.9107ZM256.32 95.8628C256.396 95.5175 256.442 95.1871 256.442 94.8718C256.442 92.9498 254.971 91.4934 253 91.4934C250.893 91.4483 249.104 93.2351 249.149 95.3523C249.149 97.5295 250.878 99.1962 253.152 99.1962C254.289 99.1962 255.274 98.8058 256.123 98.01L255.365 96.9289C254.698 97.5145 253.97 97.7998 253.197 97.7998C251.924 97.7998 250.969 97.0641 250.772 95.8628H256.32ZM250.802 94.6316C251.044 93.5354 251.893 92.8297 252.94 92.8297C253.986 92.8297 254.835 93.5054 254.85 94.6316H250.802ZM267.778 91.6585L265.853 96.4184L263.564 91.4934H263.018L260.759 96.4785L258.803 91.6585H257.105L260.41 99.1962H260.956L263.291 94.2862L265.625 99.1962H266.171L269.476 91.6585H267.778ZM274.688 95.3373C274.642 97.4244 276.477 99.2413 278.614 99.1962C280.782 99.2413 282.617 97.4244 282.571 95.3373C282.617 93.2502 280.782 91.4483 278.614 91.4934C276.477 91.4633 274.642 93.2201 274.688 95.3373ZM280.934 95.3523C280.934 96.6887 279.933 97.7398 278.614 97.7398C277.31 97.7398 276.31 96.7187 276.31 95.3523C276.31 93.9859 277.31 92.9348 278.629 92.9348C279.918 92.9348 280.934 93.9859 280.934 95.3523ZM290.9 94.4213C290.9 92.6645 289.854 91.4934 288.11 91.4934C287.185 91.4934 286.443 91.7937 285.882 92.3793V91.6585H284.396V99.0311H285.988V94.6316C285.988 93.6255 286.7 92.9198 287.686 92.9198C288.656 92.9198 289.308 93.6105 289.308 94.6316V99.0311H290.9V94.4213ZM297.472 99.0311H304.233V97.6046H299.079V94.4664H302.823V93.085H299.079V90.5474H304.051V89.1209H297.472V99.0311ZM310.275 97.6947C309.836 97.7397 309.517 97.7698 309.29 97.7698C308.32 97.7698 307.819 97.4394 307.819 96.4935V93.0249H310.033V91.6585H307.819V89.7215H306.212V91.6585H305V93.0249H306.212V96.6286C306.212 98.3554 307.243 99.1962 308.956 99.1962C309.335 99.1962 309.775 99.1362 310.275 99.0311V97.6947ZM318.393 94.4213C318.393 92.6796 317.332 91.4934 315.634 91.4934C314.739 91.4934 313.981 91.8087 313.481 92.3943V87.7695H311.889V99.0311H313.481V94.6466C313.481 93.6406 314.193 92.9348 315.179 92.9348C316.164 92.9348 316.801 93.6255 316.801 94.6466V99.0311H318.393V94.4213ZM327.31 95.8628C327.386 95.5175 327.431 95.1871 327.431 94.8718C327.431 92.9498 325.961 91.4934 323.99 91.4934C321.882 91.4483 320.094 93.2351 320.139 95.3523C320.139 97.5295 321.867 99.1962 324.141 99.1962C325.278 99.1962 326.264 98.8058 327.113 98.01L326.355 96.9289C325.688 97.5145 324.96 97.7998 324.187 97.7998C322.913 97.7998 321.958 97.0641 321.761 95.8628H327.31ZM321.791 94.6316C322.034 93.5354 322.883 92.8297 323.929 92.8297C324.975 92.8297 325.824 93.5054 325.839 94.6316H321.791ZM333.515 91.6585C333.333 91.6135 333.136 91.5834 332.909 91.5834C332.06 91.5834 331.271 91.9588 330.741 92.6195V91.6585H329.255V99.0311H330.847V95.097C330.847 93.7907 331.772 93.055 333.03 93.055H333.515V91.6585ZM334.243 97.7698C334.91 98.6257 335.971 99.1962 337.244 99.1962C338.033 99.1962 338.685 99.001 339.215 98.6106C339.746 98.2052 340.004 97.6497 340.004 96.9439C340.004 95.9079 339.382 95.3073 337.972 94.7217L337.26 94.4364C336.532 94.1361 336.274 93.9409 336.274 93.5655C336.274 93.1 336.668 92.8598 337.29 92.8598C337.942 92.8598 338.563 93.13 339.033 93.6105L339.897 92.6345C339.246 91.8687 338.397 91.4934 337.32 91.4934C335.804 91.4934 334.698 92.3042 334.698 93.6255C334.698 94.6616 335.319 95.2322 336.638 95.7727L337.396 96.0881C338.124 96.3884 338.442 96.5685 338.442 97.004C338.442 97.5445 337.927 97.8298 337.244 97.8298C336.456 97.8298 335.804 97.4545 335.152 96.7788L334.243 97.7698ZM341.369 95.3373C341.369 97.4845 343.112 99.1962 345.311 99.1962C346.66 99.1962 347.782 98.5506 348.449 97.4845L347.327 96.6286C346.781 97.3644 346.114 97.7398 345.326 97.7398C343.992 97.7398 342.991 96.6887 342.991 95.3373C342.991 94.0009 343.992 92.9498 345.326 92.9498C346.129 92.9498 346.796 93.3252 347.327 94.076L348.449 93.2051C347.797 92.139 346.69 91.4934 345.311 91.4934C343.173 91.4633 341.324 93.2201 341.369 95.3373ZM356.116 94.5715C356.116 92.5895 354.903 91.4934 353.069 91.4934C351.78 91.4934 350.674 92.0039 349.931 93.07L350.855 94.0009C351.477 93.2652 352.083 92.9048 352.917 92.9048C353.933 92.9048 354.509 93.4604 354.509 94.4814V94.9619H352.402C350.719 94.9619 349.658 95.7878 349.658 97.0641C349.658 98.3404 350.689 99.1962 352.25 99.1962C353.266 99.1962 354.085 98.8509 354.63 98.2052V99.0311H356.116V94.5715ZM354.509 96.2382C354.509 97.2442 353.66 97.98 352.584 97.98C351.811 97.98 351.28 97.6196 351.28 97.004C351.28 96.4034 351.75 96.1031 352.599 96.1031H354.509V96.2382ZM364.835 94.4213C364.835 92.6645 363.79 91.4934 362.047 91.4934C361.122 91.4934 360.379 91.7937 359.818 92.3793V91.6585H358.332V99.0311H359.924V94.6316C359.924 93.6255 360.637 92.9198 361.622 92.9198C362.592 92.9198 363.244 93.6105 363.244 94.6316V99.0311H364.835V94.4213Z" fill="#4CAFFF"/>
<path d="M483.893 37.637C483.713 37.637 483.533 37.5713 483.391 37.4305C483.116 37.1583 483.116 36.7079 483.391 36.4357L488.754 31.124C489.029 30.8519 489.483 30.8519 489.758 31.124C490.033 31.3962 490.033 31.8467 489.758 32.1188L484.395 37.4305C484.263 37.5713 484.073 37.637 483.893 37.637Z" fill="#DCE6EF"/>
<path d="M489.256 37.637C489.076 37.637 488.896 37.5713 488.754 37.4305L483.391 32.1188C483.116 31.8467 483.116 31.3962 483.391 31.124C483.666 30.8519 484.12 30.8519 484.395 31.124L489.758 36.4357C490.033 36.7079 490.033 37.1583 489.758 37.4305C489.616 37.5713 489.436 37.637 489.256 37.637Z" fill="#DCE6EF"/>
<path d="M489.417 44.3654H483.732C478.587 44.3654 476.389 42.1882 476.389 37.0923V31.4616C476.389 26.3657 478.587 24.1885 483.732 24.1885H489.417C494.562 24.1885 496.76 26.3657 496.76 31.4616V37.0923C496.76 42.1882 494.562 44.3654 489.417 44.3654ZM483.732 25.5962C479.364 25.5962 477.81 27.1352 477.81 31.4616V37.0923C477.81 41.4186 479.364 42.9577 483.732 42.9577H489.417C493.785 42.9577 495.339 41.4186 495.339 37.0923V31.4616C495.339 27.1352 493.785 25.5962 489.417 25.5962H483.732Z" fill="#DCE6EF"/>
<path d="M179.58 8.93845H507.42V7.06152H179.58V8.93845ZM512.157 13.6308V118.738H514.052V13.6308H512.157ZM507.42 123.431H179.58V125.308H507.42V123.431ZM174.843 118.738V13.6308H172.948V118.738H174.843ZM179.58 123.431C176.964 123.431 174.843 121.33 174.843 118.738H172.948C172.948 122.367 175.917 125.308 179.58 125.308V123.431ZM512.157 118.738C512.157 121.33 510.036 123.431 507.42 123.431V125.308C511.083 125.308 514.052 122.367 514.052 118.738H512.157ZM507.42 8.93845C510.036 8.93845 512.157 11.0393 512.157 13.6308H514.052C514.052 10.0027 511.083 7.06152 507.42 7.06152V8.93845ZM179.58 7.06152C175.917 7.06152 172.948 10.0027 172.948 13.6308H174.843C174.843 11.0393 176.964 8.93845 179.58 8.93845V7.06152Z" fill="#324D68"/>
</g>
</g>
</g>
<defs>
<filter id="filter0_dd_906_14472" x="8.96765" y="374.421" width="334.065" height="50.748" filterUnits="userSpaceOnUse" color-interpolation-filters="sRGB">
<feFlood flood-opacity="0" result="BackgroundImageFix"/>
<feColorMatrix in="SourceAlpha" type="matrix" values="0 0 0 0 0 0 0 0 0 0 0 0 0 0 0 0 0 0 127 0" result="hardAlpha"/>
<feOffset dy="8"/>
<feGaussianBlur stdDeviation="4"/>
<feColorMatrix type="matrix" values="0 0 0 0 0.0941176 0 0 0 0 0.152941 0 0 0 0 0.294118 0 0 0 0.08 0"/>
<feBlend mode="normal" in2="BackgroundImageFix" result="effect1_dropShadow_906_14472"/>
<feColorMatrix in="SourceAlpha" type="matrix" values="0 0 0 0 0 0 0 0 0 0 0 0 0 0 0 0 0 0 127 0" result="hardAlpha"/>
<feOffset dy="4"/>
<feGaussianBlur stdDeviation="3"/>
<feColorMatrix type="matrix" values="0 0 0 0 0.0941176 0 0 0 0 0.152941 0 0 0 0 0.294118 0 0 0 0.12 0"/>
<feBlend mode="normal" in2="effect1_dropShadow_906_14472" result="effect2_dropShadow_906_14472"/>
<feBlend mode="normal" in="SourceGraphic" in2="effect2_dropShadow_906_14472" result="shape"/>
</filter>
<filter id="filter1_dd_906_14472" x="168.948" y="5.06152" width="349.105" height="128.246" filterUnits="userSpaceOnUse" color-interpolation-filters="sRGB">
<feFlood flood-opacity="0" result="BackgroundImageFix"/>
<feColorMatrix in="SourceAlpha" type="matrix" values="0 0 0 0 0 0 0 0 0 0 0 0 0 0 0 0 0 0 127 0" result="hardAlpha"/>
<feOffset dy="4"/>
<feGaussianBlur stdDeviation="2"/>
<feColorMatrix type="matrix" values="0 0 0 0 0.69697 0 0 0 0 0.757576 0 0 0 0 0.903031 0 0 0 0.08 0"/>
<feBlend mode="normal" in2="BackgroundImageFix" result="effect1_dropShadow_906_14472"/>
<feColorMatrix in="SourceAlpha" type="matrix" values="0 0 0 0 0 0 0 0 0 0 0 0 0 0 0 0 0 0 127 0" result="hardAlpha"/>
<feOffset dy="2"/>
<feGaussianBlur stdDeviation="2"/>
<feColorMatrix type="matrix" values="0 0 0 0 0.69697 0 0 0 0 0.757576 0 0 0 0 0.903031 0 0 0 0.12 0"/>
<feBlend mode="normal" in2="effect1_dropShadow_906_14472" result="effect2_dropShadow_906_14472"/>
<feBlend mode="normal" in="SourceGraphic" in2="effect2_dropShadow_906_14472" result="shape"/>
</filter>
<linearGradient id="paint0_linear_906_14472" x1="425.696" y1="311.883" x2="411.071" y2="312.088" gradientUnits="userSpaceOnUse">
<stop stop-color="#40BAD5"/>
<stop offset="1" stop-color="#035AA6"/>
</linearGradient>
<linearGradient id="paint1_linear_906_14472" x1="419.487" y1="310.614" x2="416.633" y2="302.188" gradientUnits="userSpaceOnUse">
<stop stop-color="#40BAD5"/>
<stop offset="1" stop-color="#035AA6"/>
</linearGradient>
<linearGradient id="paint2_linear_906_14472" x1="418.436" y1="310.284" x2="412.737" y2="301.768" gradientUnits="userSpaceOnUse">
<stop stop-color="#40BAD5"/>
<stop offset="1" stop-color="#035AA6"/>
</linearGradient>
<linearGradient id="paint3_linear_906_14472" x1="416.815" y1="311.367" x2="411.117" y2="302.852" gradientUnits="userSpaceOnUse">
<stop stop-color="#40BAD5"/>
<stop offset="1" stop-color="#035AA6"/>
</linearGradient>
<linearGradient id="paint4_linear_906_14472" x1="417.625" y1="310.826" x2="411.927" y2="302.31" gradientUnits="userSpaceOnUse">
<stop stop-color="#40BAD5"/>
<stop offset="1" stop-color="#035AA6"/>
</linearGradient>
<linearGradient id="paint5_linear_906_14472" x1="267.47" y1="204.425" x2="257.564" y2="204.564" gradientUnits="userSpaceOnUse">
<stop stop-color="#40BAD5"/>
<stop offset="1" stop-color="#035AA6"/>
</linearGradient>
<linearGradient id="paint6_linear_906_14472" x1="263.264" y1="203.573" x2="261.361" y2="197.904" gradientUnits="userSpaceOnUse">
<stop stop-color="#40BAD5"/>
<stop offset="1" stop-color="#035AA6"/>
</linearGradient>
<linearGradient id="paint7_linear_906_14472" x1="262.553" y1="203.351" x2="258.738" y2="197.602" gradientUnits="userSpaceOnUse">
<stop stop-color="#40BAD5"/>
<stop offset="1" stop-color="#035AA6"/>
</linearGradient>
<linearGradient id="paint8_linear_906_14472" x1="261.455" y1="204.079" x2="257.64" y2="198.33" gradientUnits="userSpaceOnUse">
<stop stop-color="#40BAD5"/>
<stop offset="1" stop-color="#035AA6"/>
</linearGradient>
<linearGradient id="paint9_linear_906_14472" x1="262.003" y1="203.715" x2="258.188" y2="197.966" gradientUnits="userSpaceOnUse">
<stop stop-color="#40BAD5"/>
<stop offset="1" stop-color="#035AA6"/>
</linearGradient>
<linearGradient id="paint10_linear_906_14472" x1="261.301" y1="323.135" x2="251.395" y2="323.275" gradientUnits="userSpaceOnUse">
<stop stop-color="#40BAD5"/>
<stop offset="1" stop-color="#035AA6"/>
</linearGradient>
<linearGradient id="paint11_linear_906_14472" x1="257.095" y1="322.283" x2="255.192" y2="316.614" gradientUnits="userSpaceOnUse">
<stop stop-color="#40BAD5"/>
<stop offset="1" stop-color="#035AA6"/>
</linearGradient>
<linearGradient id="paint12_linear_906_14472" x1="256.383" y1="322.061" x2="252.568" y2="316.312" gradientUnits="userSpaceOnUse">
<stop stop-color="#40BAD5"/>
<stop offset="1" stop-color="#035AA6"/>
</linearGradient>
<linearGradient id="paint13_linear_906_14472" x1="255.286" y1="322.789" x2="251.471" y2="317.04" gradientUnits="userSpaceOnUse">
<stop stop-color="#40BAD5"/>
<stop offset="1" stop-color="#035AA6"/>
</linearGradient>
<linearGradient id="paint14_linear_906_14472" x1="255.834" y1="322.425" x2="252.019" y2="316.676" gradientUnits="userSpaceOnUse">
<stop stop-color="#40BAD5"/>
<stop offset="1" stop-color="#035AA6"/>
</linearGradient>
<clipPath id="clip0_906_14472">
<rect width="510" height="431" fill="white"/>
</clipPath>
<clipPath id="clip1_906_14472">
<rect width="340" height="480.69" fill="white" transform="translate(381 220)"/>
</clipPath>
<clipPath id="clip2_906_14472">
<rect x="6" y="139" width="340" height="292" rx="6" fill="white"/>
</clipPath>
<clipPath id="clip3_906_14472">
<rect width="343" height="118" fill="white" transform="translate(172 8)"/>
</clipPath>
</defs>
</svg>
