<svg width="28" height="28" viewBox="0 0 28 28" fill="none" xmlns="http://www.w3.org/2000/svg">
<path d="M14.0001 26.8332C11.8223 26.8332 9.7223 26.1915 7.70008 24.9082C5.67786 23.6248 4.08341 22.1568 2.91675 20.504V23.6248C2.91675 23.8776 2.83411 24.0866 2.66883 24.2519C2.50355 24.4172 2.29453 24.4998 2.04175 24.4998C1.78897 24.4998 1.57994 24.4172 1.41466 24.2519C1.24939 24.0866 1.16675 23.8776 1.16675 23.6248V18.3748C1.16675 18.1221 1.24939 17.913 1.41466 17.7478C1.57994 17.5825 1.78897 17.4998 2.04175 17.4998H7.29175C7.54453 17.4998 7.75355 17.5825 7.91883 17.7478C8.08411 17.913 8.16675 18.1221 8.16675 18.3748C8.16675 18.6276 8.08411 18.8366 7.91883 19.0019C7.75355 19.1672 7.54453 19.2498 7.29175 19.2498H4.17091C5.16258 20.7471 6.57716 22.0936 8.41466 23.2894C10.2522 24.4853 12.114 25.0832 14.0001 25.0832C16.9167 25.0832 19.4348 24.0964 21.5542 22.1228C23.6737 20.1491 24.8404 17.7332 25.0542 14.8748C25.0737 14.6221 25.166 14.413 25.3313 14.2478C25.4966 14.0825 25.7056 13.9998 25.9584 13.9998C26.2112 13.9998 26.4202 14.0873 26.5855 14.2623C26.7508 14.4373 26.8237 14.6415 26.8042 14.8748C26.6876 16.5471 26.2744 18.1075 25.5647 19.5561C24.8549 21.0047 23.9265 22.2686 22.7792 23.3478C21.632 24.4269 20.3049 25.2776 18.798 25.8998C17.291 26.5221 15.6917 26.8332 14.0001 26.8332ZM2.04175 13.9998C1.78897 13.9998 1.57994 13.9123 1.41466 13.7373C1.24939 13.5623 1.17647 13.3582 1.19591 13.1248C1.31258 11.4526 1.72578 9.8922 2.4355 8.44359C3.14522 6.99498 4.07369 5.73109 5.22091 4.65192C6.36814 3.57275 7.69522 2.72206 9.20216 2.09984C10.7091 1.47761 12.3084 1.1665 14.0001 1.1665C16.1779 1.1665 18.2779 1.80817 20.3001 3.0915C22.3223 4.37484 23.9167 5.84289 25.0834 7.49567V4.37484C25.0834 4.12206 25.166 3.91303 25.3313 3.74775C25.4966 3.58248 25.7056 3.49984 25.9584 3.49984C26.2112 3.49984 26.4202 3.58248 26.5855 3.74775C26.7508 3.91303 26.8334 4.12206 26.8334 4.37484V9.62484C26.8334 9.87761 26.7508 10.0866 26.5855 10.2519C26.4202 10.4172 26.2112 10.4998 25.9584 10.4998H20.7084C20.4556 10.4998 20.2466 10.4172 20.0813 10.2519C19.916 10.0866 19.8334 9.87761 19.8334 9.62484C19.8334 9.37206 19.916 9.16303 20.0813 8.99775C20.2466 8.83248 20.4556 8.74984 20.7084 8.74984H23.8292C22.8376 7.25261 21.4279 5.90609 19.6001 4.71025C17.7723 3.51442 15.9056 2.9165 14.0001 2.9165C11.0834 2.9165 8.56536 3.90331 6.44591 5.87692C4.32647 7.85053 3.1598 10.2665 2.94591 13.1248C2.92647 13.3776 2.83411 13.5866 2.66883 13.7519C2.50355 13.9172 2.29453 13.9998 2.04175 13.9998ZM13.9709 22.3707C13.757 22.3707 13.5674 22.2929 13.4022 22.1373C13.2369 21.9818 13.1542 21.7971 13.1542 21.5832V20.7957C12.4154 20.6012 11.7786 20.3047 11.2438 19.9061C10.7091 19.5075 10.2473 18.9873 9.85841 18.3457C9.7223 18.1318 9.698 17.9228 9.7855 17.7186C9.873 17.5144 10.0431 17.3637 10.2959 17.2665C10.4709 17.2082 10.6411 17.2228 10.8063 17.3103C10.9716 17.3978 11.1029 17.5193 11.2001 17.6748C11.4917 18.2387 11.9049 18.6762 12.4397 18.9873C12.9744 19.2984 13.5626 19.454 14.2042 19.454C14.9626 19.454 15.6042 19.2353 16.1292 18.7978C16.6542 18.3603 16.9167 17.8207 16.9167 17.179C16.9167 16.5568 16.6931 16.0512 16.2459 15.6623C15.7987 15.2734 14.8848 14.8165 13.5042 14.2915C12.1626 13.7859 11.2438 13.2512 10.748 12.6873C10.2522 12.1234 10.0042 11.3651 10.0042 10.4123C10.0042 9.53734 10.2911 8.80817 10.8647 8.22484C11.4383 7.6415 12.2209 7.28178 13.2126 7.14567V6.44567C13.2126 6.23178 13.2952 6.04706 13.4605 5.8915C13.6258 5.73595 13.8154 5.65817 14.0292 5.65817C14.2431 5.65817 14.4279 5.73595 14.5834 5.8915C14.739 6.04706 14.8167 6.23178 14.8167 6.44567V7.14567C15.4195 7.204 15.9591 7.36928 16.4355 7.6415C16.9119 7.91373 17.3154 8.28317 17.6459 8.74984C17.782 8.92484 17.8161 9.11928 17.748 9.33317C17.6799 9.54706 17.539 9.70261 17.3251 9.79984C17.1501 9.89706 16.9654 9.9165 16.7709 9.85817C16.5765 9.79984 16.4112 9.69289 16.2751 9.53734C16.0029 9.18734 15.682 8.92484 15.3126 8.74984C14.9431 8.57484 14.5251 8.48734 14.0584 8.48734C13.3001 8.48734 12.7022 8.65747 12.2647 8.99775C11.8272 9.33803 11.6084 9.80956 11.6084 10.4123C11.6084 11.054 11.8369 11.5741 12.2938 11.9728C12.7508 12.3714 13.5917 12.7748 14.8167 13.1832C16.1779 13.6304 17.1355 14.1554 17.6897 14.7582C18.2438 15.3609 18.5209 16.1679 18.5209 17.179C18.5209 18.1901 18.1855 19.0214 17.5147 19.6728C16.8438 20.3241 15.9251 20.7179 14.7584 20.854V21.554C14.7584 21.7679 14.6806 21.9575 14.5251 22.1228C14.3695 22.288 14.1848 22.3707 13.9709 22.3707Z" fill="#4CAFFF"/>
</svg>
