<svg width="14" height="12" viewBox="0 0 14 12" fill="none" xmlns="http://www.w3.org/2000/svg">
<path d="M13.7742 1.77062C13.2653 1.99575 12.7255 2.1436 12.1729 2.20928C12.7554 1.86091 13.1914 1.31263 13.3995 0.666618C12.8529 0.991951 12.2535 1.21995 11.6289 1.34328C11.2093 0.894337 10.6531 0.596593 10.0469 0.496341C9.44058 0.396089 8.81817 0.498945 8.27639 0.78892C7.73461 1.07889 7.30381 1.53974 7.05096 2.09981C6.79811 2.65989 6.73738 3.2878 6.87821 3.88595C5.76962 3.83039 4.6851 3.5423 3.69507 3.04039C2.70504 2.53849 1.83163 1.83398 1.13155 0.972618C0.88374 1.39825 0.753517 1.8821 0.754214 2.37462C0.754214 3.34128 1.24621 4.19528 1.99421 4.69528C1.55155 4.68135 1.11864 4.56181 0.731547 4.34662V4.38128C0.731681 5.02508 0.95446 5.64903 1.36211 6.14732C1.76976 6.64562 2.3372 6.9876 2.96821 7.11528C2.55729 7.22664 2.12642 7.24306 1.70821 7.16328C1.88613 7.71744 2.23289 8.20208 2.69994 8.54936C3.167 8.89663 3.73097 9.08915 4.31288 9.09995C3.73453 9.55417 3.07233 9.88994 2.36413 10.0881C1.65594 10.2862 0.915632 10.3428 0.185547 10.2546C1.46001 11.0742 2.94361 11.5094 4.45888 11.5079C9.58755 11.5079 12.3922 7.25928 12.3922 3.57462C12.3922 3.45462 12.3889 3.33328 12.3835 3.21462C12.9295 2.82006 13.4006 2.3313 13.7749 1.77128L13.7742 1.77062Z" fill="#000C15"/>
</svg>
