<svg width="13" height="11" viewBox="0 0 13 11" fill="none" xmlns="http://www.w3.org/2000/svg">
<path d="M1.85676 2.84585C1.86444 2.76933 1.85396 2.69207 1.82615 2.62037C1.79835 2.54866 1.75402 2.48453 1.69676 2.43318L0.516755 1.01118V0.797852H4.18209L7.01542 7.01118L9.50609 0.797852H13.0001V1.01052L11.9901 1.97785C11.9478 2.01077 11.9151 2.05442 11.8954 2.10424C11.8757 2.15407 11.8698 2.20826 11.8781 2.26118V9.37185C11.8696 9.42478 11.8755 9.47902 11.8952 9.52887C11.915 9.57873 11.9477 9.62235 11.9901 9.65518L12.9761 10.6225V10.8352H8.01875V10.6225L9.03809 9.63118C9.13942 9.53118 9.13942 9.50118 9.13942 9.34852V3.60052L6.30009 10.8119H5.91675L2.61142 3.60052V8.43318C2.58409 8.63652 2.65142 8.84118 2.79475 8.98852L4.12275 10.5999V10.8125H0.357422V10.5999L1.68542 8.98852C1.75529 8.91571 1.80716 8.82758 1.83691 8.73116C1.86666 8.63474 1.87345 8.5327 1.85676 8.43318V2.84585Z" fill="#000C15"/>
</svg>
