<svg width="14" height="14" viewBox="0 0 14 14" fill="none" xmlns="http://www.w3.org/2000/svg">
<path fill-rule="evenodd" clip-rule="evenodd" d="M7.01701 0.333008C3.34434 0.333008 0.367676 3.30967 0.367676 6.98234C0.367676 9.91967 2.27234 12.4123 4.91501 13.2923C5.24768 13.3523 5.36768 13.1477 5.36768 12.9717C5.36768 12.8137 5.36234 12.395 5.36034 11.841C3.51034 12.2423 3.11968 10.949 3.11968 10.949C2.81834 10.181 2.38168 9.97634 2.38168 9.97634C1.77834 9.56367 2.42768 9.57301 2.42768 9.57301C3.09568 9.61967 3.44568 10.2583 3.44568 10.2583C4.03901 11.2743 5.00301 10.981 5.38034 10.811C5.44101 10.381 5.61434 10.0877 5.80368 9.92167C4.32768 9.75434 2.77568 9.18367 2.77568 6.63501C2.77568 5.91034 3.03501 5.31567 3.45834 4.85167C3.39101 4.68301 3.16101 4.00634 3.52434 3.09167C3.52434 3.09167 4.08234 2.91234 5.35234 3.77234C5.89474 3.62479 6.45424 3.54947 7.01634 3.54834C7.57846 3.54925 8.13799 3.62457 8.68034 3.77234C9.95101 2.91167 10.5083 3.09167 10.5083 3.09167C10.8717 4.00634 10.6437 4.68301 10.5743 4.85167C11.001 5.31567 11.257 5.90967 11.257 6.63501C11.257 9.19034 9.70368 9.75167 8.22234 9.91634C8.45901 10.1217 8.67234 10.527 8.67234 11.147C8.67234 12.0363 8.66434 12.7537 8.66434 12.9717C8.66434 13.1497 8.78301 13.3563 9.12234 13.291C11.7637 12.4097 13.6663 9.91901 13.6663 6.98234C13.6663 3.30967 10.6897 0.333008 7.01701 0.333008Z" fill="#000C15"/>
</svg>
