<svg width="16" height="18" viewBox="0 0 16 18" fill="none" xmlns="http://www.w3.org/2000/svg">
<path d="M8.06666 0.986539L8.06653 0.986637C6.51849 2.2295 5.49747 4.01159 5.20818 5.97562L5.14803 6.38399L4.81399 6.14151C4.24475 5.72829 3.74591 5.22594 3.33669 4.65382L8.06666 0.986539ZM8.06666 0.986539C8.10592 0.954971 8.15115 0.931641 8.19963 0.91794L8.13165 0.677361M8.06666 0.986539L8.13165 0.677361M8.13165 0.677361L8.19963 0.91794C8.24812 0.904239 8.29887 0.900449 8.34885 0.906796C8.39883 0.913143 8.44702 0.929496 8.49054 0.954881C8.53406 0.980261 8.57201 1.01415 8.60214 1.05452M8.13165 0.677361L10.9573 3.0033M10.9573 3.0033L10.9574 3.00319C10.0278 2.55119 9.2202 1.88296 8.60214 1.05452M10.9573 3.0033L10.9645 3.00652M10.9573 3.0033L10.9645 3.00652M8.60214 1.05452L8.80245 0.905078L8.60215 1.05454C8.60215 1.05453 8.60214 1.05453 8.60214 1.05452ZM10.9645 3.00652C12.3696 3.63588 13.5379 4.69623 14.3001 6.03395C15.0623 7.37167 15.3789 8.91731 15.2039 10.447C15.0289 11.9766 14.3716 13.4109 13.327 14.5419C12.2824 15.673 10.9049 16.4422 9.39394 16.738C7.883 17.0339 6.31711 16.841 4.9231 16.1874C3.52909 15.5338 2.37934 14.4534 1.64042 13.1027C0.901492 11.7519 0.611753 10.2011 0.813171 8.67465C1.01459 7.14825 1.69669 5.72563 2.76069 4.61282C2.79881 4.57297 2.84524 4.54201 2.89669 4.52215C2.94813 4.5023 3.00332 4.49404 3.05833 4.49795C3.11333 4.50187 3.1668 4.51787 3.21491 4.54481C3.26302 4.57174 3.30459 4.60896 3.33668 4.6538L10.9645 3.00652ZM11.375 10.8752V10.875C11.375 10.0571 11.0779 9.26704 10.5391 8.65171C10.0002 8.03639 9.25627 7.63768 8.44552 7.52971L8.33152 7.51453L8.24582 7.59121C7.41202 8.33724 6.84066 9.32873 6.61144 10.4189C6.0904 10.2606 5.60758 10.0143 5.17962 9.69744L4.90131 9.49137L4.79332 9.8204C4.64108 10.2842 4.59128 10.7756 4.64736 11.2605C4.70344 11.7455 4.86405 12.2125 5.11813 12.6294C5.37221 13.0462 5.71369 13.403 6.11903 13.6751C6.52437 13.9472 6.98391 14.1281 7.46595 14.2053C7.94799 14.2826 8.44104 14.2544 8.91111 14.1226C9.38117 13.9908 9.81705 13.7586 10.1887 13.442C10.5603 13.1254 10.8588 12.732 11.0636 12.2888C11.2684 11.8457 11.3747 11.3634 11.375 10.8752Z" fill="#FF3358" stroke="#FFCC24" stroke-width="0.5"/>
</svg>
