<svg width="16" height="16" viewBox="0 0 16 16" fill="none" xmlns="http://www.w3.org/2000/svg">
<path d="M6.55233 6.71191C6.09633 6.71191 5.73633 7.11191 5.73633 7.59991C5.73633 8.08791 6.10433 8.48791 6.55233 8.48791C7.00833 8.48791 7.36833 8.08791 7.36833 7.59991C7.37633 7.11191 7.00833 6.71191 6.55233 6.71191ZM9.47233 6.71191C9.01633 6.71191 8.65633 7.11191 8.65633 7.59991C8.65633 8.08791 9.02433 8.48791 9.47233 8.48791C9.92833 8.48791 10.2883 8.08791 10.2883 7.59991C10.2883 7.11191 9.92833 6.71191 9.47233 6.71191Z" fill="#000C15"/>
<path d="M13.36 0H2.64C1.736 0 1 0.736 1 1.648V12.464C1 13.376 1.736 14.112 2.64 14.112H11.712L11.288 12.632L12.312 13.584L13.28 14.48L15 16V1.648C15 0.736 14.264 0 13.36 0ZM10.272 10.448C10.272 10.448 9.984 10.104 9.744 9.8C10.792 9.504 11.192 8.848 11.192 8.848C10.864 9.064 10.552 9.216 10.272 9.32C9.872 9.488 9.488 9.6 9.112 9.664C8.42684 9.79015 7.72416 9.78744 7.04 9.656C6.63834 9.57741 6.2447 9.46226 5.864 9.312C5.66333 9.23483 5.4682 9.14395 5.28 9.04C5.256 9.024 5.232 9.016 5.208 9C5.192 8.992 5.184 8.984 5.176 8.976C5.032 8.896 4.952 8.84 4.952 8.84C4.952 8.84 5.336 9.48 6.352 9.784C6.112 10.088 5.816 10.448 5.816 10.448C4.048 10.392 3.376 9.232 3.376 9.232C3.376 6.656 4.528 4.568 4.528 4.568C5.68 3.704 6.776 3.728 6.776 3.728L6.856 3.824C5.416 4.24 4.752 4.872 4.752 4.872C4.752 4.872 4.928 4.776 5.224 4.64C6.08 4.264 6.76 4.16 7.04 4.136C7.088 4.128 7.128 4.12 7.176 4.12C8.56328 3.93223 9.97416 4.1959 11.2 4.872C11.2 4.872 10.568 4.272 9.208 3.856L9.32 3.728C9.32 3.728 10.416 3.704 11.568 4.568C11.568 4.568 12.72 6.656 12.72 9.232C12.72 9.232 12.04 10.392 10.272 10.448Z" fill="#000C15"/>
</svg>
