<svg width="64" height="64" viewBox="0 0 64 64" fill="none" xmlns="http://www.w3.org/2000/svg">
<path d="M32 36.6665C30.9067 36.6665 30 35.7598 30 34.6665V20.6665C30 19.5732 30.9067 18.6665 32 18.6665C33.0933 18.6665 34 19.5732 34 20.6665V34.6665C34 35.7598 33.0933 36.6665 32 36.6665Z" fill="#DCE6EF"/>
<path d="M32 45.9998C31.28 45.9998 30.6133 45.7332 30.1066 45.2265C29.8666 44.9598 29.68 44.6664 29.52 44.3464C29.3867 44.0264 29.3333 43.6798 29.3333 43.3331C29.3333 42.6398 29.6266 41.9464 30.1066 41.4397C31.0933 40.453 32.9067 40.453 33.8934 41.4397C34.3734 41.9464 34.6667 42.6398 34.6667 43.3331C34.6667 43.6798 34.5866 44.0264 34.4533 44.3464C34.32 44.6664 34.1334 44.9598 33.8934 45.2265C33.3867 45.7332 32.72 45.9998 32 45.9998Z" fill="#DCE6EF"/>
<path d="M32.0005 60.6664C30.2138 60.6664 28.4005 60.2131 26.8005 59.2797L10.9604 50.1331C7.76045 48.2664 5.76042 44.8264 5.76042 41.1197V22.8798C5.76042 19.1732 7.76045 15.7331 10.9604 13.8665L26.8005 4.71982C30.0005 2.85316 33.9739 2.85316 37.2005 4.71982L53.0405 13.8665C56.2405 15.7331 58.2406 19.1732 58.2406 22.8798V41.1197C58.2406 44.8264 56.2405 48.2664 53.0405 50.1331L37.2005 59.2797C35.6005 60.2131 33.7872 60.6664 32.0005 60.6664ZM32.0005 7.33311C30.9072 7.33311 29.7871 7.62646 28.8005 8.18646L12.9604 17.3331C10.9871 18.4798 9.76042 20.5865 9.76042 22.8798V41.1197C9.76042 43.3864 10.9871 45.5198 12.9604 46.6664L28.8005 55.8131C30.7738 56.9597 33.2272 56.9597 35.1738 55.8131L51.0138 46.6664C52.9872 45.5198 54.2139 43.4131 54.2139 41.1197V22.8798C54.2139 20.6131 52.9872 18.4798 51.0138 17.3331L35.1738 8.18646C34.2138 7.62646 33.0938 7.33311 32.0005 7.33311Z" fill="#DCE6EF"/>
</svg>
