<svg width="510" height="431" viewBox="0 0 510 431" fill="none" xmlns="http://www.w3.org/2000/svg">
<g clip-path="url(#clip0_906_14602)">
<g clip-path="url(#clip1_906_14602)">
<path d="M419.715 122.44H90.285C87.6094 122.44 85.4404 124.609 85.4404 127.285V416.197C85.4404 418.872 87.6094 421.041 90.285 421.041H419.715C422.391 421.041 424.56 418.872 424.56 416.197V127.285C424.56 124.609 422.391 122.44 419.715 122.44Z" fill="#15202B"/>
<path d="M390.797 156.863C390.63 156.863 390.463 156.801 390.33 156.669C390.075 156.414 390.075 155.991 390.33 155.736L395.316 150.75C395.571 150.495 395.994 150.495 396.25 150.75C396.505 151.006 396.505 151.428 396.25 151.684L391.264 156.669C391.141 156.801 390.965 156.863 390.797 156.863Z" fill="#DCE6EF"/>
<path d="M395.783 156.863C395.615 156.863 395.448 156.801 395.316 156.669L390.33 151.684C390.075 151.428 390.075 151.006 390.33 150.75C390.586 150.495 391.009 150.495 391.264 150.75L396.25 155.736C396.505 155.991 396.505 156.414 396.25 156.669C396.118 156.801 395.95 156.863 395.783 156.863Z" fill="#DCE6EF"/>
<path d="M395.933 163.179H390.648C385.865 163.179 383.821 161.136 383.821 156.353V151.068C383.821 146.285 385.865 144.241 390.648 144.241H395.933C400.716 144.241 402.759 146.285 402.759 151.068V156.353C402.759 161.136 400.716 163.179 395.933 163.179ZM390.648 145.562C386.587 145.562 385.143 147.007 385.143 151.068V156.353C385.143 160.413 386.587 161.858 390.648 161.858H395.933C399.993 161.858 401.438 160.413 401.438 156.353V151.068C401.438 147.007 399.993 145.562 395.933 145.562H390.648Z" fill="#DCE6EF"/>
<path d="M211.766 200.711C212.665 202.279 214.25 203.23 216.153 203.23C218.39 203.23 220.046 201.891 220.046 199.865C220.046 198.332 219.148 197.416 217.263 196.553L215.959 195.954C214.814 195.373 214.409 195.214 214.338 194.298C214.338 193.382 215.114 192.889 216.1 192.889C217.087 192.889 217.932 193.382 218.549 194.298L219.852 193.294C219.13 192.043 217.738 191.215 216.1 191.215C214.092 191.215 212.436 192.466 212.436 194.369C212.436 195.919 213.458 196.817 215.149 197.593L216.435 198.192C217.65 198.755 218.144 199.108 218.144 199.936C218.144 200.922 217.333 201.556 216.135 201.556C214.796 201.556 213.863 200.834 213.088 199.707L211.766 200.711ZM227.369 201.468C226.858 201.521 226.489 201.556 226.224 201.556C225.097 201.556 224.515 201.169 224.515 200.059V195.989H227.087V194.386H224.515V192.114H222.648V194.386H221.239V195.989H222.648V200.217C222.648 202.243 223.846 203.23 225.837 203.23C226.277 203.23 226.788 203.159 227.369 203.036V201.468ZM236.859 199.319C236.947 198.914 237 198.526 237 198.156C237 195.901 235.292 194.193 233.001 194.193C230.553 194.14 228.474 196.236 228.527 198.72C228.527 201.274 230.535 203.23 233.178 203.23C234.499 203.23 235.644 202.772 236.63 201.838L235.75 200.57C234.974 201.257 234.129 201.592 233.23 201.592C231.751 201.592 230.641 200.728 230.412 199.319H236.859ZM230.447 197.874C230.729 196.588 231.715 195.76 232.931 195.76C234.146 195.76 235.133 196.553 235.151 197.874H230.447ZM248.104 198.702C248.104 196.148 246.307 194.193 243.858 194.193C242.59 194.193 241.48 194.703 240.846 195.602V194.386H239.12V206.207H240.969V201.979C241.656 202.772 242.678 203.23 243.858 203.23C246.307 203.23 248.104 201.292 248.104 198.702ZM246.201 198.72C246.201 200.376 245.039 201.539 243.559 201.539C242.203 201.539 240.952 200.605 240.952 198.702C240.952 196.817 242.203 195.884 243.559 195.884C245.056 195.884 246.201 197.064 246.201 198.72ZM258.06 201.415L260.104 199.249C260.914 198.385 261.531 197.645 261.936 196.994C262.359 196.342 262.57 195.62 262.57 194.827C262.57 192.783 260.932 191.215 258.712 191.215C256.334 191.215 254.801 193.03 254.801 194.932C254.801 195.285 254.836 195.62 254.924 195.937H256.809C256.756 195.584 256.721 195.285 256.721 195.038C256.721 193.84 257.514 192.924 258.694 192.924C259.875 192.924 260.632 193.787 260.632 194.968C260.632 195.954 260.068 196.8 258.782 198.156L254.642 202.613V203.036H262.975V201.415H258.06ZM269.644 198.702C269.591 201.151 271.723 203.283 274.207 203.23C276.726 203.283 278.857 201.151 278.804 198.702C278.857 196.254 276.726 194.14 274.207 194.193C271.723 194.157 269.591 196.218 269.644 198.702ZM276.902 198.72C276.902 200.288 275.739 201.521 274.207 201.521C272.692 201.521 271.529 200.323 271.529 198.72C271.529 197.117 272.692 195.884 274.224 195.884C275.722 195.884 276.902 197.117 276.902 198.72ZM283.091 192.801C283.091 191.691 283.655 191.303 284.783 191.303C284.994 191.303 285.241 191.321 285.523 191.356V189.788C285.188 189.683 284.8 189.63 284.325 189.63C282.422 189.63 281.242 190.616 281.242 192.642V194.386H280.009V195.989H281.242V203.036H283.091V195.989H285.135V194.386H283.091V192.801ZM293.895 201.415L295.938 199.249C296.749 198.385 297.365 197.645 297.771 196.994C298.193 196.342 298.405 195.62 298.405 194.827C298.405 192.783 296.766 191.215 294.547 191.215C292.168 191.215 290.636 193.03 290.636 194.932C290.636 195.285 290.671 195.62 290.759 195.937H292.644C292.591 195.584 292.556 195.285 292.556 195.038C292.556 193.84 293.349 192.924 294.529 192.924C295.709 192.924 296.467 193.787 296.467 194.968C296.467 195.954 295.903 196.8 294.617 198.156L290.477 202.613V203.036H298.81V201.415H293.895Z" fill="#F1F5F8"/>
<path d="M178.542 246.197H179.712L175.681 236.74H175.273L171.242 246.197H172.398L173.187 244.308H177.753L178.542 246.197ZM177.33 243.322H173.61L175.47 238.742L177.33 243.322ZM188.352 242.758C188.352 240.743 186.914 239.178 184.955 239.178C183.884 239.178 182.884 239.644 182.362 240.433V239.333H181.348V248.734H182.433V245.21C182.997 245.929 183.941 246.352 184.955 246.352C186.886 246.352 188.352 244.773 188.352 242.758ZM187.239 242.772C187.239 244.252 186.196 245.351 184.8 245.351C183.532 245.351 182.419 244.506 182.419 242.758C182.419 241.025 183.574 240.179 184.8 240.179C186.196 240.179 187.239 241.292 187.239 242.772ZM197.257 242.758C197.257 240.743 195.82 239.178 193.861 239.178C192.79 239.178 191.789 239.644 191.267 240.433V239.333H190.253V248.734H191.338V245.21C191.902 245.929 192.846 246.352 193.861 246.352C195.791 246.352 197.257 244.773 197.257 242.758ZM196.144 242.772C196.144 244.252 195.101 245.351 193.706 245.351C192.437 245.351 191.324 244.506 191.324 242.758C191.324 241.025 192.48 240.179 193.706 240.179C195.101 240.179 196.144 241.292 196.144 242.772ZM202.807 239.333C202.624 239.291 202.455 239.277 202.3 239.277C201.468 239.277 200.665 239.644 200.172 240.306V239.333H199.157V246.197H200.242V242.307C200.242 241.039 201.243 240.292 202.399 240.292H202.807V239.333ZM203.633 242.758C203.604 244.689 205.253 246.38 207.212 246.338C209.171 246.38 210.862 244.689 210.82 242.758C210.862 240.799 209.185 239.15 207.226 239.178C205.267 239.136 203.59 240.799 203.633 242.758ZM209.707 242.772C209.707 244.21 208.607 245.337 207.212 245.337C205.817 245.337 204.746 244.21 204.746 242.772C204.746 241.292 205.817 240.179 207.226 240.179C208.622 240.179 209.707 241.292 209.707 242.772ZM217.329 239.333L215.06 244.506L212.776 239.333H211.621L214.862 246.352H215.257L218.484 239.333H217.329ZM225.834 243.096C225.89 242.815 225.918 242.547 225.918 242.279C225.918 240.461 224.565 239.178 222.79 239.178C220.831 239.178 219.281 240.785 219.281 242.772C219.281 244.788 220.873 246.352 222.917 246.352C224.002 246.352 224.946 245.901 225.665 245.154L225.031 244.421C224.41 245.041 223.706 245.351 222.931 245.351C221.578 245.351 220.535 244.449 220.408 243.096H225.834ZM220.45 242.138C220.69 240.954 221.62 240.165 222.762 240.165C223.903 240.165 224.791 240.912 224.805 242.138H220.45ZM238.85 243.463C238.85 242.335 238.23 241.546 237.201 241.166C237.666 240.729 237.892 240.165 237.892 239.489C237.892 237.966 236.665 236.895 234.946 236.895H231.648V246.197H235.792C237.581 246.197 238.85 245.069 238.85 243.463ZM234.791 238.53C235.566 238.53 236.003 238.925 236.003 239.587C236.003 240.25 235.566 240.658 234.791 240.658H233.48V238.53H234.791ZM236.975 243.392C236.975 244.125 236.482 244.562 235.651 244.562H233.48V242.223H235.651C236.482 242.223 236.975 242.674 236.975 243.392ZM246.42 236.895V242.448L241.022 236.726H240.402V246.197H242.304V240.616L247.688 246.366H248.322V236.895H246.42ZM257.65 243.463C257.65 242.335 257.03 241.546 256.001 241.166C256.466 240.729 256.692 240.165 256.692 239.489C256.692 237.966 255.466 236.895 253.746 236.895H250.449V246.197H254.592C256.382 246.197 257.65 245.069 257.65 243.463ZM253.591 238.53C254.367 238.53 254.803 238.925 254.803 239.587C254.803 240.25 254.367 240.658 253.591 240.658H252.281V238.53H253.591ZM255.776 243.392C255.776 244.125 255.283 244.562 254.451 244.562H252.281V242.223H254.451C255.283 242.223 255.776 242.674 255.776 243.392ZM258.765 242.476H262.317V240.884H258.765V242.476ZM271.869 246.197L269.233 242.547C270.248 242.039 270.868 241.081 270.868 239.897C270.868 238.107 269.459 236.895 267.514 236.895H264.019V246.197H265.921V242.913H267.317L269.726 246.197H271.869ZM265.921 238.572H267.514C268.374 238.572 268.923 239.108 268.923 239.897C268.923 240.701 268.402 241.236 267.514 241.236H265.921V238.572ZM272.291 241.546C272.249 244.21 274.532 246.422 277.266 246.366C278.239 246.366 279.113 246.141 279.888 245.675C280.677 245.21 281.283 244.59 281.706 243.843V241.095H277.238V242.744H279.803V243.505C279.282 244.224 278.422 244.661 277.351 244.661C275.505 244.661 274.25 243.35 274.25 241.546C274.25 239.77 275.462 238.488 277.238 238.488C278.309 238.488 279.169 238.939 279.831 239.855L281.184 238.742C280.282 237.459 278.901 236.726 277.266 236.726C274.518 236.684 272.235 238.868 272.291 241.546ZM283.356 246.197H285.259V242.913H286.852C288.796 242.913 290.206 241.673 290.206 239.897C290.206 238.107 288.796 236.895 286.852 236.895H283.356V246.197ZM285.259 241.25V238.572H286.852C287.711 238.572 288.261 239.108 288.261 239.897C288.261 240.701 287.739 241.25 286.852 241.25H285.259ZM297.714 246.197H298.813V237.882H302.097V236.895H294.444V237.882H297.714V246.197ZM302.01 242.758C301.982 244.689 303.63 246.38 305.589 246.338C307.548 246.38 309.24 244.689 309.197 242.758C309.24 240.799 307.562 239.15 305.604 239.178C303.645 239.136 301.967 240.799 302.01 242.758ZM308.084 242.772C308.084 244.21 306.985 245.337 305.589 245.337C304.194 245.337 303.123 244.21 303.123 242.772C303.123 241.292 304.194 240.179 305.604 240.179C306.999 240.179 308.084 241.292 308.084 242.772ZM311.105 246.197H312.19V235.627H311.105V246.197ZM313.614 242.349L316.587 239.333H315.164L312.303 242.335L315.46 246.197H316.855L313.614 242.349ZM324.019 243.096C324.075 242.815 324.104 242.547 324.104 242.279C324.104 240.461 322.751 239.178 320.975 239.178C319.016 239.178 317.466 240.785 317.466 242.772C317.466 244.788 319.058 246.352 321.102 246.352C322.187 246.352 323.131 245.901 323.85 245.154L323.216 244.421C322.596 245.041 321.891 245.351 321.116 245.351C319.763 245.351 318.72 244.449 318.593 243.096H324.019ZM318.635 242.138C318.875 240.954 319.805 240.165 320.947 240.165C322.088 240.165 322.976 240.912 322.99 242.138H318.635ZM331.69 241.884C331.69 240.264 330.732 239.178 329.139 239.178C328.28 239.178 327.533 239.503 327.025 240.066V239.333H326.011V246.197H327.096V242.011C327.096 240.94 327.843 240.179 328.9 240.179C329.957 240.179 330.605 240.926 330.605 242.011V246.197H331.69V241.884ZM333.344 245.013C333.95 245.802 334.881 246.352 336.022 246.352C336.699 246.352 337.262 246.183 337.727 245.83C338.192 245.478 338.432 244.971 338.432 244.337C338.432 243.392 337.896 242.857 336.614 242.307L335.98 242.039C335.148 241.687 334.866 241.476 334.866 241.039C334.866 240.489 335.331 240.179 336.008 240.179C336.642 240.179 337.234 240.475 337.699 240.94L338.362 240.264C337.798 239.587 337.023 239.178 336.064 239.178C334.754 239.178 333.753 239.897 333.753 241.095C333.753 242.011 334.317 242.533 335.458 242.998L336.121 243.28C336.966 243.618 337.319 243.829 337.319 244.379C337.319 244.985 336.755 245.351 336.008 245.351C335.233 245.351 334.697 244.971 334.035 244.294L333.344 245.013Z" fill="#F1F5F8"/>
<path d="M174.648 268.253C174.616 270.251 176.276 271.889 178.274 271.857C178.961 271.857 179.584 271.699 180.145 271.371C180.715 271.043 181.159 270.599 181.466 270.05V268.189H178.263V268.929H180.641V269.87C180.166 270.631 179.331 271.117 178.316 271.117C176.709 271.149 175.473 269.838 175.504 268.242C175.473 266.667 176.688 265.378 178.274 265.41C179.204 265.41 179.954 265.832 180.493 266.562L181.117 266.075C180.472 265.177 179.457 264.649 178.274 264.649C176.276 264.617 174.616 266.255 174.648 268.253ZM182.555 269.162C182.534 270.61 183.771 271.878 185.24 271.847C186.709 271.878 187.978 270.61 187.946 269.162C187.978 267.693 186.72 266.456 185.251 266.477C183.781 266.445 182.524 267.693 182.555 269.162ZM187.111 269.172C187.111 270.251 186.287 271.096 185.24 271.096C184.194 271.096 183.39 270.251 183.39 269.172C183.39 268.063 184.194 267.228 185.251 267.228C186.297 267.228 187.111 268.063 187.111 269.172ZM195.151 271.054C194.887 271.096 194.665 271.117 194.464 271.117C193.756 271.117 193.375 270.864 193.375 270.134V267.323H194.982V266.593H193.375V265.188H192.562V266.593H191.695V267.323H192.562V270.187C192.562 271.318 193.227 271.857 194.295 271.857C194.538 271.857 194.824 271.815 195.151 271.741V271.054ZM195.892 269.162C195.871 270.61 197.108 271.878 198.577 271.847C200.046 271.878 201.314 270.61 201.283 269.162C201.314 267.693 200.057 266.456 198.587 266.477C197.118 266.445 195.86 267.693 195.892 269.162ZM200.448 269.172C200.448 270.251 199.623 271.096 198.577 271.096C197.53 271.096 196.727 270.251 196.727 269.172C196.727 268.063 197.53 267.228 198.587 267.228C199.634 267.228 200.448 268.063 200.448 269.172ZM209.333 266.593L207.631 270.695L205.929 266.593H205.052L207.187 271.582L206.912 272.195C206.648 272.819 206.288 273.02 205.749 273.02C205.601 273.02 205.39 272.999 205.126 272.967V273.654C205.39 273.728 205.654 273.76 205.918 273.76C206.711 273.76 207.271 273.358 207.663 272.46L210.199 266.593H209.333ZM210.797 269.162C210.776 270.61 212.013 271.878 213.482 271.847C214.951 271.878 216.22 270.61 216.188 269.162C216.22 267.693 214.962 266.456 213.493 266.477C212.023 266.445 210.766 267.693 210.797 269.162ZM215.353 269.172C215.353 270.251 214.529 271.096 213.482 271.096C212.436 271.096 211.632 270.251 211.632 269.172C211.632 268.063 212.436 267.228 213.493 267.228C214.539 267.228 215.353 268.063 215.353 269.172ZM217.555 269.69C217.555 270.99 218.485 271.857 219.69 271.857C220.885 271.857 221.815 270.99 221.815 269.69V266.593H221.001V269.743C221.001 270.557 220.441 271.107 219.69 271.107C218.929 271.107 218.358 270.578 218.358 269.743V266.593H217.555V269.69ZM226.271 266.593C226.133 266.562 226.007 266.551 225.89 266.551C225.267 266.551 224.664 266.826 224.294 267.323V266.593H223.533V271.741H224.347V268.824C224.347 267.872 225.098 267.312 225.964 267.312H226.271V266.593ZM236.95 266.593L235.491 270.377L233.758 266.477H233.451L231.739 270.409L230.249 266.593H229.382L231.57 271.857H231.855L233.599 267.967L235.354 271.857H235.65L237.817 266.593H236.95ZM242.647 268.57C242.647 267.217 241.855 266.477 240.639 266.477C239.783 266.477 239.011 266.847 238.546 267.608L239.085 268.052C239.508 267.502 239.963 267.228 240.586 267.228C241.358 267.228 241.833 267.682 241.833 268.528V268.972H240.206C239.096 268.972 238.356 269.532 238.356 270.409C238.356 271.297 239.096 271.857 240.153 271.857C240.903 271.857 241.506 271.582 241.886 271.075V271.741H242.647V268.57ZM241.833 269.764C241.833 270.557 241.104 271.181 240.258 271.181C239.656 271.181 239.191 270.885 239.191 270.367C239.191 269.891 239.582 269.638 240.301 269.638H241.833V269.764ZM244.374 271.741H245.188V263.813H244.374V271.741ZM246.975 271.741H247.789V263.813H246.975V271.741ZM254.121 269.416C254.163 269.204 254.184 269.003 254.184 268.802C254.184 267.439 253.17 266.477 251.838 266.477C250.369 266.477 249.206 267.682 249.206 269.172C249.206 270.684 250.4 271.857 251.933 271.857C252.747 271.857 253.455 271.519 253.994 270.959L253.518 270.409C253.053 270.874 252.525 271.107 251.944 271.107C250.929 271.107 250.147 270.43 250.052 269.416H254.121ZM250.083 268.697C250.263 267.809 250.961 267.217 251.817 267.217C252.673 267.217 253.339 267.777 253.349 268.697H250.083ZM258.426 271.054C258.162 271.096 257.94 271.117 257.739 271.117C257.031 271.117 256.651 270.864 256.651 270.134V267.323H258.257V266.593H256.651V265.188H255.837V266.593H254.97V267.323H255.837V270.187C255.837 271.318 256.503 271.857 257.57 271.857C257.813 271.857 258.099 271.815 258.426 271.741V271.054ZM265.414 271.054C265.15 271.096 264.928 271.117 264.727 271.117C264.019 271.117 263.638 270.864 263.638 270.134V267.323H265.245V266.593H263.638V265.188H262.824V266.593H261.958V267.323H262.824V270.187C262.824 271.318 263.49 271.857 264.558 271.857C264.801 271.857 265.086 271.815 265.414 271.741V271.054ZM266.155 269.162C266.134 270.61 267.37 271.878 268.84 271.847C270.309 271.878 271.577 270.61 271.546 269.162C271.577 267.693 270.319 266.456 268.85 266.477C267.381 266.445 266.123 267.693 266.155 269.162ZM270.71 269.172C270.71 270.251 269.886 271.096 268.84 271.096C267.793 271.096 266.99 270.251 266.99 269.172C266.99 268.063 267.793 267.228 268.85 267.228C269.897 267.228 270.71 268.063 270.71 269.172ZM279.797 268.57C279.797 267.217 279.004 266.477 277.789 266.477C276.933 266.477 276.161 266.847 275.696 267.608L276.235 268.052C276.658 267.502 277.112 267.228 277.736 267.228C278.508 267.228 278.983 267.682 278.983 268.528V268.972H277.355C276.246 268.972 275.506 269.532 275.506 270.409C275.506 271.297 276.246 271.857 277.303 271.857C278.053 271.857 278.656 271.582 279.036 271.075V271.741H279.797V268.57ZM278.983 269.764C278.983 270.557 278.254 271.181 277.408 271.181C276.806 271.181 276.341 270.885 276.341 270.367C276.341 269.891 276.732 269.638 277.451 269.638H278.983V269.764ZM286.777 269.162C286.777 267.65 285.699 266.477 284.229 266.477C283.426 266.477 282.676 266.826 282.285 267.418V266.593H281.524V273.644H282.337V271.001C282.76 271.54 283.468 271.857 284.229 271.857C285.678 271.857 286.777 270.673 286.777 269.162ZM285.942 269.172C285.942 270.282 285.16 271.107 284.113 271.107C283.162 271.107 282.327 270.473 282.327 269.162C282.327 267.862 283.194 267.228 284.113 267.228C285.16 267.228 285.942 268.063 285.942 269.172ZM293.455 269.162C293.455 267.65 292.377 266.477 290.908 266.477C290.105 266.477 289.354 266.826 288.963 267.418V266.593H288.202V273.644H289.016V271.001C289.439 271.54 290.147 271.857 290.908 271.857C292.356 271.857 293.455 270.673 293.455 269.162ZM292.62 269.172C292.62 270.282 291.838 271.107 290.792 271.107C289.84 271.107 289.005 270.473 289.005 269.162C289.005 267.862 289.872 267.228 290.792 267.228C291.838 267.228 292.62 268.063 292.62 269.172ZM297.618 266.593C297.481 266.562 297.354 266.551 297.238 266.551C296.614 266.551 296.011 266.826 295.641 267.323V266.593H294.88V271.741H295.694V268.824C295.694 267.872 296.445 267.312 297.312 267.312H297.618V266.593ZM298.236 269.162C298.215 270.61 299.452 271.878 300.921 271.847C302.39 271.878 303.659 270.61 303.627 269.162C303.659 267.693 302.401 266.456 300.932 266.477C299.463 266.445 298.205 267.693 298.236 269.162ZM302.792 269.172C302.792 270.251 301.968 271.096 300.921 271.096C299.875 271.096 299.071 270.251 299.071 269.172C299.071 268.063 299.875 267.228 300.932 267.228C301.978 267.228 302.792 268.063 302.792 269.172ZM308.509 266.593L306.807 270.473L305.095 266.593H304.228L306.659 271.857H306.955L309.375 266.593H308.509ZM314.888 269.416C314.931 269.204 314.952 269.003 314.952 268.802C314.952 267.439 313.937 266.477 312.605 266.477C311.136 266.477 309.973 267.682 309.973 269.172C309.973 270.684 311.168 271.857 312.7 271.857C313.514 271.857 314.223 271.519 314.762 270.959L314.286 270.409C313.821 270.874 313.292 271.107 312.711 271.107C311.696 271.107 310.914 270.43 310.819 269.416H314.888ZM310.851 268.697C311.03 267.809 311.728 267.217 312.584 267.217C313.44 267.217 314.106 267.777 314.117 268.697H310.851ZM322.155 271.054C321.891 271.096 321.669 271.117 321.468 271.117C320.76 271.117 320.38 270.864 320.38 270.134V267.323H321.986V266.593H320.38V265.188H319.566V266.593H318.699V267.323H319.566V270.187C319.566 271.318 320.232 271.857 321.299 271.857C321.542 271.857 321.828 271.815 322.155 271.741V271.054ZM327.63 268.507C327.63 267.291 326.911 266.477 325.727 266.477C325.082 266.477 324.533 266.741 324.184 267.175V263.813H323.37V271.741H324.184V268.612C324.184 267.809 324.744 267.228 325.537 267.228C326.33 267.228 326.816 267.777 326.816 268.612V271.741H327.63V268.507ZM329.356 271.741H330.17V266.593H329.356V271.741ZM329.155 264.627C329.155 264.966 329.43 265.219 329.768 265.219C330.107 265.219 330.371 264.966 330.371 264.627C330.371 264.3 330.096 264.035 329.768 264.035C329.43 264.035 329.155 264.3 329.155 264.627ZM331.472 270.853C331.926 271.445 332.624 271.857 333.48 271.857C333.987 271.857 334.41 271.73 334.759 271.466C335.108 271.202 335.288 270.821 335.288 270.346C335.288 269.638 334.886 269.236 333.924 268.824L333.448 268.623C332.825 268.359 332.613 268.2 332.613 267.872C332.613 267.46 332.962 267.228 333.47 267.228C333.945 267.228 334.389 267.45 334.738 267.798L335.235 267.291C334.812 266.784 334.231 266.477 333.512 266.477C332.529 266.477 331.778 267.016 331.778 267.915C331.778 268.602 332.201 268.993 333.057 269.342L333.554 269.553C334.188 269.807 334.453 269.965 334.453 270.377C334.453 270.832 334.03 271.107 333.47 271.107C332.888 271.107 332.487 270.821 331.99 270.314L331.472 270.853Z" fill="#7599BD"/>
<g filter="url(#filter0_dd_906_14602)">
<path d="M106.14 303.451C106.14 300.532 108.506 298.166 111.425 298.166H398.575C401.494 298.166 403.86 300.532 403.86 303.451V335.161C403.86 338.08 401.494 340.446 398.575 340.446H111.425C108.506 340.446 106.14 338.08 106.14 335.161V303.451Z" fill="#4CAFFF"/>
<path d="M231.971 324.591H233.778L229.165 313.952H228.594L223.98 324.591H225.772L226.517 322.847H231.226L231.971 324.591ZM230.623 321.404H227.119L228.879 317.076L230.623 321.404ZM243.42 320.691C243.42 318.392 241.803 316.632 239.599 316.632C238.457 316.632 237.458 317.091 236.888 317.9V316.806H235.334V327.445H236.999V323.64C237.617 324.353 238.537 324.765 239.599 324.765C241.803 324.765 243.42 323.021 243.42 320.691ZM241.708 320.706C241.708 322.197 240.661 323.243 239.329 323.243C238.108 323.243 236.983 322.403 236.983 320.691C236.983 318.994 238.108 318.154 239.329 318.154C240.677 318.154 241.708 319.216 241.708 320.706ZM253.422 320.691C253.422 318.392 251.804 316.632 249.601 316.632C248.459 316.632 247.46 317.091 246.889 317.9V316.806H245.336V327.445H247V323.64C247.619 324.353 248.538 324.765 249.601 324.765C251.804 324.765 253.422 323.021 253.422 320.691ZM251.709 320.706C251.709 322.197 250.663 323.243 249.331 323.243C248.11 323.243 246.985 322.403 246.985 320.691C246.985 318.994 248.11 318.154 249.331 318.154C250.679 318.154 251.709 319.216 251.709 320.706ZM259.794 316.806C259.603 316.758 259.397 316.727 259.159 316.727C258.272 316.727 257.447 317.123 256.892 317.821V316.806H255.338V324.591H257.003V320.437C257.003 319.057 257.97 318.281 259.286 318.281H259.794V316.806ZM260.637 320.691C260.59 322.894 262.508 324.813 264.744 324.765C267.011 324.813 268.93 322.894 268.882 320.691C268.93 318.487 267.011 316.584 264.744 316.632C262.508 316.6 260.59 318.455 260.637 320.691ZM267.17 320.706C267.17 322.117 266.123 323.227 264.744 323.227C263.38 323.227 262.334 322.149 262.334 320.706C262.334 319.264 263.38 318.154 264.76 318.154C266.107 318.154 267.17 319.264 267.17 320.706ZM275.903 316.806L273.636 321.959L271.353 316.806H269.577L273.35 324.765H273.921L277.679 316.806H275.903ZM285.88 321.245C285.96 320.881 286.007 320.532 286.007 320.199C286.007 318.17 284.469 316.632 282.408 316.632C280.204 316.584 278.333 318.471 278.381 320.706C278.381 323.005 280.188 324.765 282.567 324.765C283.756 324.765 284.786 324.353 285.674 323.513L284.881 322.371C284.184 322.989 283.423 323.291 282.614 323.291C281.282 323.291 280.283 322.514 280.077 321.245H285.88ZM280.109 319.945C280.363 318.788 281.251 318.043 282.345 318.043C283.439 318.043 284.326 318.756 284.342 319.945H280.109Z" fill="#F1F5F8"/>
</g>
<g filter="url(#filter1_dd_906_14602)">
<path d="M106.14 359.824C106.14 356.905 108.506 354.539 111.425 354.539H398.575C401.494 354.539 403.86 356.905 403.86 359.824V391.534C403.86 394.453 401.494 396.819 398.575 396.819H111.425C108.506 396.819 106.14 394.453 106.14 391.534V359.824Z" fill="#15202B"/>
<path d="M233.517 375.432C233.46 378.095 235.757 380.28 238.407 380.238C240.14 380.238 241.606 379.406 242.395 378.095L241.268 377.264C240.606 378.293 239.647 378.871 238.421 378.871C236.518 378.871 235.067 377.405 235.067 375.432C235.067 373.459 236.518 371.993 238.421 371.993C239.647 371.993 240.606 372.571 241.268 373.6L242.395 372.768C241.592 371.458 240.112 370.626 238.407 370.626C235.757 370.584 233.46 372.768 233.517 375.432ZM249.512 375.897C249.512 374.037 248.384 373.008 246.679 373.008C245.481 373.008 244.452 373.487 243.762 374.488L244.621 375.361C245.199 374.671 245.763 374.333 246.538 374.333C247.482 374.333 248.018 374.854 248.018 375.812V376.263H246.059C244.494 376.263 243.508 377.038 243.508 378.236C243.508 379.434 244.466 380.238 245.918 380.238C246.862 380.238 247.623 379.913 248.13 379.307V380.083H249.512V375.897ZM248.018 377.461C248.018 378.405 247.229 379.096 246.228 379.096C245.509 379.096 245.015 378.758 245.015 378.18C245.015 377.616 245.453 377.334 246.242 377.334H248.018V377.461ZM257.617 375.756C257.617 374.107 256.645 373.008 255.024 373.008C254.164 373.008 253.474 373.29 252.952 373.839V373.163H251.571V380.083H253.051V375.953C253.051 375.009 253.713 374.347 254.629 374.347C255.531 374.347 256.137 374.995 256.137 375.953V380.083H257.617V375.756ZM259.24 376.616C259.24 378.631 260.861 380.238 262.905 380.238C264.159 380.238 265.202 379.632 265.822 378.631L264.779 377.828C264.272 378.518 263.652 378.871 262.919 378.871C261.679 378.871 260.748 377.884 260.748 376.616C260.748 375.361 261.679 374.375 262.919 374.375C263.666 374.375 264.286 374.727 264.779 375.432L265.822 374.614C265.216 373.614 264.187 373.008 262.905 373.008C260.917 372.98 259.198 374.629 259.24 376.616ZM273.545 377.109C273.615 376.785 273.658 376.475 273.658 376.179C273.658 374.375 272.291 373.008 270.459 373.008C268.5 372.966 266.837 374.643 266.879 376.63C266.879 378.673 268.486 380.238 270.6 380.238C271.657 380.238 272.573 379.871 273.362 379.124L272.657 378.11C272.037 378.659 271.361 378.927 270.642 378.927C269.458 378.927 268.57 378.236 268.387 377.109H273.545ZM268.415 375.953C268.641 374.924 269.43 374.262 270.402 374.262C271.375 374.262 272.164 374.896 272.178 375.953H268.415ZM275.353 380.083H276.833V369.513H275.353V380.083Z" fill="#4CAFFF"/>
<path d="M111.425 355.42H398.575V353.658H111.425V355.42ZM402.979 359.824V391.534H404.741V359.824H402.979ZM398.575 395.938H111.425V397.7H398.575V395.938ZM107.021 391.534V359.824H105.259V391.534H107.021ZM111.425 395.938C108.993 395.938 107.021 393.966 107.021 391.534H105.259C105.259 394.939 108.02 397.7 111.425 397.7V395.938ZM402.979 391.534C402.979 393.966 401.007 395.938 398.575 395.938V397.7C401.98 397.7 404.741 394.939 404.741 391.534H402.979ZM398.575 355.42C401.007 355.42 402.979 357.392 402.979 359.824H404.741C404.741 356.419 401.98 353.658 398.575 353.658V355.42ZM111.425 353.658C108.02 353.658 105.259 356.419 105.259 359.824H107.021C107.021 357.392 108.993 355.42 111.425 355.42V353.658Z" fill="#4CAFFF"/>
</g>
<path d="M419.715 122.44H90.285C87.6094 122.44 85.4404 124.609 85.4404 127.285V416.197C85.4404 418.872 87.6094 421.041 90.285 421.041H419.715C422.391 421.041 424.56 418.872 424.56 416.197V127.285C424.56 124.609 422.391 122.44 419.715 122.44Z" stroke="#324D68"/>
</g>
<g opacity="0.2">
<path d="M0 23C0 18.5817 3.58172 15 8 15H1384C1388.42 15 1392 18.5817 1392 23V87C1392 91.4183 1388.42 95 1384 95H8.00002C3.58174 95 0 91.4183 0 87V23Z" fill="#319EF6"/>
<path d="M56 31H24C19.5817 31 16 34.5817 16 39V71C16 75.4183 19.5817 79 24 79H56C60.4183 79 64 75.4183 64 71V39C64 34.5817 60.4183 31 56 31Z" fill="#0760A8"/>
<path fill-rule="evenodd" clip-rule="evenodd" d="M50.0004 44.7497C50.0004 44.6145 49.9638 44.4818 49.8945 44.3657C49.8252 44.2496 49.7258 44.1544 49.6068 44.0901C49.4879 44.0259 49.3537 43.995 49.2186 44.0007C49.0836 44.0064 48.9525 44.0486 48.8394 44.1227C48.7924 44.1527 48.7454 44.1797 48.6974 44.2077C48.5368 44.3 48.3734 44.3873 48.2074 44.4697C47.7664 44.6897 47.0974 44.9887 46.2054 45.2897C44.4254 45.8897 41.7554 46.4997 38.2504 46.4997H34.5004C33.172 46.4984 31.888 46.978 30.8856 47.8498C29.8833 48.7216 29.2304 49.9268 29.0475 51.2426C28.8646 52.5584 29.1642 53.8959 29.8908 55.008C30.6174 56.1201 31.722 56.9317 33.0004 57.2927V57.7497C33.0004 60.8107 33.6844 63.2547 34.0614 64.3707C34.3014 65.0797 34.9654 65.4997 35.6614 65.4997H37.6744C38.9684 65.4997 39.7744 64.1777 39.4064 63.0467C38.9944 61.7787 38.5004 59.7787 38.5004 57.4997C38.5004 57.4697 38.4984 57.4397 38.4954 57.4117C41.8774 57.4397 44.4604 58.0557 46.1984 58.6627C47.0884 58.9747 47.7574 59.2827 48.1984 59.5117C48.2824 59.5547 48.3694 59.6077 48.4594 59.6617C48.8164 59.8757 49.2164 60.1167 49.6014 59.9117C49.7218 59.848 49.8225 59.7527 49.8928 59.636C49.9631 59.5194 50.0003 59.3859 50.0004 59.2497V44.7497ZM38.5004 55.9117C42.0644 55.9407 44.8134 56.5897 46.6934 57.2467C47.4304 57.5047 48.0334 57.7637 48.5004 57.9867V45.9927C48.0334 46.2087 47.4274 46.4597 46.6854 46.7107C44.8074 47.3447 42.0614 47.9707 38.5004 47.9987V55.9117ZM34.5004 57.7497V57.4997H37.0004C37.0004 59.9857 37.5374 62.1477 37.9804 63.5097C37.9975 63.5674 38.0012 63.6283 37.9914 63.6877C37.9815 63.7472 37.9583 63.8036 37.9234 63.8527C37.8534 63.9567 37.7614 63.9997 37.6744 63.9997H35.6614C35.5564 63.9997 35.5004 63.9417 35.4824 63.8907C35.1384 62.8727 34.5004 60.5967 34.5004 57.7497ZM34.5004 47.9997H37.0004V55.9997H34.5004C33.4396 55.9997 32.4222 55.5783 31.672 54.8281C30.9219 54.078 30.5004 53.0606 30.5004 51.9997C30.5004 50.9388 30.9219 49.9214 31.672 49.1713C32.4222 48.4211 33.4396 47.9997 34.5004 47.9997Z" fill="white"/>
<path d="M92.284 60.9998H94.192V50.8298H98.206V49.1198H88.288V50.8298H92.284V60.9998ZM107.584 55.4738C107.584 53.3858 106.324 51.9638 104.308 51.9638C103.246 51.9638 102.346 52.3418 101.752 53.0438V47.4998H99.8621V60.9998H101.752V55.7438C101.752 54.5378 102.598 53.6918 103.768 53.6918C104.938 53.6918 105.694 54.5198 105.694 55.7438V60.9998H107.584V55.4738ZM110.216 60.9998H112.106V52.1618H110.216V60.9998ZM109.874 48.8678C109.874 49.5698 110.45 50.1098 111.17 50.1098C111.872 50.1098 112.448 49.5698 112.448 48.8678C112.448 48.1658 111.872 47.6078 111.17 47.6078C110.45 47.6078 109.874 48.1658 109.874 48.8678ZM114.011 59.4878C114.803 60.5138 116.063 61.1978 117.575 61.1978C118.511 61.1978 119.285 60.9638 119.915 60.4958C120.545 60.0098 120.851 59.3438 120.851 58.4978C120.851 57.2558 120.113 56.5358 118.439 55.8338L117.593 55.4918C116.729 55.1318 116.423 54.8978 116.423 54.4478C116.423 53.8898 116.891 53.6018 117.629 53.6018C118.403 53.6018 119.141 53.9258 119.699 54.5018L120.725 53.3318C119.951 52.4138 118.943 51.9638 117.665 51.9638C115.865 51.9638 114.551 52.9358 114.551 54.5198C114.551 55.7618 115.289 56.4458 116.855 57.0938L117.755 57.4718C118.619 57.8318 118.997 58.0478 118.997 58.5698C118.997 59.2178 118.385 59.5598 117.575 59.5598C116.639 59.5598 115.865 59.1098 115.091 58.2998L114.011 59.4878ZM128.075 60.9998H129.965V52.1618H128.075V60.9998ZM127.733 48.8678C127.733 49.5698 128.309 50.1098 129.029 50.1098C129.731 50.1098 130.307 49.5698 130.307 48.8678C130.307 48.1658 129.731 47.6078 129.029 47.6078C128.309 47.6078 127.733 48.1658 127.733 48.8678ZM131.87 59.4878C132.662 60.5138 133.922 61.1978 135.434 61.1978C136.37 61.1978 137.144 60.9638 137.774 60.4958C138.404 60.0098 138.71 59.3438 138.71 58.4978C138.71 57.2558 137.972 56.5358 136.298 55.8338L135.452 55.4918C134.588 55.1318 134.282 54.8978 134.282 54.4478C134.282 53.8898 134.75 53.6018 135.488 53.6018C136.262 53.6018 137 53.9258 137.558 54.5018L138.584 53.3318C137.81 52.4138 136.802 51.9638 135.524 51.9638C133.724 51.9638 132.41 52.9358 132.41 54.5198C132.41 55.7618 133.148 56.4458 134.714 57.0938L135.614 57.4718C136.478 57.8318 136.856 58.0478 136.856 58.5698C136.856 59.2178 136.244 59.5598 135.434 59.5598C134.498 59.5598 133.724 59.1098 132.95 58.2998L131.87 59.4878ZM153.048 49.1198L149.628 57.3818L146.208 49.1198H144.066L149.304 61.1978H149.952L155.19 49.1198H153.048ZM159.908 59.3438L161.996 57.1298C162.824 56.2478 163.454 55.4918 163.868 54.8258C164.3 54.1598 164.516 53.4218 164.516 52.6118C164.516 50.5238 162.842 48.9218 160.574 48.9218C158.144 48.9218 156.578 50.7758 156.578 52.7198C156.578 53.0798 156.614 53.4218 156.704 53.7458H158.63C158.576 53.3858 158.54 53.0798 158.54 52.8278C158.54 51.6038 159.35 50.6678 160.556 50.6678C161.762 50.6678 162.536 51.5498 162.536 52.7558C162.536 53.7638 161.96 54.6278 160.646 56.0138L156.416 60.5678V60.9998H164.93V59.3438H159.908ZM172.428 60.9998H174.336V56.1038H179.052V54.3758H174.336V50.8298H180.06V49.1198H172.428V60.9998ZM188.374 55.6538C188.374 53.2778 186.934 51.9638 184.756 51.9638C183.226 51.9638 181.912 52.5758 181.03 53.8538L182.128 54.9698C182.866 54.0878 183.586 53.6558 184.576 53.6558C185.782 53.6558 186.466 54.3218 186.466 55.5458V56.1218H183.964C181.966 56.1218 180.706 57.1118 180.706 58.6418C180.706 60.1718 181.93 61.1978 183.784 61.1978C184.99 61.1978 185.962 60.7838 186.61 60.0098V60.9998H188.374V55.6538ZM186.466 57.6518C186.466 58.8578 185.458 59.7398 184.18 59.7398C183.262 59.7398 182.632 59.3078 182.632 58.5698C182.632 57.8498 183.19 57.4898 184.198 57.4898H186.466V57.6518ZM196.063 52.1618C195.847 52.1078 195.613 52.0718 195.343 52.0718C194.335 52.0718 193.399 52.5218 192.769 53.3138V52.1618H191.005V60.9998H192.895V56.2838C192.895 54.7178 193.993 53.8358 195.487 53.8358H196.063V52.1618ZM211.021 55.4738C211.021 53.3678 209.779 51.9638 207.745 51.9638C206.503 51.9638 205.405 52.5038 204.757 53.3498C204.235 52.4858 203.299 51.9638 202.075 51.9638C201.013 51.9638 200.149 52.3418 199.519 52.9898V52.1618H197.755V60.9998H199.645V55.7438C199.645 54.5198 200.437 53.6918 201.589 53.6918C202.723 53.6918 203.443 54.5198 203.443 55.7438V60.9998H205.333V55.6538C205.333 54.5198 206.125 53.6918 207.277 53.6918C208.411 53.6918 209.113 54.5018 209.113 55.7438V60.9998H211.021V55.4738ZM213.393 59.8118C213.393 60.6038 214.023 61.1978 214.815 61.1978C215.607 61.1978 216.201 60.6038 216.201 59.8118C216.201 59.0018 215.607 58.4078 214.815 58.4078C214.023 58.4078 213.393 59.0198 213.393 59.8118ZM232.284 49.1198H230.178L227.226 54.2858L224.292 49.1198H222.168L226.272 56.2118V60.9998H228.18V56.2118L232.284 49.1198ZM232.142 56.5718C232.088 59.0738 234.266 61.2518 236.804 61.1978C239.378 61.2518 241.556 59.0738 241.502 56.5718C241.556 54.0698 239.378 51.9098 236.804 51.9638C234.266 51.9278 232.088 54.0338 232.142 56.5718ZM239.558 56.5898C239.558 58.1918 238.37 59.4518 236.804 59.4518C235.256 59.4518 234.068 58.2278 234.068 56.5898C234.068 54.9518 235.256 53.6918 236.822 53.6918C238.352 53.6918 239.558 54.9518 239.558 56.5898ZM243.579 57.2918C243.579 59.6678 245.235 61.1978 247.449 61.1978C249.609 61.1978 251.283 59.6678 251.283 57.2918V52.1618H249.393V57.4358C249.393 58.6598 248.547 59.4518 247.449 59.4518C246.297 59.4518 245.451 58.6598 245.451 57.4358V52.1618H243.579V57.2918ZM258.151 59.4878C258.943 60.5138 260.203 61.1978 261.715 61.1978C262.651 61.1978 263.425 60.9638 264.055 60.4958C264.685 60.0098 264.991 59.3438 264.991 58.4978C264.991 57.2558 264.253 56.5358 262.579 55.8338L261.733 55.4918C260.869 55.1318 260.563 54.8978 260.563 54.4478C260.563 53.8898 261.031 53.6018 261.769 53.6018C262.543 53.6018 263.281 53.9258 263.839 54.5018L264.865 53.3318C264.091 52.4138 263.083 51.9638 261.805 51.9638C260.005 51.9638 258.691 52.9358 258.691 54.5198C258.691 55.7618 259.429 56.4458 260.995 57.0938L261.895 57.4718C262.759 57.8318 263.137 58.0478 263.137 58.5698C263.137 59.2178 262.525 59.5598 261.715 59.5598C260.779 59.5598 260.005 59.1098 259.231 58.2998L258.151 59.4878ZM274.893 55.4738C274.893 53.3858 273.633 51.9638 271.617 51.9638C270.555 51.9638 269.655 52.3418 269.061 53.0438V47.4998H267.171V60.9998H269.061V55.7438C269.061 54.5378 269.907 53.6918 271.077 53.6918C272.247 53.6918 273.003 54.5198 273.003 55.7438V60.9998H274.893V55.4738ZM276.966 56.5718C276.912 59.0738 279.09 61.2518 281.628 61.1978C284.202 61.2518 286.38 59.0738 286.326 56.5718C286.38 54.0698 284.202 51.9098 281.628 51.9638C279.09 51.9278 276.912 54.0338 276.966 56.5718ZM284.382 56.5898C284.382 58.1918 283.194 59.4518 281.628 59.4518C280.08 59.4518 278.892 58.2278 278.892 56.5898C278.892 54.9518 280.08 53.6918 281.646 53.6918C283.176 53.6918 284.382 54.9518 284.382 56.5898ZM288.403 57.2918C288.403 59.6678 290.059 61.1978 292.273 61.1978C294.433 61.1978 296.107 59.6678 296.107 57.2918V52.1618H294.217V57.4358C294.217 58.6598 293.371 59.4518 292.273 59.4518C291.121 59.4518 290.275 58.6598 290.275 57.4358V52.1618H288.403V57.2918ZM298.759 60.9998H300.649V47.4998H298.759V60.9998ZM310.096 47.4998V53.2418C309.43 52.4318 308.368 51.9638 307.144 51.9638C304.696 51.9098 302.77 54.0158 302.824 56.5898C302.824 59.1998 304.66 61.1978 307.144 61.1978C308.458 61.1978 309.592 60.6578 310.24 59.7398V60.9998H312.004V47.4998H310.096ZM310.132 56.5898C310.132 58.5158 308.854 59.4698 307.468 59.4698C305.902 59.4698 304.75 58.2638 304.75 56.5718C304.75 54.8798 305.956 53.6918 307.468 53.6918C308.836 53.6918 310.132 54.6818 310.132 56.5898ZM333.048 55.4738C333.048 53.3678 331.806 51.9638 329.772 51.9638C328.53 51.9638 327.432 52.5038 326.784 53.3498C326.262 52.4858 325.326 51.9638 324.102 51.9638C323.04 51.9638 322.176 52.3418 321.546 52.9898V52.1618H319.782V60.9998H321.672V55.7438C321.672 54.5198 322.464 53.6918 323.616 53.6918C324.75 53.6918 325.47 54.5198 325.47 55.7438V60.9998H327.36V55.6538C327.36 54.5198 328.152 53.6918 329.304 53.6918C330.438 53.6918 331.14 54.5018 331.14 55.7438V60.9998H333.048V55.4738ZM335.673 60.9998H337.563V52.1618H335.673V60.9998ZM335.331 48.8678C335.331 49.5698 335.907 50.1098 336.627 50.1098C337.329 50.1098 337.905 49.5698 337.905 48.8678C337.905 48.1658 337.329 47.6078 336.627 47.6078C335.907 47.6078 335.331 48.1658 335.331 48.8678ZM347.226 52.1618V53.4218C346.578 52.5038 345.444 51.9638 344.094 51.9638C341.646 51.9638 339.792 53.8178 339.792 56.3918C339.792 58.9658 341.628 60.8198 344.094 60.8198C345.318 60.8198 346.416 60.3698 347.082 59.5598V60.1898C347.082 61.8458 346.038 62.7098 344.436 62.7098C343.23 62.7098 342.33 62.2418 341.34 61.4498L340.296 62.7638C341.358 63.7538 342.798 64.4378 344.544 64.4378C347.226 64.4378 348.972 62.8718 348.972 60.0818V52.1618H347.226ZM347.1 56.3738C347.1 57.2738 346.83 57.9578 346.308 58.4438C345.786 58.9298 345.174 59.1638 344.436 59.1638C343.662 59.1638 343.032 58.9118 342.51 58.4078C341.988 57.8858 341.736 57.2198 341.736 56.3918C341.736 55.5818 341.988 54.9158 342.51 54.4118C343.032 53.9078 343.662 53.6558 344.436 53.6558C345.894 53.6558 347.1 54.5738 347.1 56.3738ZM356.762 52.1618C356.546 52.1078 356.312 52.0718 356.042 52.0718C355.034 52.0718 354.098 52.5218 353.468 53.3138V52.1618H351.704V60.9998H353.594V56.2838C353.594 54.7178 354.692 53.8358 356.186 53.8358H356.762V52.1618ZM365.298 55.6538C365.298 53.2778 363.858 51.9638 361.68 51.9638C360.15 51.9638 358.836 52.5758 357.954 53.8538L359.052 54.9698C359.79 54.0878 360.51 53.6558 361.5 53.6558C362.706 53.6558 363.39 54.3218 363.39 55.5458V56.1218H360.888C358.89 56.1218 357.63 57.1118 357.63 58.6418C357.63 60.1718 358.854 61.1978 360.708 61.1978C361.914 61.1978 362.886 60.7838 363.534 60.0098V60.9998H365.298V55.6538ZM363.39 57.6518C363.39 58.8578 362.382 59.7398 361.104 59.7398C360.186 59.7398 359.556 59.3078 359.556 58.5698C359.556 57.8498 360.114 57.4898 361.122 57.4898H363.39V57.6518ZM373.185 59.3978C372.663 59.4518 372.285 59.4878 372.015 59.4878C370.863 59.4878 370.269 59.0918 370.269 57.9578V53.7998H372.897V52.1618H370.269V49.8398H368.361V52.1618H366.921V53.7998H368.361V58.1198C368.361 60.1898 369.585 61.1978 371.619 61.1978C372.069 61.1978 372.591 61.1258 373.185 60.9998V59.3978ZM382.881 57.2018C382.971 56.7878 383.025 56.3918 383.025 56.0138C383.025 53.7098 381.279 51.9638 378.939 51.9638C376.437 51.9098 374.313 54.0518 374.367 56.5898C374.367 59.1998 376.419 61.1978 379.119 61.1978C380.469 61.1978 381.639 60.7298 382.647 59.7758L381.747 58.4798C380.955 59.1818 380.091 59.5238 379.173 59.5238C377.661 59.5238 376.527 58.6418 376.293 57.2018H382.881ZM376.329 55.7258C376.617 54.4118 377.625 53.5658 378.867 53.5658C380.109 53.5658 381.117 54.3758 381.135 55.7258H376.329ZM396.391 52.1618L393.781 58.5878L391.243 52.1618H389.209L392.737 60.6038L392.377 61.4318C391.945 62.4218 391.333 62.7278 390.451 62.7278C390.307 62.7278 389.965 62.7098 389.407 62.6558V64.2578C389.893 64.3838 390.379 64.4378 390.865 64.4378C392.377 64.4378 393.367 63.6818 394.105 62.0078L398.407 52.1618H396.391ZM399.205 56.5718C399.151 59.0738 401.329 61.2518 403.867 61.1978C406.441 61.2518 408.619 59.0738 408.565 56.5718C408.619 54.0698 406.441 51.9098 403.867 51.9638C401.329 51.9278 399.151 54.0338 399.205 56.5718ZM406.621 56.5898C406.621 58.1918 405.433 59.4518 403.867 59.4518C402.319 59.4518 401.131 58.2278 401.131 56.5898C401.131 54.9518 402.319 53.6918 403.885 53.6918C405.415 53.6918 406.621 54.9518 406.621 56.5898ZM410.641 57.2918C410.641 59.6678 412.297 61.1978 414.511 61.1978C416.671 61.1978 418.345 59.6678 418.345 57.2918V52.1618H416.455V57.4358C416.455 58.6598 415.609 59.4518 414.511 59.4518C413.359 59.4518 412.513 58.6598 412.513 57.4358V52.1618H410.641V57.2918ZM426.055 52.1618C425.839 52.1078 425.605 52.0718 425.335 52.0718C424.327 52.0718 423.391 52.5218 422.761 53.3138V52.1618H420.997V60.9998H422.887V56.2838C422.887 54.7178 423.985 53.8358 425.479 53.8358H426.055V52.1618ZM431.964 59.4878C432.756 60.5138 434.016 61.1978 435.528 61.1978C436.464 61.1978 437.238 60.9638 437.868 60.4958C438.498 60.0098 438.804 59.3438 438.804 58.4978C438.804 57.2558 438.066 56.5358 436.392 55.8338L435.546 55.4918C434.682 55.1318 434.376 54.8978 434.376 54.4478C434.376 53.8898 434.844 53.6018 435.582 53.6018C436.356 53.6018 437.094 53.9258 437.652 54.5018L438.678 53.3318C437.904 52.4138 436.896 51.9638 435.618 51.9638C433.818 51.9638 432.504 52.9358 432.504 54.5198C432.504 55.7618 433.242 56.4458 434.808 57.0938L435.708 57.4718C436.572 57.8318 436.95 58.0478 436.95 58.5698C436.95 59.2178 436.338 59.5598 435.528 59.5598C434.592 59.5598 433.818 59.1098 433.044 58.2998L431.964 59.4878ZM446.239 59.3978C445.717 59.4518 445.339 59.4878 445.069 59.4878C443.917 59.4878 443.323 59.0918 443.323 57.9578V53.7998H445.951V52.1618H443.323V49.8398H441.415V52.1618H439.975V53.7998H441.415V58.1198C441.415 60.1898 442.639 61.1978 444.673 61.1978C445.123 61.1978 445.645 61.1258 446.239 60.9998V59.3978ZM455.175 55.6538C455.175 53.2778 453.735 51.9638 451.557 51.9638C450.027 51.9638 448.713 52.5758 447.831 53.8538L448.929 54.9698C449.667 54.0878 450.387 53.6558 451.377 53.6558C452.583 53.6558 453.267 54.3218 453.267 55.5458V56.1218H450.765C448.767 56.1218 447.507 57.1118 447.507 58.6418C447.507 60.1718 448.731 61.1978 450.585 61.1978C451.791 61.1978 452.763 60.7838 453.411 60.0098V60.9998H455.175V55.6538ZM453.267 57.6518C453.267 58.8578 452.259 59.7398 450.981 59.7398C450.063 59.7398 449.433 59.3078 449.433 58.5698C449.433 57.8498 449.991 57.4898 450.999 57.4898H453.267V57.6518ZM457.806 60.9998H459.696V47.4998H457.806V60.9998ZM461.982 56.0498L465.546 52.1618H463.206L459.75 56.0318L463.584 60.9998H465.852L461.982 56.0498ZM467.403 60.9998H469.293V52.1618H467.403V60.9998ZM467.061 48.8678C467.061 49.5698 467.637 50.1098 468.357 50.1098C469.059 50.1098 469.635 49.5698 469.635 48.8678C469.635 48.1658 469.059 47.6078 468.357 47.6078C467.637 47.6078 467.061 48.1658 467.061 48.8678ZM479.748 55.4738C479.748 53.3678 478.506 51.9638 476.436 51.9638C475.338 51.9638 474.456 52.3238 473.79 53.0258V52.1618H472.026V60.9998H473.916V55.7258C473.916 54.5198 474.762 53.6738 475.932 53.6738C477.084 53.6738 477.858 54.5018 477.858 55.7258V60.9998H479.748V55.4738ZM489.31 52.1618V53.4218C488.662 52.5038 487.528 51.9638 486.178 51.9638C483.73 51.9638 481.876 53.8178 481.876 56.3918C481.876 58.9658 483.712 60.8198 486.178 60.8198C487.402 60.8198 488.5 60.3698 489.166 59.5598V60.1898C489.166 61.8458 488.122 62.7098 486.52 62.7098C485.314 62.7098 484.414 62.2418 483.424 61.4498L482.38 62.7638C483.442 63.7538 484.882 64.4378 486.628 64.4378C489.31 64.4378 491.056 62.8718 491.056 60.0818V52.1618H489.31ZM489.184 56.3738C489.184 57.2738 488.914 57.9578 488.392 58.4438C487.87 58.9298 487.258 59.1638 486.52 59.1638C485.746 59.1638 485.116 58.9118 484.594 58.4078C484.072 57.8858 483.82 57.2198 483.82 56.3918C483.82 55.5818 484.072 54.9158 484.594 54.4118C485.116 53.9078 485.746 53.6558 486.52 53.6558C487.978 53.6558 489.184 54.5738 489.184 56.3738ZM492.96 59.4878C493.752 60.5138 495.012 61.1978 496.524 61.1978C497.46 61.1978 498.234 60.9638 498.864 60.4958C499.494 60.0098 499.8 59.3438 499.8 58.4978C499.8 57.2558 499.062 56.5358 497.388 55.8338L496.542 55.4918C495.678 55.1318 495.372 54.8978 495.372 54.4478C495.372 53.8898 495.84 53.6018 496.578 53.6018C497.352 53.6018 498.09 53.9258 498.648 54.5018L499.674 53.3318C498.9 52.4138 497.892 51.9638 496.614 51.9638C494.814 51.9638 493.5 52.9358 493.5 54.5198C493.5 55.7618 494.238 56.4458 495.804 57.0938L496.704 57.4718C497.568 57.8318 497.946 58.0478 497.946 58.5698C497.946 59.2178 497.334 59.5598 496.524 59.5598C495.588 59.5598 494.814 59.1098 494.04 58.2998L492.96 59.4878ZM509.238 50.5418C509.238 49.4078 509.814 49.0118 510.966 49.0118C511.182 49.0118 511.434 49.0298 511.722 49.0658V47.4638C511.38 47.3558 510.984 47.3018 510.498 47.3018C508.554 47.3018 507.348 48.3098 507.348 50.3798V52.1618H506.088V53.7998H507.348V60.9998H509.238V53.7998H511.326V52.1618H509.238V50.5418ZM517.883 52.1618C517.667 52.1078 517.433 52.0718 517.163 52.0718C516.155 52.0718 515.219 52.5218 514.589 53.3138V52.1618H512.825V60.9998H514.715V56.2838C514.715 54.7178 515.813 53.8358 517.307 53.8358H517.883V52.1618ZM518.841 56.5718C518.787 59.0738 520.965 61.2518 523.503 61.1978C526.077 61.2518 528.255 59.0738 528.201 56.5718C528.255 54.0698 526.077 51.9098 523.503 51.9638C520.965 51.9278 518.787 54.0338 518.841 56.5718ZM526.257 56.5898C526.257 58.1918 525.069 59.4518 523.503 59.4518C521.955 59.4518 520.767 58.2278 520.767 56.5898C520.767 54.9518 521.955 53.6918 523.521 53.6918C525.051 53.6918 526.257 54.9518 526.257 56.5898ZM543.634 55.4738C543.634 53.3678 542.392 51.9638 540.358 51.9638C539.116 51.9638 538.018 52.5038 537.37 53.3498C536.848 52.4858 535.912 51.9638 534.688 51.9638C533.626 51.9638 532.762 52.3418 532.132 52.9898V52.1618H530.368V60.9998H532.258V55.7438C532.258 54.5198 533.05 53.6918 534.202 53.6918C535.336 53.6918 536.056 54.5198 536.056 55.7438V60.9998H537.946V55.6538C537.946 54.5198 538.738 53.6918 539.89 53.6918C541.024 53.6918 541.726 54.5018 541.726 55.7438V60.9998H543.634V55.4738ZM558.417 49.1198L554.997 57.3818L551.577 49.1198H549.435L554.673 61.1978H555.321L560.559 49.1198H558.417ZM565.511 49.1198L561.389 50.4698L561.857 52.1438L564.269 51.3698V60.9998H566.177V49.1198H565.511ZM574.51 60.9998H576.418V56.1038H581.134V54.3758H576.418V50.8298H582.142V49.1198H574.51V60.9998ZM590.456 55.6538C590.456 53.2778 589.016 51.9638 586.838 51.9638C585.308 51.9638 583.994 52.5758 583.112 53.8538L584.21 54.9698C584.948 54.0878 585.668 53.6558 586.658 53.6558C587.864 53.6558 588.548 54.3218 588.548 55.5458V56.1218H586.046C584.048 56.1218 582.788 57.1118 582.788 58.6418C582.788 60.1718 584.012 61.1978 585.866 61.1978C587.072 61.1978 588.044 60.7838 588.692 60.0098V60.9998H590.456V55.6538ZM588.548 57.6518C588.548 58.8578 587.54 59.7398 586.262 59.7398C585.344 59.7398 584.714 59.3078 584.714 58.5698C584.714 57.8498 585.272 57.4898 586.28 57.4898H588.548V57.6518ZM598.145 52.1618C597.929 52.1078 597.695 52.0718 597.425 52.0718C596.417 52.0718 595.481 52.5218 594.851 53.3138V52.1618H593.087V60.9998H594.977V56.2838C594.977 54.7178 596.075 53.8358 597.569 53.8358H598.145V52.1618ZM613.103 55.4738C613.103 53.3678 611.861 51.9638 609.827 51.9638C608.585 51.9638 607.487 52.5038 606.839 53.3498C606.317 52.4858 605.381 51.9638 604.157 51.9638C603.095 51.9638 602.231 52.3418 601.601 52.9898V52.1618H599.837V60.9998H601.727V55.7438C601.727 54.5198 602.519 53.6918 603.671 53.6918C604.805 53.6918 605.525 54.5198 605.525 55.7438V60.9998H607.415V55.6538C607.415 54.5198 608.207 53.6918 609.359 53.6918C610.493 53.6918 611.195 54.5018 611.195 55.7438V60.9998H613.103V55.4738ZM615.475 59.8118C615.475 60.6038 616.105 61.1978 616.897 61.1978C617.689 61.1978 618.283 60.6038 618.283 59.8118C618.283 59.0018 617.689 58.4078 616.897 58.4078C616.105 58.4078 615.475 59.0198 615.475 59.8118Z" fill="white"/>
</g>
</g>
<defs>
<filter id="filter0_dd_906_14602" x="98.1399" y="296.166" width="313.72" height="60.2803" filterUnits="userSpaceOnUse" color-interpolation-filters="sRGB">
<feFlood flood-opacity="0" result="BackgroundImageFix"/>
<feColorMatrix in="SourceAlpha" type="matrix" values="0 0 0 0 0 0 0 0 0 0 0 0 0 0 0 0 0 0 127 0" result="hardAlpha"/>
<feOffset dy="8"/>
<feGaussianBlur stdDeviation="4"/>
<feColorMatrix type="matrix" values="0 0 0 0 0.0941176 0 0 0 0 0.152941 0 0 0 0 0.294118 0 0 0 0.08 0"/>
<feBlend mode="normal" in2="BackgroundImageFix" result="effect1_dropShadow_906_14602"/>
<feColorMatrix in="SourceAlpha" type="matrix" values="0 0 0 0 0 0 0 0 0 0 0 0 0 0 0 0 0 0 127 0" result="hardAlpha"/>
<feOffset dy="4"/>
<feGaussianBlur stdDeviation="3"/>
<feColorMatrix type="matrix" values="0 0 0 0 0.0941176 0 0 0 0 0.152941 0 0 0 0 0.294118 0 0 0 0.12 0"/>
<feBlend mode="normal" in2="effect1_dropShadow_906_14602" result="effect2_dropShadow_906_14602"/>
<feBlend mode="normal" in="SourceGraphic" in2="effect2_dropShadow_906_14602" result="shape"/>
</filter>
<filter id="filter1_dd_906_14602" x="98.259" y="347.658" width="313.482" height="58.041" filterUnits="userSpaceOnUse" color-interpolation-filters="sRGB">
<feFlood flood-opacity="0" result="BackgroundImageFix"/>
<feColorMatrix in="SourceAlpha" type="matrix" values="0 0 0 0 0 0 0 0 0 0 0 0 0 0 0 0 0 0 127 0" result="hardAlpha"/>
<feOffset dy="2"/>
<feGaussianBlur stdDeviation="1"/>
<feColorMatrix type="matrix" values="0 0 0 0 0.0941176 0 0 0 0 0.152941 0 0 0 0 0.294118 0 0 0 0.06 0"/>
<feBlend mode="normal" in2="BackgroundImageFix" result="effect1_dropShadow_906_14602"/>
<feColorMatrix in="SourceAlpha" type="matrix" values="0 0 0 0 0 0 0 0 0 0 0 0 0 0 0 0 0 0 127 0" result="hardAlpha"/>
<feOffset dy="1"/>
<feGaussianBlur stdDeviation="3.5"/>
<feColorMatrix type="matrix" values="0 0 0 0 0.0941176 0 0 0 0 0.152941 0 0 0 0 0.294118 0 0 0 0.06 0"/>
<feBlend mode="normal" in2="effect1_dropShadow_906_14602" result="effect2_dropShadow_906_14602"/>
<feBlend mode="normal" in="SourceGraphic" in2="effect2_dropShadow_906_14602" result="shape"/>
</filter>
<clipPath id="clip0_906_14602">
<rect width="510" height="431" fill="white"/>
</clipPath>
<clipPath id="clip1_906_14602">
<rect width="340" height="299.482" fill="white" transform="translate(85 122)"/>
</clipPath>
</defs>
</svg>
